<?xml version="1.0" encoding="UTF-8"?>
<svg width="32.385mm" height="32.385mm" version="1.1" viewBox="0 0 32.384998 32.384998" xmlns="http://www.w3.org/2000/svg">
 <g transform="translate(72.133 -152.3)">
  <path id="XMLID_100_" class="st72" d="m-55.94 184.68c-8.9165 0-16.192-7.2496-16.192-16.192 0-8.9165 7.2496-16.192 16.192-16.192 8.9165 0 16.192 7.2496 16.192 16.192 0 8.9429-7.2496 16.192-16.192 16.192z" fill="#010101" stroke-width=".26458"/>
  <g id="XMLID_101_" transform="matrix(.26458 0 0 .26458 -75.149 109.04)" fill="#fff">
   <path id="XMLID_458_" class="st74" d="m100.6 244.8c0.2 0.4 0.5 0.8 0.7 1.2 0.6 1 1.2 2 2 2.9 0.3 0.4 0.6 0.7 1.1 0.9 0.2 0.1 0.4 0.1 0.7 0 0.5-0.2 0.8-0.6 1-1 0.3-0.7 0.7-1.5 1-2.2 1.1-2.5 2.2-5.1 3.3-7.6 0.1-0.2 0.2-0.2 0.4-0.3 0.5 0 0.5 0 0.7 0.4 0.9 2.2 1.8 4.5 2.7 6.7 0.4 1.1 0.9 2.1 1.4 3.1 0.1 0.1 0.1 0.3 0.2 0.4 0.2 0.4 0.6 0.6 1 0.7 0.3 0 0.1 0.2 0.2 0.3 0 0.2-0.1 0.2-0.2 0.2h-4.8c-0.2 0-0.2 0-0.2-0.2 0-0.1 0-0.3 0.2-0.3s0.5-0.1 0.7-0.1c0.3-0.1 0.5-0.3 0.4-0.6l-0.3-1.2c-0.2-0.5-0.4-0.9-0.5-1.4 0-0.1-0.1-0.2-0.3-0.2h-3.4c-0.1 0-0.2 0-0.3 0.1-0.3 0.8-0.6 1.5-0.9 2.3v0.2c-0.1 0.3 0 0.5 0.3 0.6s0.7 0.2 1.1 0.2c0.3 0 0.2 0 0.2 0.3 0 0.2-0.1 0.2-0.3 0.2h-2.7c-0.6 0-1.3 0.1-1.9 0.1-0.4 0-0.8 0.1-1.3 0.1s-0.8-0.2-1.1-0.5c-0.5-0.5-0.9-1.1-1.2-1.7-0.4-0.8-0.9-1.6-1.3-2.4-0.3-0.5-0.6-0.7-1.2-0.7h-0.8c-0.1 0-0.2 0-0.2 0.2v2.8c0 0.3 0 0.5 0.1 0.8 0.1 0.5 0.3 0.7 0.8 0.7h0.6c0.2 0 0.2 0.2 0.2 0.3 0 0.2-0.1 0.2-0.2 0.2h-5.2c-0.2 0-0.2-0.1-0.2-0.2 0-0.2 0-0.3 0.2-0.3h0.6c0.5-0.1 0.7-0.3 0.8-0.8 0-0.4 0.1-0.8 0.1-1.3v-6.5c0-0.5 0-0.9-0.1-1.4-0.1-0.4-0.3-0.6-0.7-0.6-0.2 0-0.4-0.1-0.6-0.1s-0.2-0.2-0.2-0.3 0.1-0.2 0.2-0.2h1.5 3.7c0.8 0 1.6 0.1 2.3 0.4 0.9 0.3 1.6 0.9 1.9 1.8 0.3 1.3-0.1 2.4-1.1 3.2-0.2 0.2-0.5 0.3-0.7 0.5s-0.3 0.3-0.4 0.3zm-3.6-2.6v2.3c0 0.2 0.1 0.2 0.2 0.2h1.6c0.2 0 0.4-0.1 0.5-0.1 0.3-0.2 0.6-0.5 0.8-0.8 0.5-0.9 0.5-1.9 0.2-2.9-0.3-0.7-0.8-1.2-1.6-1.3-0.5-0.1-0.9 0-1.4 0.1-0.2 0-0.2 0.1-0.2 0.3-0.1 0.7-0.1 1.5-0.1 2.2zm14.7 3.6c0-0.1 0-0.1-0.1-0.2-0.4-1.2-0.9-2.3-1.3-3.4 0-0.1-0.1-0.1-0.1-0.2 0 0.1-0.1 0.1-0.1 0.2-0.5 1.2-1 2.3-1.4 3.5v0.2c0.9-0.1 1.9-0.1 3-0.1z"/>
   <path id="XMLID_455_" class="st74" d="m47 244.8c0.2 0.4 0.5 0.8 0.7 1.1 0.6 1 1.2 2 2 2.9 0.3 0.3 0.7 0.7 1 0.9 0.2 0.2 0.5 0.2 0.8 0.3 0.1 0 0.2 0 0.2 0.2s0 0.3-0.2 0.3c-0.6 0-1.2 0.1-1.8 0.1h-0.7c-0.5-0.1-0.9-0.4-1.2-0.8-0.6-0.7-1-1.5-1.5-2.4-0.3-0.5-0.5-1-0.8-1.5-0.2-0.4-0.5-0.6-1-0.6h-0.9c-0.1 0-0.2 0-0.2 0.2 0 1.2-0.1 2.4 0.1 3.6 0.1 0.5 0.3 0.7 0.8 0.7h0.6c0.2 0 0.2 0.1 0.2 0.3 0 0.1 0 0.2-0.2 0.2h-5.2c-0.1 0-0.2 0-0.2-0.2 0-0.1 0-0.3 0.2-0.3h0.6c0.4 0 0.7-0.2 0.8-0.7s0.1-1 0.1-1.5v-6.2c0-0.4 0-0.8-0.1-1.2-0.1-0.8-0.3-1-1.1-1h-0.3c-0.2 0-0.2-0.2-0.2-0.3 0-0.2 0.1-0.2 0.2-0.2 1.7 0 3.4-0.1 5.1-0.1 0.8 0 1.7 0.1 2.5 0.4 0.9 0.3 1.6 0.8 1.8 1.7 0.3 1.2 0 2.5-1.1 3.3-0.3 0.4-0.6 0.6-1 0.8zm-3.6-2.6v2.3c0 0.2 0.1 0.3 0.2 0.2h1.5c0.2 0 0.4-0.1 0.6-0.2 0.3-0.2 0.5-0.5 0.7-0.8 0.4-0.9 0.5-1.9 0.2-2.8-0.3-0.7-0.8-1.2-1.6-1.3-0.4-0.1-0.9 0-1.4 0.1-0.2 0-0.3 0.1-0.3 0.3 0.1 0.8 0.1 1.5 0.1 2.2z"/>
   <path id="XMLID_452_" class="st74" d="m57 250.8c-1.4 0-2.7-0.3-3.8-1.1-1.2-0.8-2-2-2.3-3.5-0.3-1.4-0.2-2.8 0.5-4.1 0.8-1.7 2.2-2.7 3.9-3.2 2-0.5 4-0.3 5.8 0.8 1.2 0.8 2 2 2.3 3.5s0.2 3-0.5 4.4c-0.9 1.8-2.4 2.7-4.3 3.1-0.6 0-1.1 0-1.6 0.1zm4.1-6.2v-0.6c-0.1-0.9-0.2-1.7-0.6-2.5-1-2.2-3.6-2.5-5-1.8-0.8 0.4-1.3 1.1-1.7 1.9s-0.5 1.7-0.5 2.5c-0.1 1 0 2 0.3 3 0.5 1.6 1.6 2.6 3.3 2.8 1.6 0.2 2.9-0.5 3.6-2 0.4-1 0.6-2.1 0.6-3.3z"/>
   <path id="XMLID_449_" class="st74" d="m31.4 244.7v-3.2c0-0.4 0-0.8-0.1-1.3-0.1-0.6-0.3-0.8-1-0.9h-0.3c-0.2 0-0.3-0.1-0.2-0.3 0 0 0.1-0.1 0.2-0.1 0.9 0 1.7 0 2.6-0.1h2.6c0.8 0 1.5 0.1 2.3 0.4 1.1 0.4 1.8 1.1 2 2.2 0.3 1.7-0.5 3.1-2.1 3.8-0.9 0.4-1.8 0.5-2.8 0.5h-0.7l-0.1 0.1c0 1.2 0 2.3 0.1 3.5 0 0.5 0.3 0.7 0.9 0.7h0.7c0.2 0 0.2 0.1 0.2 0.3s-0.1 0.2-0.2 0.2h-5-0.4c-0.1 0-0.2 0-0.2-0.2 0-0.1-0.1-0.3 0.1-0.3h0.5c0.6 0 0.9-0.3 0.9-0.9 0-0.4 0.1-0.8 0.1-1.3-0.1-1-0.1-2.1-0.1-3.1zm3.4-5.1c-0.3 0-0.6 0.1-0.9 0.1-0.2 0-0.2 0.1-0.2 0.3v4.7c0 0.2 0.1 0.3 0.3 0.3h1c0.9-0.1 1.6-0.5 2-1.3 0.3-0.5 0.3-1 0.3-1.6-0.1-1.6-1.1-2.6-2.5-2.5z"/>
   <path id="XMLID_446_" class="st74" d="m76.5 250.5h-2.6c-0.2 0-0.2 0-0.2-0.2s0-0.3 0.2-0.3 0.5 0 0.7-0.1c0.2 0 0.4-0.2 0.5-0.4 0.1-0.3 0.2-0.6 0.2-0.9v-2.3-4.5c0-0.5 0-1-0.1-1.5-0.1-0.7-0.3-0.9-1-1h-0.3c-0.2 0-0.2-0.2-0.2-0.3s0.1-0.1 0.2-0.1c1.7 0 3.5-0.1 5.2-0.1 0.7 0 1.5 0.1 2.2 0.3 0.9 0.3 1.6 0.8 1.9 1.6 0.5 1.3 0.2 3-1.1 3.9-0.8 0.6-1.7 0.9-2.6 0.9h-1.6c-0.1 0-0.2 0.1-0.2 0.2v2c0 0.5 0 1 0.1 1.5s0.3 0.7 0.8 0.7h0.7c0.2 0 0.2 0.1 0.2 0.3s-0.1 0.2-0.2 0.2c-1 0.1-1.9 0.1-2.8 0.1zm1.1-8.2v2.3c0 0.3 0 0.3 0.3 0.3h1c0.9-0.1 1.6-0.5 2-1.4 0.4-0.8 0.4-1.7 0.1-2.5s-0.9-1.3-1.7-1.4c-0.5-0.1-0.9 0-1.4 0-0.2 0-0.3 0.1-0.2 0.3-0.1 0.8-0.1 1.6-0.1 2.4z"/>
   <path id="XMLID_445_" class="st74" d="m87.8 250.5h-4.1c-0.2 0-0.3 0-0.3-0.2s0-0.3 0.2-0.3 0.4 0 0.7-0.1c0.3 0 0.4-0.2 0.5-0.4 0.1-0.3 0.2-0.6 0.2-0.9v-7.8c0-0.3-0.1-0.6-0.2-0.9s-0.3-0.5-0.6-0.5c-0.2 0-0.4 0-0.7-0.1-0.2 0-0.1-0.2-0.1-0.3s0.1-0.1 0.2-0.1h8.2c0.1 0 0.2 0 0.2 0.2v1.6c0 0.3-0.1 0.6-0.1 0.9 0 0.1-0.1 0.2-0.2 0.2h-0.2c-0.1 0-0.2 0-0.2-0.2s0-0.4-0.1-0.6c-0.2-0.9-0.6-1.3-1.5-1.3-0.7 0-1.4 0.1-2.1 0.1-0.2 0-0.2 0.1-0.2 0.3v3.9c0 0.2 0 0.2 0.2 0.2h1.8c0.6 0 0.8-0.2 1-0.8 0-0.1 0.1-0.2 0.1-0.2 0.1-0.1 0.3 0 0.3 0.2v2.9c0 0.1 0 0.2-0.1 0.2s-0.3 0.1-0.3-0.1-0.1-0.4-0.1-0.7c-0.1-0.3-0.3-0.6-0.6-0.6-0.5-0.1-1-0.1-1.6-0.1s-0.6 0-0.6 0.6v2.8c0 0.3 0.1 0.5 0.1 0.8 0.1 0.4 0.3 0.7 0.8 0.7h2c0.7-0.1 1.1-0.5 1.4-1.1l0.3-0.9c0.1-0.2 0.2-0.2 0.5-0.2 0.2 0 0.1 0.2 0.1 0.3-0.1 0.8-0.2 1.7-0.4 2.5 0 0.2-0.1 0.2-0.3 0.2-1.5-0.2-2.8-0.2-4.2-0.2z"/>
   <path id="XMLID_444_" class="st74" d="m67.8 250.8c-0.4-0.1-1.3-0.2-2.1-0.3-0.3 0-0.6-0.1-0.9-0.1-0.1 0-0.2-0.1-0.2-0.2-0.1-0.8-0.1-1.6-0.2-2.5 0-0.2 0.1-0.2 0.2-0.2 0.2 0 0.3 0 0.4 0.3 0.2 0.8 0.7 1.5 1.5 1.9 0.9 0.4 1.8 0.5 2.7 0.2 0.8-0.3 1.2-0.9 1.2-1.8 0-0.7-0.4-1.3-1-1.7-0.7-0.5-1.4-0.9-2.1-1.4-0.6-0.4-1.2-0.8-1.7-1.4-1-1.1-1-2.9-0.1-3.8 0.5-0.6 1.2-0.9 2-1.1 1.3-0.3 2.5-0.1 3.8 0.1 0.3 0.1 0.6 0.1 0.9 0.1 0.1 0 0.2 0.1 0.2 0.2-0.1 0.9-0.2 1.7-0.2 2.6 0 0.1-0.1 0.2-0.2 0.2-0.4 0-0.4 0-0.4-0.4-0.1-0.5-0.2-0.9-0.5-1.3-0.4-0.6-1-0.9-1.7-1-0.3 0-0.6 0-0.8 0.1-1.4 0.3-1.6 1.8-0.9 2.6 0.3 0.4 0.7 0.6 1 0.9 0.8 0.5 1.6 1 2.4 1.6 0.5 0.3 0.9 0.7 1.3 1.2 0.8 1.3 0.8 3.5-1.2 4.5-1.1 0.5-2.1 0.7-3.4 0.7z"/>
   <path id="XMLID_443_" class="st74" d="m76.1 252.8h0.3 24.6c2.8 0 5.6 0.1 8.3 0.1 1.3 0 2.5 0.1 3.8 0.2h0.3v0.1c-0.3 0-0.5 0.1-0.8 0.1-4 0.2-8 0.3-11.9 0.3h-24.3c-0.3 0-0.3 0-0.3-0.3v-0.5z"/>
   <path id="XMLID_442_" class="st74" d="m70 252.9v0.6l-0.1 0.1h-0.2-23.6c-2.2 0-4.4 0-6.7-0.1-1.8 0-3.5-0.1-5.3-0.2-0.4 0-0.9-0.1-1.3-0.1v-0.1h0.3c1.1-0.1 2.2-0.1 3.3-0.2 3.3-0.1 6.6-0.1 9.8-0.1h23.5c0.2 0 0.2 0.1 0.3 0.1z"/>
   <path id="XMLID_421_" class="st74" d="m83.5 258.4c0 0.2 0 0.3-0.1 0.5-0.1 0.8-0.1 1.6-0.2 2.3 0 0.4 0.1 0.5 0.4 0.5 0.1 0 0.1 0 0.2 0.1h-1.6v-0.1c0.1 0 0.1 0 0.2-0.1 0.2 0 0.4-0.2 0.4-0.4 0.1-0.4 0.1-0.9 0.2-1.3 0.1-0.6 0.1-1.3 0.2-1.9 0-0.3-0.2-0.6-0.5-0.6h-0.1v-0.1h0.5c0.5-0.1 0.7 0.1 0.9 0.5 0.4 0.9 0.8 1.7 1.1 2.6 0 0.1 0.1 0.1 0.1 0.3 0.1-0.1 0.1-0.2 0.1-0.3 0.4-1 0.7-2 1.1-3 0-0.1 0.1-0.1 0.1-0.1h1.2v0.1h-0.2c-0.3 0-0.4 0.1-0.4 0.4 0 0.7 0.1 1.4 0.1 2.1 0 0.4 0.1 0.8 0.1 1.1 0 0.4 0.1 0.5 0.5 0.6 0 0 0.1 0 0.1 0.1h-1.8v-0.1c0.1 0 0.2 0 0.3-0.1 0.2 0 0.3-0.1 0.3-0.3 0-0.5-0.1-1.1-0.1-1.6 0-0.4-0.1-0.8-0.1-1.2v-0.2h-0.1c0 0.1-0.1 0.1-0.1 0.2l-1.2 3c-0.1 0.1-0.1 0.2-0.2 0.2s-0.2-0.1-0.2-0.2c-0.4-1-0.8-2-1.2-2.9 0.1 0 0.1 0 0-0.1z"/>
   <path id="XMLID_418_" class="st74" d="m35.2 267.8h0.2c0.3 0 0.4-0.1 0.4-0.4v-1-2.3c0-0.4-0.1-0.4-0.5-0.5 0 0-0.1 0-0.1-0.1h0.2 2.2c0.4 0 0.8 0.1 1.1 0.2 0.9 0.4 1.3 1.2 1.2 2.1-0.1 1.3-1 2-2 2.1-0.9 0-1.8-0.1-2.7-0.1v0zm2.1-4.2c-0.2 0-0.4 0-0.6 0.1-0.2 0-0.2 0.1-0.2 0.3v3 0.3c0 0.2 0.1 0.3 0.3 0.3h0.8c0.7-0.1 1.4-0.6 1.5-1.4 0.1-0.3 0.1-0.7 0-1.1-0.1-0.7-0.5-1.2-1.2-1.4-0.2 0-0.5 0-0.6-0.1z"/>
   <path id="XMLID_417_" class="st74" d="m49.7 264.2v0.1 3c0 0.3 0.1 0.4 0.4 0.4 0.1 0 0.1 0 0.2 0.1h-1.6 0.2c0.2 0 0.3-0.1 0.3-0.3v-0.4-2.8c0-0.5-0.1-0.6-0.6-0.7 0 0-0.1 0-0.1-0.1h0.2 0.7c0.2 0 0.4 0.1 0.6 0.2 0.6 0.7 1.2 1.4 1.9 2.1 0.2 0.3 0.4 0.5 0.6 0.8l0.2 0.2v-0.2-2.4c0-0.4-0.1-0.4-0.5-0.5-0.1 0-0.1 0-0.1-0.1h1.6v0.1c-0.1 0-0.1 0-0.2 0.1-0.2 0-0.3 0.1-0.3 0.3v0.5 3.4c0 0.1 0 0.2-0.1 0.2-0.1 0.1-0.2 0-0.2-0.1-1-1.1-1.9-2.3-2.9-3.4-0.2-0.4-0.2-0.4-0.3-0.5z"/>
   <path id="XMLID_416_" class="st74" d="m79.2 263.4h0.2 0.7c0.2 0 0.4 0.1 0.5 0.2 0.8 1 1.7 1.9 2.5 2.9 0 0.1 0.1 0.1 0.2 0.2v-0.2-2.5c0-0.4-0.1-0.4-0.4-0.5-0.1 0-0.1 0-0.2-0.1v-0.1h1.6c-0.1 0-0.1 0.1-0.2 0.1-0.2 0-0.3 0.1-0.4 0.3v0.5 3.3c0 0.1 0 0.2-0.1 0.2s-0.2 0-0.2-0.1c-1-1.1-1.9-2.3-2.9-3.4l-0.2-0.2v0.2 2.4 0.5c0 0.3 0.1 0.4 0.4 0.4h0.2-1.6 0.2c0.3 0 0.4-0.1 0.4-0.4v-0.3-2.8c0-0.6-0.1-0.6-0.6-0.8 0 0.3-0.1 0.3-0.1 0.2z"/>
   <path id="XMLID_413_" class="st74" d="m73 257.4h0.1 2c0.1 0 0.3 0 0.4 0.1 0.9 0.2 1 1.2 0.5 1.7l-0.4 0.4c-0.1 0.1-0.1 0.1-0.1 0.2 0.2 0.4 0.5 0.8 0.7 1.2 0.2 0.3 0.5 0.7 1 0.8l-0.1 0.1c-0.2 0-0.5 0-0.7 0.1-0.2 0-0.4-0.1-0.5-0.2-0.2-0.3-0.4-0.7-0.6-1-0.1-0.2-0.2-0.3-0.3-0.5s-0.5-0.4-0.7-0.3l-0.1 0.1v1.3c0 0.3 0.1 0.4 0.4 0.4 0.1 0 0.1 0 0.2 0.1h-1.9c0.1 0 0.2 0 0.3-0.1 0.2 0 0.3-0.1 0.3-0.3v-0.3-3-0.1c0-0.3-0.1-0.4-0.4-0.5 0-0.1-0.1-0.1-0.1-0.2zm1.2 1.3v0.5c0 0.5 0 0.5 0.5 0.5s0.7-0.1 0.8-0.6c0.1-0.2 0.1-0.4 0.1-0.6 0-0.7-0.6-1.1-1.2-0.8-0.1 0-0.1 0.1-0.1 0.2-0.1 0.2-0.1 0.5-0.1 0.8z"/>
   <path id="XMLID_410_" class="st74" d="m78.7 265.6c0 1.4-1 2.4-2.4 2.3-1.5 0-2.3-0.9-2.3-2.3 0-1.5 1-2.4 2.4-2.4 1.3 0.1 2.3 1 2.3 2.4zm-2.3 2.1c0.6 0 1-0.2 1.3-0.7 0.5-0.9 0.5-1.8 0-2.7-0.3-0.6-0.9-0.8-1.5-0.8s-1 0.4-1.3 0.9c-0.3 0.7-0.3 1.5 0 2.2 0.3 0.8 0.8 1.1 1.5 1.1z"/>
   <path id="XMLID_407_" class="st74" d="m90.3 265.7c0-1.4 1-2.4 2.4-2.4s2.3 0.9 2.3 2.3-1 2.3-2.4 2.3c-1.5 0.1-2.4-0.9-2.3-2.2zm0.7-0.3c0 0.7 0.1 1.3 0.5 1.7 0.6 0.7 2 0.8 2.5-0.2 0.4-0.8 0.4-1.7 0-2.5-0.3-0.6-0.9-0.9-1.6-0.8-0.6 0.1-1.1 0.5-1.3 1.1-0.1 0.3-0.1 0.6-0.1 0.7z"/>
   <path id="XMLID_404_" class="st74" d="m62.1 259.6c0-1.4 1-2.3 2.4-2.3s2.4 0.9 2.3 2.3c0 1.4-1 2.3-2.5 2.3-1.3 0-2.2-0.9-2.2-2.3zm0.6-0.1c0 0.5 0.1 1 0.4 1.4 0.7 1 2.2 0.9 2.7-0.2 0.4-0.8 0.4-1.6 0-2.4-0.3-0.6-0.9-1-1.5-0.9-0.7 0.1-1.2 0.4-1.4 1.1-0.1 0.5-0.1 0.7-0.2 1z"/>
   <path id="XMLID_401_" class="st74" d="m59.6 261.8h-1.9v-0.1h0.2c0.2 0 0.3-0.2 0.4-0.4v-0.3-3.2c0-0.3-0.1-0.3-0.4-0.4-0.1 0-0.1 0-0.2-0.1h0.1 2c0.1 0 0.2 0 0.4 0.1 1.1 0.3 1 1.4 0.5 1.9-0.1 0.1-0.2 0.2-0.4 0.3-0.1 0.1-0.1 0.1-0.1 0.2 0.3 0.5 0.6 0.9 0.9 1.4 0.2 0.3 0.4 0.5 0.8 0.6v0.1h-0.1-0.3c-0.5 0.1-0.8 0-1.1-0.5l-0.6-1.2c-0.2-0.3-0.4-0.4-0.7-0.3-0.1 0-0.1 0.1-0.1 0.2v1.3c0 0.2 0.1 0.3 0.3 0.3 0.1 0 0.2 0 0.3 0.1zm-0.7-3.1v0.6c0 0.5 0 0.4 0.4 0.5 0.5 0 0.8-0.2 0.9-0.7 0.2-0.9-0.3-1.5-1.2-1.3-0.1 0-0.2 0.1-0.2 0.2 0.1 0.1 0.1 0.4 0.1 0.7z"/>
   <path id="XMLID_400_" class="st74" d="m72.4 259.8c-0.5 0.2-0.5 0.2-0.5 0.7v0.9c0 0.1-0.1 0.2-0.1 0.2-0.9 0.3-1.9 0.5-2.8 0.1-0.8-0.3-1.1-0.9-1.2-1.7-0.1-0.5 0-1 0.2-1.4 0.4-0.8 1.1-1.2 1.9-1.2 0.6 0 1.2 0.1 1.8 0.1 0.1 0 0.2 0.1 0.2 0.2 0 0.3 0 0.7-0.1 1l-0.1 0.1-0.1-0.1c-0.1-0.8-0.8-1.1-1.6-1.1-1 0.1-1.6 0.8-1.6 1.8 0 0.6 0 1.2 0.5 1.7 0.5 0.6 1.2 0.7 1.9 0.6 0.3-0.1 0.5-0.3 0.5-0.6v-0.7c0-0.3-0.1-0.4-0.4-0.4h-0.2v-0.1c0.5-0.1 1.1-0.1 1.7-0.1z"/>
   <path id="XMLID_399_" class="st74" d="m65.7 263.4h1.7c-0.1 0-0.1 0-0.2 0.1-0.2 0-0.3 0.1-0.4 0.4v1.2 1.4c-0.1 1-0.9 1.5-2 1.4-0.3 0-0.5-0.1-0.7-0.2-0.5-0.3-0.8-0.7-0.8-1.3v-2.1-0.5c-0.1-0.3-0.1-0.3-0.4-0.4-0.1 0-0.1 0-0.1-0.1h1.8c-0.1 0-0.2 0-0.3 0.1-0.2 0-0.3 0.1-0.4 0.3v0.8 1.9c0 0.6 0.4 1.1 0.9 1.2 0.8 0.1 1.4-0.1 1.5-1 0.1-0.3 0.1-0.7 0.1-1v-1.5c0-0.4 0-0.5-0.5-0.6 0 0-0.1 0-0.2-0.1 0.1 0.1 0.1 0.1 0 0v0z"/>
   <path id="XMLID_396_" class="st74" d="m55.7 261.8h-1.9v-0.1h0.3c0.2 0 0.3-0.1 0.3-0.3 0-0.3 0.1-0.7 0.1-1v-2.3c0-0.5 0-0.5-0.5-0.6 0 0-0.1 0-0.2-0.1 0.1 0 0.1-0.1 0.1-0.1h2c0.6 0 1.1 0.4 1.2 0.9s-0.1 1-0.6 1.3c-0.4 0.2-0.8 0.3-1.2 0.3-0.3 0-0.3 0-0.3 0.2v1.1c0 0.3 0.1 0.4 0.4 0.4 0.1 0.2 0.2 0.2 0.3 0.3zm-0.7-3.1v0.5c0 0.6 0.1 0.7 0.7 0.5 0.5-0.1 0.8-0.8 0.6-1.4s-0.7-0.8-1.2-0.6c-0.1 0-0.1 0.1-0.1 0.2v0.8z"/>
   <path id="XMLID_393_" class="st74" d="m90 261.8h-1.6v-0.1c0.4-0.1 0.6-0.4 0.7-0.7 0.5-1.2 1-2.4 1.5-3.5 0-0.1 0.1-0.2 0.2-0.3 0.1 0.2 0.2 0.4 0.2 0.6 0.4 1 0.8 2.1 1.3 3.1v0.1c0.1 0.3 0.3 0.6 0.7 0.7v0.1h-1.9c0.1 0 0.2 0 0.3-0.1 0.2 0 0.3-0.1 0.3-0.4-0.1-0.3-0.2-0.7-0.3-1 0 0-0.1-0.1-0.2-0.1h-1.2c-0.1 0-0.2 0.1-0.2 0.1-0.1 0.3-0.2 0.5-0.3 0.8s0 0.4 0.3 0.5c0 0.1 0.1 0.1 0.2 0.2zm1.3-1.8l-0.6-1.5h-0.1l-0.6 1.5h1.3z"/>
   <path id="XMLID_392_" class="st74" d="m99.9 266.7v0.4c-0.1 0.6-0.1 0.7-0.7 0.8-0.6 0.2-1.2 0.1-1.8-0.1-0.8-0.3-1.4-1-1.4-1.9 0-0.4 0-0.8 0.2-1.2 0.3-0.8 1-1.2 1.8-1.3 0.7-0.1 1.4 0 2 0.1l0.1 0.1v1.1s0 0.1-0.1 0.1l-0.1-0.1c0-0.1 0-0.3-0.1-0.4-0.1-0.4-0.3-0.6-0.7-0.7-0.8-0.3-1.9-0.1-2.3 1.1-0.2 0.5-0.2 1-0.1 1.5s0.4 0.9 0.8 1.1c0.5 0.3 1 0.3 1.5 0.1 0.4-0.1 0.6-0.4 0.7-0.7 0.1 0.1 0.1 0 0.2 0z"/>
   <path id="XMLID_389_" class="st74" d="m80.1 261.8c0.1 0 0.2 0 0.4-0.1 0.2 0 0.3-0.1 0.2-0.3-0.1-0.4-0.2-0.7-0.4-1.1 0 0-0.1-0.1-0.2-0.1h-1.2c-0.1 0-0.2 0.1-0.2 0.1l-0.3 0.9c-0.1 0.2 0 0.3 0.2 0.4 0.1 0 0.2 0 0.3 0.1v0.1h-1.6 0.1c0.4-0.1 0.5-0.4 0.7-0.7l1.5-3.6c0-0.1 0.1-0.1 0.2-0.3 0.1 0.3 0.2 0.5 0.3 0.7l1.2 3c0 0.1 0.1 0.1 0.1 0.2 0.1 0.3 0.3 0.5 0.6 0.5v0.1c-0.7 0.1-1.3 0.1-1.9 0.1zm-1.2-1.8h1.3c-0.2-0.5-0.4-1-0.6-1.6h-0.1c-0.2 0.6-0.4 1.1-0.6 1.6z"/>
   <path id="XMLID_388_" class="st74" d="m58.4 264c0 0.2 0 0.5-0.1 0.7l-0.1 0.1-0.1-0.1c0-1-0.8-1.2-1.6-1.1-0.9 0.1-1.4 0.8-1.5 1.6-0.1 0.4 0 0.8 0.1 1.2 0.3 0.9 1.2 1.5 2.2 1.2 0.4-0.1 0.7-0.4 0.8-0.8 0-0.1 0.1-0.1 0.1-0.1 0 0.1 0.1 0.1 0.1 0.2v0.3c0 0.4-0.2 0.6-0.6 0.7-0.7 0.2-1.5 0.2-2.2-0.2-0.7-0.3-1.1-0.9-1.1-1.7 0-0.3 0-0.7 0.1-1 0.2-0.9 1-1.5 1.9-1.6 0.7-0.1 1.3 0.1 1.9 0.1l0.1 0.1v0.4z"/>
   <path id="XMLID_385_" class="st74" d="m104.7 267.8h-1.6v-0.1c0.4-0.1 0.6-0.4 0.7-0.8 0.5-1.2 1-2.3 1.5-3.5 0-0.1 0.1-0.1 0.1-0.3 0.1 0.1 0.1 0.2 0.1 0.3 0.5 1.2 0.9 2.3 1.4 3.5 0.1 0.2 0.1 0.3 0.3 0.5 0.1 0.1 0.3 0.2 0.4 0.3h-1.8 0.3c0.2 0 0.3-0.1 0.3-0.4-0.1-0.3-0.2-0.7-0.3-1 0-0.1-0.1-0.1-0.2-0.1h-1.2c-0.1 0-0.2 0.1-0.2 0.2-0.1 0.3-0.2 0.5-0.3 0.8s0 0.4 0.3 0.5c0.1 0.1 0.1 0.1 0.2 0.1zm0.7-3.3c-0.1 0-0.1 0 0 0-0.3 0.5-0.5 1-0.7 1.5h1.3l-0.6-1.5z"/>
   <path id="XMLID_384_" class="st74" d="m43.6 266.9v0.5c-0.1 0.6 0 0.5-0.6 0.5h-2.2-0.2v-0.1h0.2c0.2 0 0.3-0.1 0.4-0.3v-0.2-3.3c0-0.2-0.1-0.3-0.4-0.3h-0.2v-0.1h0.1 2.6c0.1 0 0.2 0 0.2 0.2v0.7s0 0.1-0.1 0.1c0-0.1 0-0.2-0.1-0.3-0.1-0.4-0.3-0.5-0.6-0.5h-0.6c-0.1 0-0.2 0.1-0.2 0.2v1.5c0 0.1 0.1 0.1 0.1 0.1h0.7c0.2 0 0.3-0.1 0.4-0.3 0 0 0-0.1 0.1-0.1h0.1c0 0.4 0 0.8-0.1 1.2h-0.1c0-0.1 0-0.2-0.1-0.2 0-0.2-0.1-0.3-0.3-0.3h-0.7c-0.1 0-0.2 0-0.2 0.2v1.4c0 0.3 0.2 0.4 0.5 0.4h0.4c0.4 0 0.7-0.2 0.8-0.6 0-0.3 0-0.4 0.1-0.4z"/>
   <path id="XMLID_383_" class="st74" d="m70.5 263.9c0 0.1 0 0.3-0.1 0.5 0 0.1-0.1 0.1-0.1 0.2l-0.1-0.1c-0.1-0.2-0.1-0.4-0.2-0.5-0.2-0.3-0.5-0.4-0.9-0.3-0.3 0.1-0.5 0.2-0.5 0.5-0.1 0.3 0 0.5 0.2 0.7 0.3 0.2 0.5 0.4 0.8 0.6 0.2 0.2 0.5 0.3 0.7 0.5 0.6 0.6 0.4 1.6-0.4 1.9-0.5 0.2-0.9 0.2-1.4 0.1h-0.2c-0.2 0-0.3-0.1-0.3-0.3v-0.5c0-0.1 0-0.1 0.1-0.2l0.1 0.1c0.2 0.5 0.6 0.8 1.2 0.8 0.3 0 0.6-0.1 0.7-0.4s0.1-0.6-0.1-0.8-0.5-0.4-0.7-0.6c-0.3-0.2-0.6-0.4-0.8-0.7-0.6-0.6-0.3-1.6 0.5-1.8 0.4-0.1 0.8 0 1.3 0h0.1c0.2-0.1 0.1-0.2 0.1 0.3z"/>
   <path id="XMLID_382_" class="st74" d="m86.7 266.8c0 0.1 0.1 0.2 0.1 0.3 0.2 0.5 0.9 0.8 1.4 0.6s0.7-0.6 0.4-1c-0.1-0.2-0.3-0.4-0.5-0.5-0.3-0.3-0.7-0.5-1.1-0.8-0.3-0.3-0.4-0.7-0.3-1.1 0.1-0.5 0.5-0.8 1.1-0.8 0.4 0 0.8 0.1 1.2 0.1l0.1 0.1c0 0.3 0 0.6-0.1 0.8l-0.1 0.1-0.1-0.1c0-0.1-0.1-0.3-0.1-0.4-0.2-0.4-0.8-0.6-1.2-0.3-0.3 0.2-0.4 0.6-0.2 0.9 0.1 0.2 0.3 0.3 0.5 0.5 0.3 0.2 0.6 0.4 0.9 0.7 0.4 0.3 0.6 0.7 0.5 1.2-0.1 0.6-0.6 1-1.2 1-0.5 0.1-0.9-0.1-1.4-0.1l-0.1-0.1c0.2-0.5 0.2-0.8 0.2-1.1z"/>
   <path id="XMLID_381_" class="st74" d="m62.3 266.7c0 0.1 0.1 0.1 0.1 0.2 0 0.3-0.1 0.6-0.1 0.9 0 0.1-0.1 0.1-0.2 0.1h-2.8l-0.1-0.1h0.2c0.3 0 0.4-0.1 0.4-0.4v-0.5-2.5-0.5c0-0.3-0.1-0.3-0.4-0.4-0.1 0-0.1 0-0.2-0.1v-0.1h1.8v0.1h-0.3c-0.2 0-0.3 0.1-0.3 0.3 0 0.3-0.1 0.7-0.1 1v2.3c0 0.4 0.1 0.5 0.5 0.5h0.3c0.5 0 0.8-0.2 1-0.7 0.2 0.1 0.2 0 0.2-0.1z"/>
   <path id="XMLID_380_" class="st74" d="m111.4 266.7c0 0.2 0 0.4-0.1 0.6-0.1 0.6 0 0.5-0.6 0.5h-2.3-0.2v-0.1h0.2c0.2 0 0.3-0.1 0.4-0.3v-0.8-2.6-0.3c0-0.2-0.1-0.3-0.3-0.3h-0.3v-0.1h1.9c-0.1 0-0.1 0-0.2 0.1-0.3 0-0.3 0.1-0.4 0.3v0.4 2.7c0 0.6 0.1 0.7 0.7 0.7s0.8-0.1 1.1-0.8c0 0.1 0 0.1 0.1 0z"/>
   <path id="XMLID_379_" class="st74" d="m46.2 263.4h1.8c-0.1 0-0.1 0-0.2 0.1-0.2 0-0.3 0.1-0.4 0.3v0.4 2.7 0.2c0 0.4 0.1 0.5 0.5 0.6l0.1 0.1h-1.8 0.2c0.2 0 0.3-0.1 0.3-0.3v-0.3-3-0.3c0-0.2-0.1-0.3-0.4-0.3 0-0.1-0.1-0.1-0.1-0.2-0.1 0.1 0 0 0 0z"/>
   <path id="XMLID_378_" class="st74" d="m102.7 267.8h-1.8v-0.1h0.2c0.2 0 0.3-0.1 0.4-0.3v-0.4-2.7-0.3c0-0.4-0.1-0.4-0.4-0.4 0 0-0.1 0-0.1-0.1h1.8v0.1h-0.2c-0.2 0-0.3 0.1-0.3 0.3v0.3 3.1 0.3c0 0.2 0.2 0.3 0.3 0.3-0.1-0.1 0-0.1 0.1-0.1z"/>
   <path id="XMLID_377_" class="st74" d="m73.3 267.8h-1.8v-0.1h0.2c0.2 0 0.3-0.1 0.4-0.3v-0.2-3.4c0-0.3-0.1-0.3-0.4-0.4h-0.2v-0.1h1.8c-0.1 0-0.1 0-0.2 0.1-0.3 0-0.4 0.1-0.4 0.4v0.6 2.6 0.3c0 0.2 0.2 0.3 0.4 0.3 0 0.2 0.1 0.2 0.2 0.2z"/>
   <path id="XMLID_376_" class="st74" d="m75.8 262.8c0.1-0.1 0.3-0.1 0.4-0.2 0.2-0.1 0.5-0.3 0.7-0.4s0.2 0 0.3 0.1 0.1 0.2 0 0.3c-0.2 0.1-0.4 0.1-0.5 0.2h-0.9v0z"/>
  </g>
  <g stroke-width=".26458">
   <path id="XMLID_124_" class="st74" d="m-59.856 165.9-0.05292 0.47625-1.0583 0.0265v0.21166 0.10584 0.0529c0.34396 0.13229 1.0583 0.29104 1.7462-0.15875v-0.21167-0.0794l-0.39688 0.0529z" fill="#fff"/>
   <path id="XMLID_123_" class="st78" d="m-59.248 166.74v0-0.10584c-0.68792 0.44979-1.4023 0.29104-1.7462 0.15875v0.0529 0.0265c0.05292 0.0265 0.58208 0.55563 1.7462-0.13229z" fill="#949494"/>
   <path id="XMLID_122_" class="st79" d="m-56.761 168.38l0.52917-1.7727c-1.7462-0.635-3.0162 0.1323-3.0162 0.1323-1.1642 0.68791-1.6933 0.15875-1.7462 0.10583-2.0902 0.26458-2.5929-1.6669-2.5929-1.6669l-1.4817 1.0848s1.0319 1.8256 1.2435 2.3812c0.55562 1.4552 0.76729 2.6194 0.76729 2.6194h6.4294c-0.50271-1.4817-0.13229-2.884-0.13229-2.884z" fill="#e6e7e8"/>
   <path id="XMLID_121_" class="st74" d="m-50.543 165.68c0-0.10583 0-0.21166 0.02646-0.3175 0.02646-0.10583 0.05292-0.18521 0.10583-0.26458 0-0.0265 0.02646-0.0265 0.02646-0.0529 0.02646-0.0265 0.02646-0.0265 0.02646-0.0529 0.02646-0.0265 0.05292-0.0529 0.07938-0.0794 0.05292-0.0529 0.07937-0.0794 0.07937-0.0794l-2.6723 0.0529s0.02646 0.0265 0.07938 0.0794c0.02646 0.0265 0.05292 0.0529 0.07937 0.0794 0 0.0265 0.02646 0.0265 0.05292 0.0529 0 0.0265 0.02646 0.0265 0.02646 0.0529 0.05292 0.0794 0.10583 0.15875 0.13229 0.26458 0.02646 0.10584 0.02646 0.21167 0.02646 0.29104v0.0529h1.9314v-0.0794z" fill="#fff"/>
  </g>
  <polygon id="XMLID_120_" class="st80" transform="matrix(.26458 0 0 .26458 -75.149 109.04)" points="42.7 209.5 41.2 210.4 37.3 212.8 35.5 213.9 37.2 217.1 44.3 211.9" fill="#939598"/>
  <g id="XMLID_162_" transform="matrix(.26458 0 0 .26458 -75.149 109.04)">
   <path id="XMLID_119_" class="st74" d="m98.3 200.4s0.3 0.4 0.4 0.3c-1-7-8.1-8.1-8-8-2.6-0.6-2.7-3.7-2.7-3.9-2 1.3-1.7 3.9-1.5 4-1.3-0.4-2.5-2.5-2.6-2.7-0.9 1.7-0.5 3.9-0.5 3.9-5.9 4.1-4.2 9.9-4.1 10.1 0-0.5 0.3-1 0.4-1.1v0.7c0.1 2.8 1.5 5.3 3.5 7 0.6 0.5 1.2 0.9 1.9 1.2 1.1 0.7 3.4 1.8 4.4 2.6 0.7-0.4 1.6-1.4 3.6-2.5 3.4-1.6 5.7-5 5.6-9 0-0.9-0.2-1.7-0.4-2.6z" fill="#fff"/>
  </g>
  <path id="XMLID_118_" class="st79" d="m-47.368 167.24c0.15875-1.2171 1.3494-4.445 1.614-5.1594l-2.0902 0.13229v-0.0265c-0.10583 0.42334-0.52917 1.9315-0.44979 1.7462-0.42333 1.9579-1.8521 2.4077-1.8521 2.4077s-2.0373 0.0529-2.3283 0.10583c-1.4552 0.15875-2.4077 0.60855-2.4077 0.60855l-2.6458 1.614 1.561 1.5346 1.2965-0.52917 0.26458 1.5875h7.3025c-0.21167-2.884-0.39688-3.0427-0.26458-4.0217z" fill="#e6e7e8" stroke-width=".26458"/>
  <g fill="#bcbec0">
   <polygon id="XMLID_117_" class="st81" transform="matrix(.26458 0 0 .26458 -75.149 109.04)" points="64.5 227.3 67.8 231.4 69.3 233.3 73 231.5 72.6 231.2 66.7 225.4 66.2 224.9 63.5 226.1"/>
   <polygon id="XMLID_116_" class="st81" transform="matrix(.26458 0 0 .26458 -75.149 109.04)" points="103.2 200.9 103.3 200.9 111.1 200.4 112.8 200.3 111.1 196.5 110.1 196.7 104.1 197.9 102 198.3"/>
   <polygon id="XMLID_115_" class="st81" transform="matrix(.26458 0 0 .26458 -75.149 109.04)" points="84.6 215.3 94.1 214.8 95 217.3 84.1 217.8"/>
  </g>
  <path id="XMLID_114_" class="st74" d="m-47.103 158.12c0 0.0265 0.10583-2.3548-1.2171-2.1696-0.39688 0.0529-0.02646 0.58208 0.21167 1.2171 0 0 0.21167 0.68792-0.47625 0.0794-0.66146-0.60854-0.55562 0.18521-0.02646 0.58209 0.52917 0.39687 0.71438 0.50271 0.71438 0.50271l0.29104 2.8575 1.5081-0.34396z" fill="#fff" stroke-width=".26458"/>
  <g fill="#949494">
   <polygon id="XMLID_113_" class="st78" transform="matrix(.26458 0 0 .26458 -75.149 109.04)" points="104.1 197.1 104.1 197.9 110.1 196.7 109.7 195.8"/>
   <path id="XMLID_112_" class="st78" d="m-50.517 165.79h-1.9315c0 0.0794-0.02646 0.13229-0.05292 0.21166l1.9844-0.10583v-0.10583z" stroke-width=".26458"/>
   <path id="XMLID_111_" class="st78" d="m-65.333 165.23c0.02646 0.0265 0.02646 0.0794 0.05292 0.10583l1.0319-0.635c-0.02646-0.0265-0.05292-0.0794-0.07938-0.13229z" stroke-width=".26458"/>
  </g>
  <path id="XMLID_110_" class="st74" d="m-57.237 165.5 0.47625-0.0265s-0.89958-1.1112-0.58208-2.3019c0.02646-0.0265 0.10583 0.15875 0.10583 0.15875s0.07938-3.4131-2.8575-3.6512c-0.05292 0-2.6988-0.39688-2.9104 3.9158-0.02646 0.10584 0.34396-0.0529 0.34396-0.0529s-0.07937 1.27-0.44979 1.6933c0.02646-0.0265 0.26458-0.13229 0.26458-0.13229s-0.05292 0.74084-0.3175 0.92604c0.02646 0.0265 1.27 0.23813 1.561-0.1852-0.02646 0.0794-0.15875 0.52916-0.15875 0.52916l0.74083-0.0265 1.0583-0.0265 0.05292-0.47625 0.21167 0.47625 0.39688-0.0529 0.87312-0.15875-0.10583-0.47625 0.26458 0.44979s0.82021 0.0529 1.3758-0.23812c0 0.0794-0.34396-0.34396-0.34396-0.34396z" fill="#fff" stroke-width=".26458"/>
  <path id="XMLID_109_" class="st81" d="m-48.082 165.68c-0.02646-0.0265-0.02646-0.0529-0.05292-0.0794-0.15875-0.18521-0.37042 0.26459-0.71438 0.68792 0 0-0.37042 0.44979-0.21167-0.21167s-0.3175-0.21166-0.37042 0.26459c-0.05292 0.42333-0.07938 0.58208-0.07938 0.635-0.23812 0.10583-2.54 1.2171-3.5719 1.27-0.34396 0.0265-0.97896-0.21167-1.4288-0.39688-0.07937-0.0265-0.13229-0.0529-0.18521-0.0794l0.23813-0.52917-0.68792-0.34395-0.10583 0.21166-0.3175 0.60854-1.5081 0.68792 0.79375 0.39688-0.07938 0.15875 1.0583 0.66145 0.21167-0.5027s1.6933 1.1906 3.7042-0.0529c-0.02646 0.0529 2.3812-1.6404 2.3812-1.6404s1.5081-1.0054 0.92604-1.7462z" fill="#bcbec0" stroke-width=".26458"/>
  <g id="XMLID_132_" transform="matrix(.26458 0 0 .26458 -75.149 109.04)">
   <path id="XMLID_108_" class="st79" d="m65.9 218.1c-2.5 4.5 3.2 6.2 3.2 6.2l2.8 1.3 3.2-6.1c-7.6-5-9.2-1.5-9.2-1.4z" fill="#e6e7e8"/>
   <polygon id="XMLID_107_" class="st80" points="74.7 228.1 75.5 226.2 77.3 222 78.1 220 75.5 218.7 75.1 219.6 71.9 225.7 71.6 226.1" fill="#939598"/>
   <g id="XMLID_133_">
    <path id="XMLID_106_" class="st78" d="m77.3 222-1.8 4.2c0.2 0.1 0.4 0.2 0.7 0.3l1.8-4.2c-0.3-0.1-0.5-0.2-0.7-0.3z" fill="#949494"/>
    <path id="XMLID_105_" class="st74" d="m102.1 213.9c-0.6-0.7-1.4 1-2.7 2.6 0 0-1.4 1.7-0.8-0.8s-1.2-0.8-1.4 1c-0.2 1.6-0.3 2.2-0.3 2.4-0.9 0.4-9.6 4.6-13.5 4.8-1.3 0.1-3.7-0.8-5.4-1.5l-1.8 4.2c2.2 0.9 6.6 2.4 9.3 1.5 3.8-1.3 9.4-4.8 12.2-7 0.2-0.2 0.8-0.7 0.9-0.8 1-0.8 5.5-4.3 3.5-6.4z" fill="#fff"/>
   </g>
  </g>
  <path id="XMLID_104_" class="st79" d="m-58.11 169.18-0.29104 0.0794-1.614 0.42334s-0.18521-0.1323-0.74083-0.47625c-0.55562-0.34396-1.3229-0.1323-0.52917 0.23812 0.82021 0.39688 0.10583 0.44979 0.10583 0.44979-0.66146 0.0265-1.2435-0.13229-1.1906 0.26459 0.18521 1.614 2.6458 0.47625 2.6458 0.47625l-0.02646 0.0265 2.2754-0.21167 0.39688-0.0265z" fill="#e6e7e8" stroke-width=".26458"/>
  <g id="XMLID_128_" transform="matrix(.26458 0 0 .26458 -75.149 109.04)">
   <path id="XMLID_103_" class="st74" d="m57.3 229.3s-0.7-0.5-2.8-1.8-5-0.5-2 0.9c3.1 1.5 0.4 1.7 0.4 1.7-2.5 0.1-4.9-0.4-4.5 1 1.2 4.9 9.4 1.1 9.4 1.1l-0.1 0.1 8.6-0.8-2.9-4z" fill="#fff"/>
   <polygon id="XMLID_102_" class="st78" points="64.5 227.3 63.4 227.6 66.3 231.6 67.8 231.4" fill="#949494"/>
  </g>
  <path id="XMLID_98_" class="st74" d="m-64.328 164.57c-0.23812-0.42333-0.74083-1.3229-0.82021-1.7198-0.26458-1.0319-0.10583-4.2333-0.10583-4.3127 0.05292-0.0529 0.15875-0.21166 0.34396-0.47625 0.29104-0.39687 0.26458-1.0319-0.10583-0.44979-0.34396 0.58208-0.29104 0-0.29104 0 0.05292-0.52917 0.23812-1.0054-0.02646-1.0054-0.76729 0.0529-0.55562 1.5875-0.50271 1.8786-0.02646 0.10583-0.47625 3.0956-0.52917 4.1275-0.02646 0.44979 0.02646 0.68791 0.58208 1.7727 0-0.0265 0.29104 0.50271 0.44979 0.84667z" fill="#fff" stroke-width=".26458"/>
 </g>
</svg>
