<?xml version="1.0" encoding="UTF-8"?>
<svg width="32.385mm" height="32.385mm" version="1.1" viewBox="0 0 32.385006 32.384998" xmlns="http://www.w3.org/2000/svg">
 <defs>
  <linearGradient id="XMLID_365_" x1="457.05" x2="579.42" y1="88.987" y2="88.987" gradientTransform="matrix(.26458 0 0 .26458 -27.494 140.4)" gradientUnits="userSpaceOnUse">
   <stop stop-color="#010101" offset="0"/>
   <stop stop-color="#1A1B1A" offset=".2327"/>
   <stop stop-color="#2E2E2E" offset=".5654"/>
   <stop stop-color="#393938" offset=".833"/>
   <stop stop-color="#3D3D3C" offset="1"/>
  </linearGradient>
 </defs>
 <g transform="translate(-93.421 -147.76)">
  <path id="XMLID_224_" class="st91" d="m109.61 180.14c-8.9165 0-16.193-7.2496-16.193-16.192 0-8.9165 7.2496-16.192 16.193-16.192 8.9164 0 16.192 7.2496 16.192 16.192 0 8.9165-7.2496 16.192-16.192 16.192z" fill="url(#XMLID_365_)" stroke-width=".26458"/>
  <g id="XMLID_302_" transform="matrix(.26458 0 0 .26458 -27.494 140.4)">
   <g fill="#010101">
    <path id="XMLID_533_" class="st92" d="m569.5 111.1c-1.9 1.5-3.8 3.1-5.6 4.9-4.3 4.3-7.7 9.1-10.3 14.3 1.9-1.5 3.8-3.1 5.6-4.9 4.3-4.3 7.7-9.1 10.3-14.3z" opacity=".15"/>
    <path id="XMLID_532_" class="st92" d="m486.5 129.4c3.1-7.6 7.7-14.7 13.9-20.8 4.8-4.8 10.2-8.6 15.9-11.6-7-3.2-14.7-5.1-22.9-5.1-9.4 0-18.2 2.4-25.9 6.5 2.5 12.4 9.4 23.3 19 31z" opacity=".15"/>
    <path id="XMLID_531_" class="st92" d="m520.5 94.2c3.9-1.6 7.9-2.9 11.9-3.7 2-3.9 3.1-8.3 3.1-12.9 0-15.8-12.8-28.5-28.5-28.5-15.8 0-28.5 12.8-28.5 28.5 0 4.5 1 8.7 2.9 12.5 4.3-1 8.8-1.5 13.4-1.5 9.1 0 17.9 2.1 25.7 5.6z" opacity=".15"/>
    <path id="XMLID_530_" class="st92" d="m550.4 74.6c0-4.7-2.4-23.4-5.4-23.4s-5.4 18.6-5.4 23.4c0 4.7 2.4 6.6 5.4 6.6s5.4-1.8 5.4-6.6z" opacity=".15"/>
    <path id="XMLID_529_" class="st92" d="m543.3 83.1v6.3c0 0.9 0.8 1.7 1.7 1.7s1.7-0.8 1.7-1.7v-6.3c-0.5 0.2-1.1 0.2-1.7 0.2s-1.2-0.1-1.7-0.2z" opacity=".15"/>
    <path id="XMLID_515_" class="st92" d="m506.8 139.6c0.6 0.2 1.2 0.3 1.8 0.4 0.2 0 0.4 0.1 0.7 0.1 0.3 0.1 0.6 0.1 0.8 0.2 2.5-8 6.7-15.7 12.6-22.3 11.2-12.5 26.5-19.2 42.1-19.8-0.9-0.4-1.8-0.7-2.7-1.1-16.2-0.7-32.6 5.1-44.9 17.5-6.9 6.9-11.7 15.1-14.6 23.7 0.5 0.2 1.1 0.4 1.7 0.6h0.1l2.1 0.6c0 0.1 0.2 0.1 0.3 0.1z" opacity=".15"/>
    <path id="XMLID_514_" class="st92" d="m534.8 121.3c9.5-11.2 22.3-18 35.7-20.2-1-0.6-2-1.1-3.1-1.6-14.6 1.3-28.7 8-38.9 20.1-5.6 6.6-9.5 14-11.6 21.8 0.3 0 0.6 0 0.9 0.1h1 1.4 1.2 0.6c0.5 0 1.1 0 1.6-0.1 2.2-7.2 6-14.1 11.2-20.1z" opacity=".15"/>
    <path id="XMLID_513_" class="st92" d="m540.6 124.3c-3.8 5-6.7 10.4-8.7 16 3.5-0.7 6.9-1.8 10.2-3.2 2-4.8 4.6-9.5 7.9-13.8 6-7.9 14-15.2 22.3-19.2l0.5-1.3c-12.4 3.2-23.8 10.5-32.2 21.5z" opacity=".15"/>
    <path id="XMLID_511_" class="st92" d="m493.5 134.2c0.1 0.1 0.3 0.1 0.4 0.2 0.4 0.2 0.9 0.5 1.3 0.7 0.5 0.2 0.9 0.5 1.4 0.7 2.7-8.6 7.4-16.7 14.3-23.5 12.7-12.7 29.9-18.3 46.5-16.6-1.7-0.4-3.3-0.8-5-1.1h-0.2c-0.5-0.1-1.1-0.2-1.6-0.2h-0.2c-1.6-0.2-3.3-0.4-4.9-0.4h-0.2-1.5-0.5-1.5-0.2c-1 0-2 0.1-3.1 0.2h-0.3c-0.4 0-0.9 0.1-1.3 0.1-0.2 0-0.5 0.1-0.7 0.1-0.4 0.1-0.8 0.1-1.2 0.2-0.2 0-0.5 0.1-0.7 0.1-0.8 0.1-1.5 0.3-2.3 0.4-0.2 0-0.4 0.1-0.7 0.1-0.4 0.1-0.7 0.2-1.1 0.3-0.3 0.1-0.6 0.2-0.9 0.2-0.3 0.1-0.7 0.2-1 0.3s-0.7 0.2-1 0.3-0.6 0.2-0.9 0.3c-0.5 0.2-1 0.3-1.5 0.5-0.3 0.1-0.7 0.2-1 0.4-0.4 0.2-0.8 0.3-1.2 0.5-0.3 0.1-0.5 0.2-0.8 0.3-0.4 0.2-0.8 0.3-1.1 0.5-0.3 0.1-0.5 0.2-0.8 0.4-0.5 0.2-0.9 0.4-1.4 0.7-0.2 0.1-0.3 0.2-0.5 0.2-0.6 0.3-1.2 0.6-1.8 1-0.2 0.1-0.4 0.2-0.6 0.4-0.4 0.2-0.8 0.5-1.2 0.8-0.2 0.1-0.4 0.3-0.6 0.4-0.4 0.3-0.9 0.6-1.3 0.9-0.2 0.1-0.3 0.2-0.5 0.3-0.6 0.4-1.2 0.8-1.7 1.3-0.1 0.1-0.2 0.2-0.4 0.3-0.4 0.3-0.9 0.7-1.3 1.1-0.2 0.2-0.4 0.3-0.5 0.5-0.4 0.3-0.8 0.7-1.2 1l-0.5 0.5c-0.5 0.5-1.1 1-1.6 1.5-6.6 6.6-11.2 14.5-13.7 22.9 0.5 0.3 0.9 0.6 1.4 0.9 0.3-0.1 0.6 0.1 0.9 0.3z" opacity=".15"/>
   </g>
   <g id="XMLID_349_" fill="#fdfdfe">
    <path id="XMLID_361_" class="st93" d="m549.9 126.1c1.9-1.5 3.8-3.1 5.6-4.9 4.3-4.3 7.7-9.1 10.3-14.3-1.9 1.5-3.8 3.1-5.6 4.9-4.3 4.3-7.7 9.1-10.3 14.3z"/>
    <path id="XMLID_360_" class="st93" d="m512.5 92.7c-7-3.2-14.7-5.1-22.9-5.1-9.4 0-18.2 2.4-25.9 6.5 2.7 12.4 9.6 23.2 19.1 30.9 3.1-7.6 7.7-14.7 13.9-20.8 4.7-4.7 10.1-8.5 15.8-11.5z"/>
    <path id="XMLID_359_" class="st93" d="m491 84.4c9.2 0 17.9 2 25.7 5.6 3.9-1.6 7.9-2.9 11.9-3.7 2-3.9 3.1-8.3 3.1-12.9 0-15.8-12.8-28.5-28.5-28.5-15.8 0-28.5 12.8-28.5 28.5 0 4.5 1 8.7 2.9 12.5 4.3-0.9 8.8-1.5 13.4-1.5z"/>
    <path id="XMLID_358_" class="st93" d="m541.3 77c3 0 5.4-1.8 5.4-6.6 0-4.7-2.4-23.4-5.4-23.4s-5.4 18.6-5.4 23.4c-0.1 4.8 2.4 6.6 5.4 6.6z"/>
    <path id="XMLID_356_" class="st93" d="m539.6 78.9v6.3c0 0.9 0.8 1.7 1.7 1.7s1.7-0.8 1.7-1.7v-6.3c-0.5 0.2-1.1 0.2-1.7 0.2s-1.2-0.1-1.7-0.2z"/>
    <path id="XMLID_355_" class="st93" d="m561.1 94c-0.9-0.4-1.8-0.7-2.7-1.1-16.2-0.7-32.6 5.1-44.9 17.5-6.9 6.9-11.7 15.1-14.6 23.7 0.5 0.2 1.1 0.4 1.7 0.6h0.1l2.1 0.6c0.1 0 0.3 0.1 0.4 0.1 0.6 0.2 1.2 0.3 1.8 0.4 0.2 0 0.4 0.1 0.7 0.1 0.3 0.1 0.6 0.1 0.8 0.2 2.5-8 6.7-15.7 12.6-22.3 11.1-12.5 26.4-19.1 42-19.8z"/>
    <path id="XMLID_354_" class="st93" d="m566.8 96.9c-1-0.6-2-1.1-3.1-1.6-14.6 1.3-28.7 8-38.9 20.1-5.6 6.6-9.5 14-11.6 21.8 0.3 0 0.6 0 0.9 0.1h1 1.4 1.2 0.6c0.5 0 1.1 0 1.6-0.1 2.4-7.2 6.1-14 11.3-20.1 9.4-11.2 22.1-18 35.6-20.2z"/>
    <path id="XMLID_353_" class="st93" d="m536.9 120.1c-3.8 5-6.7 10.4-8.7 16 3.5-0.7 6.9-1.8 10.2-3.2 2-4.8 4.6-9.5 7.9-13.8 6-7.9 14-15.2 22.3-19.2l0.5-1.3c-12.4 3.2-23.8 10.5-32.2 21.5z"/>
    <path id="XMLID_350_" class="st93" d="m553.8 91.5c-1.7-0.4-3.3-0.8-5-1.1h-0.2c-0.5-0.1-1.1-0.2-1.6-0.2h-0.2c-1.6-0.2-3.3-0.4-4.9-0.4h-0.2-1.5-0.5-1.5-0.2c-1 0-2 0.1-3.1 0.2h-0.3c-0.4 0-0.9 0.1-1.3 0.1-0.2 0-0.5 0.1-0.7 0.1-0.4 0.1-0.8 0.1-1.2 0.2-0.2 0-0.5 0.1-0.7 0.1-0.8 0.1-1.5 0.3-2.3 0.4-0.2 0-0.4 0.1-0.7 0.1-0.4 0.1-0.7 0.2-1.1 0.3-0.3 0.1-0.6 0.2-0.9 0.2-0.3 0.1-0.7 0.2-1 0.3s-0.7 0.2-1 0.3-0.6 0.2-0.9 0.3c-0.5 0.2-1 0.3-1.5 0.5-0.3 0.1-0.7 0.2-1 0.4-0.4 0.2-0.8 0.3-1.2 0.5-0.3 0.1-0.5 0.2-0.8 0.3-0.4 0.2-0.8 0.3-1.1 0.5-0.3 0.1-0.5 0.2-0.8 0.4-0.5 0.2-0.9 0.4-1.4 0.7-0.2 0.1-0.3 0.2-0.5 0.2-0.6 0.3-1.2 0.6-1.8 1-0.2 0.1-0.4 0.2-0.6 0.4-0.4 0.2-0.8 0.5-1.2 0.8-0.2 0.1-0.4 0.3-0.6 0.4-0.4 0.3-0.9 0.6-1.3 0.9-0.2 0.1-0.3 0.2-0.5 0.3-0.6 0.4-1.2 0.8-1.7 1.3-0.1 0.1-0.2 0.2-0.4 0.3-0.4 0.3-0.9 0.7-1.3 1.1-0.2 0.2-0.4 0.3-0.5 0.5-0.4 0.3-0.8 0.7-1.2 1l-0.5 0.5c-0.5 0.5-1.1 1-1.6 1.5-6.6 6.6-11.2 14.5-13.7 22.9 0.5 0.3 0.9 0.6 1.4 0.9 0.3 0.2 0.7 0.4 1 0.6 0.1 0.1 0.3 0.1 0.4 0.2 0.4 0.2 0.9 0.5 1.3 0.7 0.5 0.2 0.9 0.5 1.4 0.7 2.7-8.6 7.4-16.7 14.3-23.5 12.6-13 29.8-18.5 46.4-16.9z"/>
   </g>
  </g>
 </g>
</svg>
