<?xml version="1.0" encoding="UTF-8"?>
<svg width="32.385mm" height="32.385mm" version="1.1" viewBox="0 0 32.384998 32.384998" xmlns="http://www.w3.org/2000/svg">
 <g transform="translate(-32.944 -164.39)">
  <path id="XMLID_230_" class="st72" d="m49.137 196.78c-8.9165 0-16.192-7.2496-16.192-16.192 0-8.9164 7.2496-16.192 16.192-16.192 8.9165 0 16.192 7.2496 16.192 16.192-0.02646 8.9429-7.276 16.192-16.192 16.192z" fill="#010101" stroke-width=".26458"/>
  <g id="XMLID_125_" transform="matrix(.26458 0 0 .26458 -10.924 120.44)" fill="#fff">
   <path id="XMLID_526_" class="st74" d="m225.5 250.7c-1.6 0-3.1-0.5-4.3-1.6-1.1-1-1.6-2.3-1.8-3.8-0.2-1.4 0.1-2.8 0.8-4 0.9-1.6 2.3-2.4 4-2.8 1.3-0.2 2.6-0.2 3.9 0.2 1.9 0.6 3.2 2 3.6 4s0.1 3.9-1.2 5.6c-0.9 1.2-2.1 1.9-3.6 2.2-0.5 0.1-1 0.2-1.4 0.2zm4.3-5.8c-0.1-0.6-0.1-1.1-0.2-1.7l-0.3-1.2c-0.7-1.7-1.8-2.8-3.7-3-1.8-0.2-3.3 0.8-3.8 2.5-0.5 1.6-0.5 3.2 0 4.7 0.6 1.8 1.7 3.2 3.7 3.5 1.6 0.3 3-0.4 3.7-1.9 0.4-0.7 0.5-1.8 0.6-2.9z"/>
   <path id="XMLID_525_" class="st74" d="m243.9 247.5v-0.3c0-2.1-0.1-4.2-0.1-6.3 0-0.4 0-0.8-0.1-1.2-0.1-0.6-0.4-0.8-1-0.8h-0.5v-0.1c0.1 0 0.1-0.1 0.2-0.1h1.7 1.8 0.3v0.1c-0.1 0-0.2 0.1-0.3 0.1-0.6 0-0.9 0.2-0.9 0.8-0.1 1.2-0.1 2.4-0.1 3.7 0 2.3-0.1 4.6-0.1 6.9 0 0.1-0.1 0.2-0.1 0.4-0.1-0.1-0.3-0.1-0.3-0.2-1-1-2-1.9-2.9-2.9-1.5-1.5-3-3.1-4.4-4.6-0.3-0.3-0.6-0.6-0.8-0.9l-0.3-0.3v0.3c0 2 0.1 3.9 0.1 5.9 0 0.5 0 0.9 0.1 1.4 0.1 0.7 0.4 1 1.1 1h0.4v0.1h-4.1v-0.1c0.1 0 0.1-0.1 0.2-0.1h0.2c0.7 0 0.9-0.2 1-0.9 0-0.6 0-1.2 0.1-1.8 0-1.7 0-3.5 0.1-5.2 0-1.1 0-2.2 0.1-3.3 0-0.2 0.1-0.3 0.1-0.6 0.2 0.1 0.3 0.2 0.4 0.3 2.7 2.9 5.5 5.8 8.2 8.7-0.4-0.1-0.3 0-0.1 0-0.1 0-0.1 0 0 0z"/>
   <path id="XMLID_524_" class="st74" d="m267.9 254.4c-0.1 0-0.2 0-0.3 0.1-1.7 0.1-3.5 0.2-5.2 0.3-3.6 0.1-7.2 0.2-10.8 0.2h-10.1-9.8c-0.4 0-0.4 0-0.4-0.4 0-0.8 0-0.6 0.6-0.6h15.6c4.1 0 8.2 0 12.2 0.1 2.2 0 4.3 0.1 6.5 0.2 0.4 0 0.9 0.1 1.3 0.1 0.2-0.1 0.3-0.1 0.4 0z"/>
   <path id="XMLID_523_" class="st74" d="m217.6 247.7c0 0.3 0 0.6-0.1 0.9-0.1 0.4-0.2 0.9-0.2 1.3 0 0.2-0.2 0.4-0.4 0.5-0.6 0.1-1.2 0.3-1.8 0.3-1.3 0.1-2.7 0-4-0.4-2.2-0.8-3.6-2.4-4-4.7-0.3-1.9 0.1-3.6 1.4-5.1 0.9-1 2.2-1.6 3.5-1.8 1.7-0.3 3.4-0.1 5 0.3h0.3c0.1 0.1 0.2 0.2 0.2 0.3 0 0.8-0.1 1.5-0.1 2.3 0 0.1 0 0.3-0.1 0.4h-0.1c0-0.1-0.1-0.2-0.1-0.2-0.1-0.3-0.1-0.7-0.3-1-0.3-0.7-0.9-1-1.5-1.2-1.1-0.4-2.3-0.4-3.4-0.1-1.4 0.4-2.2 1.3-2.6 2.6-0.4 1.4-0.5 2.9 0 4.3 0.7 2 2 3.2 4.1 3.6 0.7 0.1 1.5 0.1 2.2-0.2 0.8-0.3 1.3-0.9 1.6-1.7 0-0.1 0.1-0.2 0.1-0.3 0.2-0.1 0.3-0.1 0.3-0.1z"/>
   <path id="XMLID_520_" class="st74" d="m267.7 250.4h-3.9c0.2-0.2 0.3-0.3 0.3-0.4s-0.1-0.3-0.1-0.5c-0.3-0.9-0.7-1.9-1-2.8-0.1-0.2-0.2-0.3-0.5-0.3h-3c-0.2 0-0.4 0.1-0.5 0.3-0.3 0.9-0.7 1.9-1 2.8-0.2 0.5 0.1 0.8 0.6 0.8h0.4v0.1h-3.8v-0.1c0.1 0 0.2-0.1 0.3-0.1 0.6 0 1.1-0.2 1.4-0.8 0.3-0.8 0.7-1.6 1-2.4 1.1-2.7 2.1-5.3 3.1-8 0-0.1 0.1-0.2 0.2-0.3l0.3-0.3 0.3 0.3c0.2 0.4 0.3 0.8 0.5 1.1 1.1 2.8 2.2 5.7 3.4 8.5l0.6 1.2c0.3 0.5 0.7 0.8 1.3 0.7h0.3c-0.2 0.1-0.2 0.2-0.2 0.2zm-6.8-9c-0.1 0.2-0.1 0.3-0.2 0.4-0.4 1.2-0.9 2.4-1.3 3.5-0.1 0.3-0.1 0.4 0.3 0.4h2.4c0.4 0 0.4 0 0.3-0.4-0.4-1.2-0.9-2.4-1.3-3.7l-0.2-0.2z"/>
   <path id="XMLID_519_" class="st74" d="m190.9 254.3c0.1 0 0.2-0.1 0.2-0.1 0.9-0.1 1.9-0.1 2.8-0.2 1.6-0.1 3.2-0.1 4.8-0.1 9.5-0.3 19 0 28.5-0.1 0.3 0 0.3 0.1 0.3 0.3 0 0.6 0 0.6-0.6 0.6h-25.7c-2 0-3.9-0.1-5.9-0.1-1 0-1.9-0.1-2.9-0.1-0.5 0-1-0.1-1.4-0.1l-0.1-0.1z"/>
   <path id="XMLID_518_" class="st74" d="m254.4 241.2c0-0.1-0.1-0.3-0.1-0.4-0.3-1.8-2.3-2-3.3-1.4-0.7 0.5-1 1.5-0.4 2.2 0.4 0.5 0.9 1 1.4 1.4 0.8 0.7 1.7 1.3 2.3 2.2 1 1.4 0.8 3.5-0.5 4.5-0.6 0.5-1.3 0.8-2.1 0.8-0.9 0.1-1.8 0-2.7-0.3-0.3-0.1-0.4-0.3-0.4-0.6 0-0.6 0-1.3 0.1-1.9 0-0.2 0.1-0.3 0.1-0.4h0.1c0 0.2 0.1 0.3 0.1 0.5 0.2 1.8 2.1 2.8 3.6 1.8 0.8-0.5 1.1-1.5 0.6-2.5-0.3-0.7-0.9-1.2-1.4-1.7-0.6-0.5-1.2-1-1.7-1.5-0.7-0.7-1.1-1.5-1.1-2.6 0-1.2 0.6-2.2 1.8-2.7 0.8-0.3 1.7-0.4 2.5-0.3 0.4 0 0.8 0.1 1.1 0.2 0.2 0 0.3 0.1 0.3 0.4 0 0.6 0 1.2-0.1 1.8-0.1 0.3-0.1 0.4-0.2 0.5z"/>
   <path id="XMLID_517_" class="st74" d="m191.2 238.7h4.7v0.1c-0.1 0-0.2 0.1-0.3 0.1-1 0-1.2 0.2-1.2 1.2v7.9c0 0.3 0 0.5 0.1 0.8 0.1 0.6 0.4 0.9 1.1 0.9h2c0.7 0 1.1-0.5 1.3-1.3 0-0.1 0.1-0.2 0.1-0.3h0.1c0 0.1 0.1 0.1 0.1 0.2-0.1 0.5-0.1 1.1-0.2 1.6-0.1 0.6-0.2 0.6-0.7 0.6-1.9 0-3.7 0-5.6-0.1h-1-0.3v-0.1c0.1 0 0.2-0.1 0.3-0.1 0.6 0 0.8-0.2 0.9-0.8 0.1-0.5 0.1-1.1 0.1-1.6v-7.3-0.8c0-0.7-0.4-0.9-1-0.9h-0.3c-0.2 0-0.2 0-0.2-0.1z"/>
   <path id="XMLID_516_" class="st74" d="m200.6 250.3c0.1 0 0.2-0.1 0.3-0.1 0.7 0 0.9-0.2 0.9-0.9 0-0.4 0.1-0.9 0.1-1.3v-7.9-0.5c-0.1-0.6-0.3-0.8-0.9-0.8-0.1 0-0.2 0-0.4-0.1 0.2-0.2 4.2-0.2 4.5 0-0.1 0-0.2 0.1-0.3 0.1-0.8 0.1-1 0.3-1 1.1v8.1c0 0.5 0 0.9 0.1 1.4 0 0.5 0.2 0.6 0.7 0.7 0.2 0 0.4 0 0.7 0.1 0.1 0 0.2 0 0.3 0.1-0.4 0.2-4.7 0.2-5 0z"/>
   <path id="XMLID_502_" class="st74" d="m233.5 262h-0.6c-0.1-0.3-0.2-0.7-0.4-1v-0.1c-0.1-0.2-1.1-0.2-1.2 0s-0.2 0.5-0.3 0.8c0 0.1 0 0.2 0.1 0.3h-2c0-0.1 0.1-0.2 0.1-0.3v-2.5c0-0.1-0.1-0.2-0.1-0.3h0.6v2.7c0 0.2 0 0.4 0.2 0.5 0.4 0.1 0.7 0 0.8-0.3 0.2-0.5 0.5-1.1 0.7-1.6 0.2-0.4 0.3-0.8 0.5-1.3 0.1 0.1 0.1 0.1 0.1 0.2 0.3 0.8 0.6 1.5 1 2.3 0.2 0.1 0.4 0.4 0.5 0.6zm-1.5-2.4s-0.1 0 0 0c-0.2 0.4-0.4 0.7-0.5 1.1h1c-0.2-0.4-0.4-0.7-0.5-1.1z"/>
   <path id="XMLID_501_" class="st74" d="m255.8 258.9h0.6v1.2c0 0.1 0.1 0.2 0.2 0.2h1.4c0.1 0 0.2-0.1 0.2-0.2v-0.9c0-0.1-0.1-0.2-0.2-0.3h0.8c0 0.1-0.1 0.2-0.1 0.4v2.3c0 0.2 0.1 0.3 0.1 0.5h-0.7c0-0.1 0.1-0.2 0.1-0.4v-1.1c0-0.2-0.1-0.2-0.2-0.2h-1.4c-0.1 0-0.2 0.1-0.2 0.2v1.1c0 0.1 0.1 0.2 0.1 0.3h-0.8c0-0.1 0.1-0.3 0.1-0.4v-2.4-0.3z"/>
   <path id="XMLID_498_" class="st74" d="m238.4 262.1v-1.3-1.5c0-0.1-0.1-0.3-0.2-0.4 0.7 0 1.4 0 2.1 0.1s1.1 0.6 1.2 1.2-0.2 1.3-0.7 1.6c-0.3 0.1-0.6 0.2-0.9 0.3h-1.5zm0.5-1.8v0.8c0 0.7 0.2 0.9 0.9 0.8 0.1 0 0.3 0 0.4-0.1 0.7-0.3 0.9-0.9 0.7-1.7-0.1-0.8-1.1-1.3-1.9-1.2-0.1 0-0.2 0.2-0.2 0.3 0.1 0.4 0.1 0.8 0.1 1.1z"/>
   <path id="XMLID_495_" class="st74" d="m216.6 260.4c0 1-0.8 1.7-1.8 1.7s-1.7-0.7-1.7-1.7 0.8-1.6 1.9-1.6c0.9 0 1.6 0.7 1.6 1.6zm-0.6 0.2c0.1 0 0.1 0 0 0 0-0.3-0.1-0.7-0.2-1-0.2-0.5-0.8-0.7-1.3-0.7-0.5 0.1-0.8 0.4-0.9 0.9-0.1 0.4-0.1 0.9 0.1 1.3 0.3 0.5 0.8 0.8 1.3 0.8 0.5-0.1 0.8-0.4 1-1v-0.3z"/>
   <path id="XMLID_492_" class="st74" d="m221.1 260.5c0-1 0.7-1.6 1.8-1.7 1 0 1.8 0.6 1.8 1.6s-0.8 1.7-1.8 1.7c-1.1 0-1.8-0.6-1.8-1.6zm3-0.1c-0.1-0.2-0.2-0.6-0.3-0.9-0.2-0.4-0.7-0.6-1.1-0.6s-0.8 0.2-0.9 0.7c-0.2 0.6-0.2 1.2 0.2 1.8 0.3 0.5 1.1 0.7 1.6 0.5 0.4-0.3 0.5-0.8 0.5-1.5z"/>
   <path id="XMLID_486_" class="st74" d="m201.4 262c0-0.1 0.1-0.3 0.1-0.4v-2.4c0-0.1-0.1-0.3-0.2-0.3h1.2c0.3 0 0.5 0.1 0.6 0.4s0 0.5-0.2 0.8c0 0-0.1 0.1-0.1 0.2 0.1 0.1 0.3 0.2 0.4 0.3 0.3 0.2 0.4 0.4 0.4 0.8-0.1 0.4-0.3 0.7-0.7 0.7-0.4 0.1-0.9 0.1-1.3 0.1l-0.2-0.2zm0.6-1.6v1.3c0 0.1 0.1 0.1 0.1 0.2 0.3 0.2 0.8 0 0.9-0.3 0.3-0.7-0.3-1.3-1-1.2zm0.8-0.7c0-0.4-0.3-0.7-0.6-0.7-0.2 0-0.2 0-0.2 0.2v0.7c0 0.1 0.1 0.4 0.1 0.3 0.2 0 0.4 0 0.5-0.1 0.2-0.1 0.2-0.3 0.2-0.4z"/>
   <path id="XMLID_483_" class="st74" d="m199.2 258.8c0.1 0.2 0.1 0.2 0.2 0.3 0.3 0.8 0.7 1.6 1 2.4 0.1 0.2 0.2 0.4 0.4 0.6h-0.7c-0.1-0.3-0.2-0.6-0.4-0.9-0.2-0.4-0.6-0.1-0.9-0.2-0.2 0-0.3 0-0.4 0.2s-0.2 0.4-0.2 0.6v0.3h-0.6c0.1-0.1 0.2-0.3 0.3-0.4 0.3-0.8 0.7-1.6 1-2.4 0.1-0.2 0.2-0.3 0.3-0.5zm-0.6 2h1c-0.2-0.4-0.3-0.8-0.4-1.1h-0.1c-0.2 0.3-0.4 0.7-0.5 1.1z"/>
   <path id="XMLID_482_" class="st74" d="m254.7 261.5c0 0.4 0 0.5-0.4 0.5-0.6 0.1-1.2 0.1-1.8-0.3-0.6-0.3-0.8-1-0.7-1.6 0.1-0.7 0.6-1.2 1.3-1.3 0.6-0.1 1.1 0 1.6 0.1v0.6c-0.2-0.6-0.8-0.7-1.3-0.6-0.5 0-0.9 0.3-1.1 0.8-0.3 1 0.1 1.9 1 2.2 0.7 0.1 1.1 0 1.4-0.4z"/>
   <path id="XMLID_481_" class="st74" d="m228.2 261.4c0 0.1 0 0.2-0.1 0.3l-0.3 0.3c-0.5 0.1-1.1 0.1-1.6-0.1-0.7-0.3-1.1-0.9-1.1-1.7 0.1-0.7 0.6-1.3 1.4-1.4h1.4c0.2 0 0.3 0.1 0.2 0.3v0.3c-0.2-0.5-0.7-0.7-1.3-0.6-0.9 0.1-1.2 0.9-1.1 1.6 0.1 1 0.8 1.5 1.8 1.4 0.3 0.1 0.6-0.1 0.7-0.4z"/>
   <path id="XMLID_478_" class="st74" d="m205.5 258.8c0.5 1.1 0.9 2.2 1.4 3.3h-0.5c-0.1-0.3-0.2-0.6-0.4-1 0 0 0-0.1-0.1-0.1h-1.1c-0.2 0-0.3 0.8-0.3 1h-0.5c0.1-0.1 0.2-0.3 0.3-0.4 0.4-0.8 0.7-1.7 1-2.5 0-0.1 0.1-0.2 0.2-0.3zm0.3 2c-0.2-0.4-0.3-0.8-0.4-1.2h-0.1c-0.1 0.4-0.3 0.7-0.4 1.1 0.3 0.1 0.6 0.1 0.9 0.1z"/>
   <path id="XMLID_477_" class="st74" d="m243.1 259v1.1c0 0.2 0.1 0.2 0.2 0.2h0.8c0 0.1 0 0.2-0.1 0.4-0.1-0.2-0.7-0.3-0.9-0.2 0 0-0.1 0.1-0.1 0.2v1c0 0.2 0.1 0.3 0.3 0.3 0.3 0.1 0.7 0.1 0.9-0.2 0 0.4 0 0.4-0.4 0.4h-1.5c0-0.1 0.1-0.2 0.1-0.3v-2-0.5c0-0.1-0.1-0.3-0.2-0.4h1.7v0.3c-0.1-0.2-0.4-0.3-0.8-0.3z"/>
   <path id="XMLID_476_" class="st74" d="m259.9 258.9h1.8v0.3c-0.1 0-0.3-0.1-0.5-0.1-0.6 0-0.6 0-0.6 0.6 0 0.7-0.2 0.7 0.7 0.6h0.3v0.4c-0.3-0.3-0.6-0.1-0.9-0.2 0 0-0.1 0.1-0.1 0.2v0.9c0 0.2 0.1 0.4 0.4 0.4s0.6 0.1 0.8-0.2c0 0.2 0 0.3-0.3 0.3h-1.4v-2.8c0-0.2-0.1-0.3-0.2-0.4z"/>
   <path id="XMLID_475_" class="st74" d="m251 258.9c0 0.1 0 0.2-0.1 0.4-0.2-0.1-0.8-0.3-1-0.2 0 0-0.1 0.1-0.1 0.2v0.4c0 0.7-0.2 0.7 0.7 0.6h0.3v0.4c-0.3-0.3-0.6-0.1-1-0.2v1.3c0 0.1 0.1 0.1 0.1 0.2 0.3 0.2 0.9 0.1 1.1-0.2 0 0.4 0 0.4-0.5 0.4h-0.7-0.7c0-0.1 0.1-0.2 0.1-0.3v-2.5c0-0.1 0-0.2-0.1-0.3 0.8-0.2 1.3-0.2 1.9-0.2z"/>
   <path id="XMLID_474_" class="st74" d="m218.7 261.4c0.2 0.4 0.4 0.6 0.8 0.5 0.5 0 0.7-0.5 0.4-0.9-0.1-0.2-0.3-0.3-0.5-0.5-0.1-0.1-0.2-0.2-0.4-0.3-0.3-0.3-0.4-0.7-0.3-1s0.6-0.5 1-0.5h0.1c0.4 0.1 0.4 0.1 0.3 0.5-0.2-0.3-0.4-0.4-0.7-0.4-0.2 0-0.4 0.1-0.5 0.3s-0.1 0.4 0.1 0.5c0.1 0.1 0.3 0.2 0.4 0.4 0.1 0.1 0.3 0.2 0.4 0.3 0.3 0.3 0.5 0.6 0.3 1-0.1 0.4-0.5 0.6-0.8 0.6h-0.5c-0.2 0.1-0.2 0-0.1-0.5z"/>
   <path id="XMLID_473_" class="st74" d="m209.8 259.2c0-0.1 0-0.2 0.1-0.3h2.8v0.2c-0.3 0-0.6-0.1-1-0.1-0.2 0-0.2 0.1-0.2 0.2v2.5c0 0.1 0.1 0.2 0.2 0.3h-0.8c0-0.1 0.1-0.2 0.1-0.3v-2.4c0-0.2-0.1-0.3-0.3-0.3h-0.5c-0.1 0.1-0.3 0.1-0.4 0.2z"/>
   <path id="XMLID_472_" class="st74" d="m209.1 259.3c-0.2-0.2-0.4-0.4-0.7-0.3-0.2 0-0.4 0.2-0.5 0.3s0 0.4 0.1 0.5c0.2 0.2 0.4 0.4 0.6 0.5 0.3 0.2 0.5 0.5 0.5 0.9s-0.2 0.7-0.5 0.8-0.6 0.1-0.8 0.1c-0.3 0-0.4-0.2-0.4-0.5v-0.3c0.1 0.4 0.3 0.7 0.8 0.7 0.2 0 0.4-0.1 0.6-0.3 0.1-0.2 0-0.5-0.1-0.6-0.2-0.2-0.4-0.3-0.5-0.5-0.2-0.2-0.4-0.3-0.5-0.5-0.3-0.5-0.1-1 0.4-1.1 0.3-0.1 0.6 0 0.9 0 0.1-0.1 0.1 0.1 0.1 0.3 0.1-0.1 0 0 0 0z"/>
   <path id="XMLID_471_" class="st74" d="m248.6 261.6c-0.1 0.4-0.1 0.4-0.5 0.4h-1.5c0-0.1 0.1-0.3 0.1-0.4v-2.4c0-0.1-0.1-0.3-0.2-0.3h0.8c0 0.1-0.1 0.2-0.1 0.3v2.3c0 0.2 0.1 0.3 0.3 0.4 0.6 0 0.8 0 1.1-0.3z"/>
   <path id="XMLID_470_" class="st74" d="m234.3 258.9h0.8c0 0.1-0.2 0.2-0.2 0.3v2.4c0 0.2 0.1 0.3 0.3 0.3 0.3 0 0.6 0.1 0.9-0.2 0 0.3 0 0.3-0.3 0.3h-1.6c0-0.1 0.1-0.3 0.1-0.4v-2.4c0.1-0.1 0-0.2 0-0.3z"/>
  </g>
  <g id="XMLID_985_" transform="matrix(.26458 0 0 .26458 -10.924 120.44)">
   <g id="XMLID_1000_">
    <g id="XMLID_1015_">
     <path id="XMLID_217_" class="st82" d="m219.7 191v32.8c0 1.5-1.2 2.7-2.7 2.7h-15.3c-1.5 0-2.7-1.2-2.7-2.7v-32.8c0-0.7 0.3-1.4 0.8-1.9l1.6-1.6 0.7-0.7c0.3-0.3 0.4-0.6 0.6-0.9 0.1-0.3 0.2-0.7 0.2-1 0-1.5 1.2-2.7 2.7-2.7h7.6c1.5 0 2.7 1.2 2.7 2.7 0 0.7 0.3 1.4 0.8 1.9l0.7 0.7 1.6 1.6c0.4 0.5 0.7 1.2 0.7 1.9z" fill="#d1d3d4"/>
     <path id="XMLID_216_" class="st74" d="m219.7 191v32.8c0 1.5-1.2 2.7-2.7 2.7h-15.3c-1.5 0-2.7-1.2-2.7-2.7v-32.8c0-0.7 0.3-1.4 0.8-1.9l1.6-1.6h16.1l1.6 1.6c0.3 0.5 0.6 1.2 0.6 1.9z" fill="#fff"/>
     <path id="XMLID_215_" class="st83" d="m219.7 191v32.8c0 1.5-1.2 2.7-2.7 2.7h-4.1c1.5 0 2.7-1.2 2.7-2.7v-32.8c0-0.7-0.3-1.4-0.8-1.9l-1.6-1.6-0.7-0.7c-0.5-0.5-0.8-1.2-0.8-1.9 0-1.5-1.2-2.7-2.7-2.7h4.1c1.5 0 2.7 1.2 2.7 2.7 0 0.7 0.3 1.4 0.8 1.9l0.7 0.7 1.6 1.6c0.5 0.5 0.8 1.2 0.8 1.9z" fill="#d1d3d4" opacity=".8"/>
     <path id="XMLID_127_" class="st74" d="m214.5 183.7h-10.3c-1.2 0-2.1-1-2.1-2.1 0-1.2 1-2.1 2.1-2.1h10.3c1.2 0 2.1 1 2.1 2.1 0 1.2-0.9 2.1-2.1 2.1z" fill="#fff"/>
     <path id="XMLID_214_" class="st84" d="m216.6 180.7v1.8c0 0.7-0.6 1.2-1.2 1.2h-4.1c0.7 0 1.2-0.6 1.2-1.2v-1.8c0-0.7-0.6-1.2-1.2-1.2h4.1c0.7 0 1.2 0.5 1.2 1.2z" fill="#dbf1fb" opacity=".5"/>
    </g>
    <g id="XMLID_1001_">
     <path id="XMLID_213_" class="st82" d="m259.3 191v32.8c0 1.5-1.2 2.7-2.7 2.7h-15.3c-1.5 0-2.7-1.2-2.7-2.7v-32.8c0-0.7 0.3-1.4 0.8-1.9l1.6-1.6 0.7-0.7 0.6-0.9c0.1-0.3 0.2-0.7 0.2-1 0-1.5 1.2-2.7 2.7-2.7h7.6c1.5 0 2.7 1.2 2.7 2.7 0 0.7 0.3 1.4 0.8 1.9l0.7 0.7 1.6 1.6c0.4 0.5 0.7 1.2 0.7 1.9z" fill="#d1d3d4"/>
     <path id="XMLID_212_" class="st74" d="m259.3 191v32.8c0 1.5-1.2 2.7-2.7 2.7h-15.3c-1.5 0-2.7-1.2-2.7-2.7v-32.8c0-0.7 0.3-1.4 0.8-1.9l1.6-1.6h16.1l1.6 1.6c0.3 0.5 0.6 1.2 0.6 1.9z" fill="#fff"/>
     <path id="XMLID_211_" class="st83" d="m259.3 191v32.8c0 1.5-1.2 2.7-2.7 2.7h-4.1c1.5 0 2.7-1.2 2.7-2.7v-32.8c0-0.7-0.3-1.4-0.8-1.9l-1.6-1.6-0.7-0.7c-0.5-0.5-0.8-1.2-0.8-1.9 0-1.5-1.2-2.7-2.7-2.7h4.1c1.5 0 2.7 1.2 2.7 2.7 0 0.7 0.3 1.4 0.8 1.9l0.7 0.7 1.6 1.6c0.5 0.5 0.8 1.2 0.8 1.9z" fill="#d1d3d4" opacity=".8"/>
     <path id="XMLID_126_" class="st74" d="m254.1 183.7h-10.3c-1.2 0-2.1-1-2.1-2.1 0-1.2 1-2.1 2.1-2.1h10.3c1.2 0 2.1 1 2.1 2.1 0 1.2-1 2.1-2.1 2.1z" fill="#fff"/>
     <path id="XMLID_210_" class="st84" d="m256.2 180.7v1.8c0 0.7-0.6 1.2-1.2 1.2h-4.1c0.7 0 1.2-0.6 1.2-1.2v-1.8c0-0.7-0.6-1.2-1.2-1.2h4.1c0.6 0 1.2 0.5 1.2 1.2z" fill="#dbf1fb" opacity=".5"/>
    </g>
   </g>
   <g id="XMLID_986_">
    <path id="XMLID_209_" class="st82" d="m240.3 195.6v35.2c0 1.6-1.3 2.9-2.9 2.9h-16.4c-1.6 0-2.9-1.3-2.9-2.9v-35.2c0-0.8 0.3-1.5 0.8-2l1.7-1.7 0.8-0.8c0.3-0.3 0.5-0.6 0.6-0.9s0.2-0.7 0.2-1.1c0-1.6 1.3-2.9 2.9-2.9h8.2c1.6 0 2.9 1.3 2.9 2.9 0 0.8 0.3 1.5 0.8 2.1l0.8 0.8 1.7 1.7c0.5 0.4 0.8 1.1 0.8 1.9z" fill="#d1d3d4"/>
    <path id="XMLID_208_" class="st74" d="m240.3 195.6v35.2c0 1.6-1.3 2.9-2.9 2.9h-16.4c-1.6 0-2.9-1.3-2.9-2.9v-35.2c0-0.8 0.3-1.5 0.8-2l1.7-1.7h17.3l1.7 1.7c0.4 0.5 0.7 1.2 0.7 2z" fill="#fff"/>
    <path id="XMLID_207_" class="st83" d="m240.3 195.6v35.2c0 1.6-1.3 2.9-2.9 2.9h-4.4c1.6 0 2.9-1.3 2.9-2.9v-35.2c0-0.8-0.3-1.5-0.8-2l-1.7-1.7-0.8-0.8c-0.5-0.5-0.8-1.3-0.8-2.1 0-1.6-1.3-2.9-2.9-2.9h4.4c1.6 0 2.9 1.3 2.9 2.9 0 0.8 0.3 1.5 0.8 2.1l0.8 0.8 1.7 1.7c0.5 0.5 0.8 1.2 0.8 2z" fill="#d1d3d4" opacity=".8"/>
    <path id="XMLID_206_" class="st74" d="m234.7 187.8h-11.1c-1.3 0-2.3-1-2.3-2.3s1-2.3 2.3-2.3h11.1c1.3 0 2.3 1 2.3 2.3-0.1 1.3-1.1 2.3-2.3 2.3z" fill="#fff"/>
    <path id="XMLID_205_" class="st84" d="m236.9 184.6v1.9c0 0.7-0.6 1.3-1.3 1.3h-4.4c0.7 0 1.3-0.6 1.3-1.3v-1.9c0-0.7-0.6-1.3-1.3-1.3h4.4c0.7-0.1 1.3 0.5 1.3 1.3z" fill="#dbf1fb" opacity=".5"/>
   </g>
  </g>
 </g>
</svg>
