<?xml version="1.0" encoding="UTF-8" standalone="no"?>
<!-- Created with Inkscape (http://www.inkscape.org/) -->

<svg
   xmlns:dc="http://purl.org/dc/elements/1.1/"
   xmlns:cc="http://creativecommons.org/ns#"
   xmlns:rdf="http://www.w3.org/1999/02/22-rdf-syntax-ns#"
   xmlns:svg="http://www.w3.org/2000/svg"
   xmlns="http://www.w3.org/2000/svg"
   xmlns:sodipodi="http://sodipodi.sourceforge.net/DTD/sodipodi-0.dtd"
   xmlns:inkscape="http://www.inkscape.org/namespaces/inkscape"
   width="32.384998mm"
   height="32.384998mm"
   viewBox="0 0 32.384998 32.384998"
   version="1.1"
   id="svg6950"
   inkscape:version="0.92.1 r15371"
   sodipodi:docname="programa7.svg">
  <defs
     id="defs6944">
    <linearGradient
       id="XMLID_362_"
       gradientUnits="userSpaceOnUse"
       x1="307.87579"
       y1="230.2644"
       x2="430.24191"
       y2="230.2644"
       gradientTransform="matrix(0.26458333,0,0,0.26458333,8.1756263,87.92625)">
      <stop
         offset="0"
         style="stop-color:#010101"
         id="stop5778" />
      <stop
         offset="0.2327"
         style="stop-color:#1A1B1A"
         id="stop5780" />
      <stop
         offset="0.5654"
         style="stop-color:#2E2E2E"
         id="stop5782" />
      <stop
         offset="0.833"
         style="stop-color:#393938"
         id="stop5784" />
      <stop
         offset="1"
         style="stop-color:#3D3D3C"
         id="stop5786" />
    </linearGradient>
  </defs>
  <sodipodi:namedview
     id="base"
     pagecolor="#ffffff"
     bordercolor="#666666"
     borderopacity="1.0"
     inkscape:pageopacity="0.0"
     inkscape:pageshadow="2"
     inkscape:zoom="0.35"
     inkscape:cx="61.200001"
     inkscape:cy="61.199987"
     inkscape:document-units="mm"
     inkscape:current-layer="layer1"
     showgrid="false"
     fit-margin-top="0"
     fit-margin-left="0"
     fit-margin-right="0"
     fit-margin-bottom="0"
     inkscape:window-width="1366"
     inkscape:window-height="705"
     inkscape:window-x="-8"
     inkscape:window-y="-8"
     inkscape:window-maximized="1" />
  <metadata
     id="metadata6947">
    <rdf:RDF>
      <cc:Work
         rdf:about="">
        <dc:format>image/svg+xml</dc:format>
        <dc:type
           rdf:resource="http://purl.org/dc/dcmitype/StillImage" />
        <dc:title></dc:title>
      </cc:Work>
    </rdf:RDF>
  </metadata>
  <g
     inkscape:label="Layer 1"
     inkscape:groupmode="layer"
     id="layer1"
     transform="translate(-89.640833,-132.64083)">
    <path
       id="XMLID_129_"
       class="st85"
       d="m 105.83333,165.02583 c -8.916455,0 -16.192497,-7.24958 -16.192497,-16.1925 0,-8.91645 7.249584,-16.1925 16.192497,-16.1925 8.91646,0 16.1925,7.24959 16.1925,16.1925 -0.0264,8.94292 -7.27604,16.1925 -16.1925,16.1925 z"
       inkscape:connector-curvature="0"
       style="fill:url(#XMLID_362_);stroke-width:0.26458332" />
    <g
       id="XMLID_284_"
       transform="matrix(0.26458333,0,0,0.26458333,8.1756253,87.92625)">
      <g
         id="XMLID_536_">
        <g
           id="XMLID_537_">
          <path
             id="XMLID_283_"
             class="st74"
             d="M 342.1,251.4 V 251 l 0.8,-0.1 c 0.8,-0.1 0.9,-0.5 0.9,-3.2 v -6.1 c 0,-2.7 -0.1,-3.1 -0.9,-3.2 l -0.8,-0.1 v -0.4 h 4.9 v 0.4 l -0.8,0.1 c -0.8,0.1 -0.9,0.5 -0.9,3.2 v 6.1 c 0,2.7 0.1,3.1 0.9,3.2 l 0.8,0.1 v 0.4 z"
             inkscape:connector-curvature="0"
             style="fill:#ffffff" />
          <path
             id="XMLID_282_"
             class="st74"
             d="m 349.9,251.3 c -0.1,-0.7 -0.2,-2.1 -0.2,-3 h 0.4 c 0.4,1.9 1.4,2.7 3.3,2.7 1.3,0 2.7,-0.8 2.7,-2.3 0,-1.3 -0.7,-2.2 -2,-2.9 l -1.6,-1 c -1.5,-1 -2.6,-2 -2.6,-3.6 0,-2 1.6,-3.3 3.8,-3.3 1.6,0 2.2,0.4 3.4,0.4 0,1 0,2 -0.2,3 h -0.4 c -0.2,-1.9 -1.2,-2.7 -2.7,-2.7 -1.3,0 -2.4,0.8 -2.4,2.1 0,1.3 0.7,1.9 2.1,2.8 l 1.5,0.9 c 2,1.3 2.5,2.3 2.5,3.7 0,2.1 -1.9,3.6 -4.2,3.6 -1.4,0 -2.4,-0.4 -3.4,-0.4 z"
             inkscape:connector-curvature="0"
             style="fill:#ffffff" />
          <path
             id="XMLID_281_"
             class="st74"
             d="m 360.2,251.3 c -0.1,-0.7 -0.2,-2.1 -0.2,-3 h 0.4 c 0.4,1.9 1.4,2.7 3.3,2.7 1.3,0 2.7,-0.8 2.7,-2.3 0,-1.3 -0.7,-2.2 -2,-2.9 l -1.6,-1 c -1.5,-1 -2.6,-2 -2.6,-3.6 0,-2 1.6,-3.3 3.8,-3.3 1.6,0 2.2,0.4 3.4,0.4 0,1 0,2 -0.2,3 h -0.4 c -0.2,-1.9 -1.2,-2.7 -2.7,-2.7 -1.3,0 -2.4,0.8 -2.4,2.1 0,1.3 0.7,1.9 2.1,2.8 l 1.5,0.9 c 2,1.3 2.5,2.3 2.5,3.7 0,2.1 -1.9,3.6 -4.2,3.6 -1.4,0 -2.4,-0.4 -3.4,-0.4 z"
             inkscape:connector-curvature="0"
             style="fill:#ffffff" />
          <path
             id="XMLID_280_"
             class="st74"
             d="m 370.5,251.3 c -0.1,-0.7 -0.2,-2.1 -0.2,-3 h 0.4 c 0.4,1.9 1.4,2.7 3.3,2.7 1.3,0 2.7,-0.8 2.7,-2.3 0,-1.3 -0.7,-2.2 -2,-2.9 l -1.6,-1 c -1.5,-1 -2.6,-2 -2.6,-3.6 0,-2 1.6,-3.3 3.8,-3.3 1.6,0 2.2,0.4 3.4,0.4 0,1 0,2 -0.2,3 h -0.4 c -0.2,-1.9 -1.2,-2.7 -2.7,-2.7 -1.3,0 -2.4,0.8 -2.4,2.1 0,1.3 0.7,1.9 2.1,2.8 l 1.5,0.9 c 2,1.3 2.5,2.3 2.5,3.7 0,2.1 -1.9,3.6 -4.2,3.6 -1.4,0 -2.4,-0.4 -3.4,-0.4 z"
             inkscape:connector-curvature="0"
             style="fill:#ffffff" />
          <path
             id="XMLID_279_"
             class="st74"
             d="m 390.7,238.1 c 0.2,0.9 0.3,2.2 0.4,3.4 h -0.4 c -0.6,-2.2 -1.2,-2.7 -2.5,-2.7 -0.6,0 -1.4,0 -2.1,0.1 v 8.9 c 0,2.7 0.1,3.1 0.9,3.2 l 0.8,0.1 v 0.4 h -4.9 v -0.4 l 0.8,-0.1 c 0.8,-0.1 0.9,-0.5 0.9,-3.2 V 239 c -0.7,-0.1 -1.4,-0.1 -2.1,-0.1 -1.3,0 -1.8,0.5 -2.5,2.7 h -0.4 c 0.1,-1.2 0.2,-2.5 0.4,-3.4 h 10.7 z"
             inkscape:connector-curvature="0"
             style="fill:#ffffff" />
          <path
             id="XMLID_278_"
             class="st74"
             d="M 393.2,251.4 V 251 l 0.8,-0.1 c 0.8,-0.1 0.9,-0.5 0.9,-3.2 v -6.1 c 0,-2.7 -0.1,-3.1 -0.9,-3.2 l -0.8,-0.1 v -0.4 h 8.4 c 0,0.3 0.1,0.6 0.1,0.8 0,0.8 -0.1,1.6 -0.3,2.3 H 401 c -0.1,-2 -0.7,-2.4 -2.2,-2.4 -0.9,0 -1.7,0.1 -2.3,0.1 v 5.4 h 1.8 c 1.5,0 1.8,-0.1 2,-1.2 h 0.4 l -0.2,3.6 h -0.4 l -0.1,-0.6 c -0.2,-0.9 -0.4,-1.1 -2,-1.1 h -1.6 v 2.9 c 0,2.7 0.2,2.9 1.4,2.9 h 1.3 c 1.6,0 2,-0.7 2.6,-2.4 h 0.4 c -0.1,1.1 -0.3,2.3 -0.6,3.1 z"
             inkscape:connector-curvature="0"
             style="fill:#ffffff" />
        </g>
      </g>
      <g
         id="XMLID_288_">
        <path
           id="XMLID_277_"
           class="st74"
           d="m 343.5,260.1 c 0,0.4 0,0.8 0,1 0,0.1 0,0.2 0.2,0.2 0.1,0 0.2,0 0.2,0 0,0 0,0 0,0 0,0 0,0 -0.1,0 -0.2,0 -0.5,0 -0.5,0 0,0 -0.3,0 -0.4,0 0,0 -0.1,0 -0.1,0 0,0 0,0 0,0 0,0 0.1,0 0.1,0 0.1,0 0.1,-0.1 0.1,-0.2 0,-0.2 0,-0.5 0,-1 v -0.8 c 0,-0.7 0,-0.8 0,-1 0,-0.2 -0.1,-0.2 -0.2,-0.2 0,0 -0.1,0 -0.1,0 0,0 0,0 0,0 0,0 0,0 0.1,0 0.1,0 0.4,0 0.5,0 0.1,0 0.3,0 0.4,0 0,0 0.1,0 0.1,0 0,0 0,0 0,0 0,0 -0.1,0 -0.1,0 -0.1,0 -0.2,0.1 -0.2,0.3 0,0.1 0,0.3 0,1 z"
           inkscape:connector-curvature="0"
           style="fill:#ffffff" />
        <path
           id="XMLID_276_"
           class="st74"
           d="m 345,260.8 c 0,0.3 0,0.4 0.2,0.4 0.1,0 0.2,0 0.2,0 0,0 0,0 0,0 0,0 0,0 -0.1,0 -0.2,0 -0.4,0 -0.4,0 0,0 -0.2,0 -0.4,0 0,0 -0.1,0 -0.1,0 0,0 0,0 0,0 0,0 0.1,0 0.2,0 0.1,0 0.1,-0.1 0.1,-0.5 v -2.2 c 0,-0.2 0,-0.2 0.1,-0.2 0,0 0.1,0.1 0.2,0.1 0.1,0.1 0.6,0.7 1.2,1.3 0.4,0.4 0.8,0.9 0.9,1 v -1.9 c 0,-0.2 0,-0.3 -0.1,-0.4 -0.1,0 -0.2,0 -0.2,0 0,0 0,0 0,0 0,0 0,0 0.1,0 0.2,0 0.4,0 0.4,0 0,0 0.2,0 0.3,0 0,0 0.1,0 0.1,0 0,0 0,0 0,0 0,0 0,0 -0.1,0 -0.1,0 -0.1,0.1 -0.1,0.3 v 2.2 c 0,0.2 0,0.3 0,0.3 0,0 -0.1,0 -0.3,-0.2 0,0 -0.6,-0.6 -1,-1 -0.5,-0.5 -0.9,-0.9 -1,-1.1 z"
           inkscape:connector-curvature="0"
           style="fill:#ffffff" />
        <path
           id="XMLID_275_"
           class="st74"
           d="m 348,261.3 c -0.1,0 -0.1,0 -0.1,-0.1 0,-0.2 0,-0.3 0,-0.4 0,0 0,-0.1 0,-0.1 0,0 0,0 0,0 0,0 0,0.1 0,0.1 0.1,0.3 0.4,0.4 0.6,0.4 0.4,0 0.6,-0.2 0.6,-0.5 0,-0.3 -0.1,-0.4 -0.5,-0.7 l -0.2,-0.1 c -0.4,-0.3 -0.6,-0.5 -0.6,-0.8 0,-0.4 0.4,-0.7 0.9,-0.7 0.2,0 0.3,0 0.4,0 0.1,0 0.1,0 0.1,0 0,0 0,0 0,0 0,0 0,0.1 0,0.4 0,0.1 0,0.1 0,0.1 0,0 0,0 0,0 0,0 0,-0.1 -0.1,-0.2 0,0 -0.2,-0.2 -0.5,-0.2 -0.3,0 -0.5,0.1 -0.5,0.4 0,0.2 0.1,0.4 0.5,0.6 l 0.1,0.1 c 0.5,0.3 0.6,0.6 0.6,0.9 0,0.2 -0.1,0.5 -0.4,0.6 -0.2,0.1 -0.4,0.1 -0.6,0.1 0.1,0.2 -0.1,0.2 -0.3,0.1 z"
           inkscape:connector-curvature="0"
           style="fill:#ffffff" />
        <path
           id="XMLID_274_"
           class="st74"
           d="m 351.4,260.2 c 0,0.4 0,0.7 0,0.8 0,0.1 0,0.2 0.2,0.2 0.1,0 0.1,0 0.2,0 0,0 0,0 0,0 0,0 0,0 -0.1,0 -0.2,0 -0.5,0 -0.5,0 0,0 -0.3,0 -0.4,0 0,0 -0.1,0 -0.1,0 0,0 0,0 0,0 0,0 0.1,0 0.1,0 0.1,0 0.1,-0.1 0.1,-0.2 0,-0.2 0,-0.5 0,-0.8 v -1.6 h -0.6 c -0.2,0 -0.3,0 -0.4,0.1 0,0.1 0,0.1 -0.1,0.1 0,0 0,0 0,0 0,0 0,0 0,0 0,0 0.1,-0.4 0.1,-0.4 0,0 0,-0.1 0,-0.1 0,0 0.1,0 0.2,0 0.1,0 0.3,0 0.3,0 h 1.5 c 0.1,0 0.2,0 0.3,0 0.1,0 0.1,0 0.1,0 0,0 0,0 0,0 0,0.1 0,0.4 0,0.4 0,0 0,0 0,0 0,0 0,0 0,-0.1 v 0 c 0,-0.1 -0.1,-0.2 -0.5,-0.2 h -0.5 z"
           inkscape:connector-curvature="0"
           style="fill:#ffffff" />
        <path
           id="XMLID_273_"
           class="st74"
           d="m 353.4,260.2 c 0,0.4 0,0.7 0,0.8 0,0.1 0,0.2 0.1,0.2 0.1,0 0.1,0 0.2,0 0,0 0,0 0,0 0,0 0,0 -0.1,0 -0.2,0 -0.5,0 -0.5,0 0,0 -0.3,0 -0.4,0 0,0 -0.1,0 -0.1,0 0,0 0,0 0,0 0,0 0.1,0 0.1,0 0.1,0 0.1,-0.1 0.1,-0.2 0,-0.2 0,-0.5 0,-0.8 v -0.7 c 0,-0.6 0,-0.7 0,-0.8 0,-0.1 0,-0.2 -0.1,-0.2 0,0 -0.1,0 -0.1,0 0,0 0,0 0,0 0,0 0,0 0.1,0 0.1,0 0.4,0 0.4,0 0,0 0.3,0 0.4,0 0,0 0.1,0 0.1,0 0,0 0,0 0,0 0,0 -0.1,0 -0.1,0 -0.1,0 -0.1,0.1 -0.1,0.2 0,0.1 0,0.2 0,0.8 z"
           inkscape:connector-curvature="0"
           style="fill:#ffffff" />
        <path
           id="XMLID_272_"
           class="st74"
           d="m 355.5,260.2 c 0,0.4 0,0.7 0,0.8 0,0.1 0,0.2 0.2,0.2 0.1,0 0.1,0 0.2,0 0,0 0,0 0,0 0,0 0,0 -0.1,0 -0.2,0 -0.5,0 -0.5,0 0,0 -0.3,0 -0.4,0 0,0 -0.1,0 -0.1,0 0,0 0,0 0,0 0,0 0.1,0 0.1,0 0.1,0 0.1,-0.1 0.1,-0.2 0,-0.2 0,-0.5 0,-0.8 v -1.6 h -0.6 c -0.2,0 -0.3,0 -0.4,0.1 0,0.1 0,0.1 -0.1,0.1 0,0 0,0 0,0 0,0 0,0 0,0 0,0 0.1,-0.4 0.1,-0.4 0,0 0,-0.1 0,-0.1 0,0 0.1,0 0.2,0 0.1,0 0.3,0 0.3,0 h 1.5 c 0.1,0 0.2,0 0.3,0 0.1,0 0.1,0 0.1,0 0,0 0,0 0,0 0,0.1 0,0.4 0,0.4 0,0 0,0 0,0 0,0 0,0 0,-0.1 v 0 c 0,-0.1 -0.1,-0.2 -0.5,-0.2 h -0.5 z"
           inkscape:connector-curvature="0"
           style="fill:#ffffff" />
        <path
           id="XMLID_271_"
           class="st74"
           d="m 356.9,259.6 c 0,-0.6 0,-0.7 0,-0.8 0,-0.1 0,-0.2 -0.2,-0.2 0,0 -0.1,0 -0.1,0 0,0 0,0 0,0 0,0 0,0 0.1,0 0.2,0 0.4,0 0.5,0 0,0 0.3,0 0.4,0 0,0 0.1,0 0.1,0 0,0 0,0 0,0 0,0 0,0 -0.1,0 -0.1,0 -0.1,0.1 -0.1,0.2 0,0.1 0,0.2 0,0.8 v 0.5 c 0,0.5 0.1,0.8 0.3,0.9 0.2,0.2 0.4,0.2 0.6,0.2 0.2,0 0.5,-0.1 0.6,-0.3 0.2,-0.2 0.2,-0.5 0.2,-0.9 v -0.5 c 0,-0.6 0,-0.7 0,-0.8 0,-0.1 0,-0.2 -0.2,-0.2 0,0 -0.1,0 -0.1,0 0,0 0,0 0,0 0,0 0,0 0.1,0 0.2,0 0.4,0 0.4,0 0,0 0.2,0 0.3,0 0,0 0.1,0 0.1,0 0,0 0,0 0,0 0,0 0,0 -0.1,0 -0.1,0 -0.1,0.1 -0.1,0.2 0,0.1 0,0.2 0,0.8 v 0.4 c 0,0.4 -0.1,0.9 -0.4,1.1 -0.3,0.2 -0.6,0.3 -0.8,0.3 -0.1,0 -0.5,0 -0.8,-0.3 -0.2,-0.2 -0.3,-0.4 -0.3,-1 z"
           inkscape:connector-curvature="0"
           style="fill:#ffffff" />
        <path
           id="XMLID_270_"
           class="st74"
           d="m 361.1,260.2 c 0,0.4 0,0.7 0,0.8 0,0.1 0,0.2 0.2,0.2 0.1,0 0.1,0 0.2,0 0,0 0,0 0,0 0,0 0,0 -0.1,0 -0.2,0 -0.5,0 -0.5,0 0,0 -0.3,0 -0.4,0 0,0 -0.1,0 -0.1,0 0,0 0,0 0,0 0,0 0.1,0 0.1,0 0.1,0 0.1,-0.1 0.1,-0.2 0,-0.2 0,-0.5 0,-0.8 v -1.6 H 360 c -0.2,0 -0.3,0 -0.4,0.1 0,0.1 0,0.1 -0.1,0.1 0,0 0,0 0,0 0,0 0,0 0,0 0,0 0.1,-0.4 0.1,-0.4 0,0 0,-0.1 0,-0.1 0,0 0.1,0 0.2,0 0.1,0 0.3,0 0.3,0 h 1.5 c 0.1,0 0.2,0 0.3,0 0.1,0 0.1,0 0.1,0 0,0 0,0 0,0 0,0.1 0,0.4 0,0.4 0,0 0,0 0,0 0,0 0,0 0,-0.1 v 0 c 0,-0.1 -0.1,-0.2 -0.5,-0.2 H 361 Z"
           inkscape:connector-curvature="0"
           style="fill:#ffffff" />
        <path
           id="XMLID_512_"
           class="st74"
           d="m 363.8,258.4 c 0.9,0 1.6,0.5 1.6,1.4 0,0.8 -0.6,1.5 -1.6,1.5 -1.1,0 -1.5,-0.8 -1.5,-1.5 -0.1,-0.5 0.4,-1.4 1.5,-1.4 z m 0.1,2.8 c 0.4,0 1.1,-0.2 1.1,-1.3 0,-0.9 -0.6,-1.4 -1.2,-1.4 -0.7,0 -1.1,0.4 -1.1,1.2 -0.1,1 0.5,1.5 1.2,1.5 z"
           inkscape:connector-curvature="0"
           style="fill:#ffffff" />
        <path
           id="XMLID_509_"
           class="st74"
           d="m 368.6,259.6 c 0,-0.6 0,-0.7 0,-0.8 0,-0.1 0,-0.2 -0.2,-0.2 0,0 -0.1,0 -0.1,0 0,0 0,0 0,0 0,0 0,0 0.1,0 0.2,0 0.4,0 0.5,0 0,0 0.3,0 0.5,0 0.4,0 1.1,0 1.6,0.4 0.2,0.2 0.4,0.5 0.4,1 0,0.5 -0.2,0.8 -0.4,1.1 -0.2,0.2 -0.5,0.4 -1.2,0.4 -0.2,0 -0.4,0 -0.5,0 -0.2,0 -0.3,0 -0.3,0 0,0 -0.1,0 -0.2,0 -0.1,0 -0.2,0 -0.2,0 0,0 -0.1,0 -0.1,0 0,0 0,0 0,0 0,0 0.1,0 0.1,0 0.1,0 0.1,-0.1 0.1,-0.2 0,-0.2 0,-0.5 0,-0.8 v -0.9 z m 0.4,0.4 c 0,0.4 0,0.8 0,0.8 0,0.1 0,0.2 0,0.3 0,0.1 0.2,0.2 0.7,0.2 0.4,0 0.7,-0.1 0.9,-0.3 0.2,-0.2 0.3,-0.6 0.3,-0.9 0,-0.5 -0.2,-0.8 -0.4,-1 -0.4,-0.4 -0.8,-0.4 -1.3,-0.4 -0.1,0 -0.2,0 -0.2,0 0,0 0,0 0,0.1 z"
           inkscape:connector-curvature="0"
           style="fill:#ffffff" />
        <path
           id="XMLID_265_"
           class="st74"
           d="m 372,259.6 c 0,-0.6 0,-0.7 0,-0.8 0,-0.1 0,-0.2 -0.2,-0.2 0,0 -0.1,0 -0.1,0 0,0 0,0 0,0 0,0 0,0 0.1,0 0.2,0 0.4,0 0.5,0 0,0 0.8,0 0.9,0 0.1,0 0.1,0 0.2,0 0,0 0,0 0.1,0 0,0 0,0 0,0 0,0 0,0.1 0,0.2 0,0 0,0.2 0,0.2 0,0 0,0 0,0 0,0 0,0 0,0 0,0 0,-0.1 0,-0.1 0,-0.1 -0.1,-0.1 -0.3,-0.1 -0.1,0 -0.5,0 -0.6,0 0,0 0,0 0,0 v 1 c 0,0 0,0 0,0 0,0 0.6,0 0.7,0 0.1,0 0.2,0 0.2,-0.1 0,0 0,0 0.1,0 0,0 0,0 0,0 0,0 0,0.1 0,0.2 0,0.1 0,0.2 0,0.2 0,0 0,0.1 0,0.1 0,0 0,0 0,0 0,0 0,-0.1 0,-0.1 0,-0.1 0,-0.1 -0.2,-0.1 -0.1,0 -0.5,0 -0.6,0 0,0 0,0 0,0 v 0.3 c 0,0.1 0,0.6 0,0.6 0,0.3 0.1,0.3 0.5,0.3 0.1,0 0.3,0 0.4,0 0.1,0 0.2,-0.1 0.2,-0.3 0,0 0,-0.1 0,-0.1 0,0 0,0 0,0.1 0,0.1 0,0.3 -0.1,0.4 0,0.1 -0.1,0.1 -0.2,0.1 -0.3,0 -0.5,0 -0.7,0 -0.2,0 -0.3,0 -0.3,0 0,0 -0.1,0 -0.2,0 -0.1,0 -0.2,0 -0.2,0 0,0 -0.1,0 -0.1,0 0,0 0,0 0,0 0,0 0.1,0 0.1,0 0.1,0 0.1,-0.1 0.1,-0.2 0,-0.2 0,-0.5 0,-0.8 z"
           inkscape:connector-curvature="0"
           style="fill:#ffffff" />
        <path
           id="XMLID_264_"
           class="st74"
           d="m 376.5,261.3 c -0.1,0 -0.1,0 -0.1,-0.1 0,-0.2 0,-0.3 0,-0.4 0,0 0,-0.1 0,-0.1 0,0 0,0 0,0 0,0 0,0.1 0,0.1 0.1,0.3 0.4,0.4 0.6,0.4 0.4,0 0.6,-0.2 0.6,-0.5 0,-0.3 -0.1,-0.4 -0.5,-0.7 l -0.2,-0.1 c -0.4,-0.3 -0.6,-0.5 -0.6,-0.8 0,-0.4 0.4,-0.7 0.9,-0.7 0.2,0 0.3,0 0.4,0 0.1,0 0.1,0 0.1,0 0,0 0,0 0,0 0,0 0,0.1 0,0.4 0,0.1 0,0.1 0,0.1 0,0 0,0 0,0 0,0 0,-0.1 -0.1,-0.2 0,0 -0.2,-0.2 -0.5,-0.2 -0.3,0 -0.5,0.1 -0.5,0.4 0,0.2 0.1,0.4 0.5,0.6 l 0.1,0.1 c 0.5,0.3 0.6,0.6 0.6,0.9 0,0.2 -0.1,0.5 -0.4,0.6 -0.2,0.1 -0.4,0.1 -0.6,0.1 0.1,0.2 -0.1,0.2 -0.3,0.1 z"
           inkscape:connector-curvature="0"
           style="fill:#ffffff" />
        <path
           id="XMLID_263_"
           class="st74"
           d="m 378.9,259.6 c 0,-0.6 0,-0.7 0,-0.8 0,-0.1 0,-0.2 -0.2,-0.2 0,0 -0.1,0 -0.1,0 0,0 0,0 0,0 0,0 0,0 0.1,0 0.2,0 0.4,0 0.5,0 0,0 0.8,0 0.9,0 0.1,0 0.1,0 0.2,0 0,0 0,0 0.1,0 0,0 0,0 0,0 0,0 0,0.1 0,0.2 0,0 0,0.2 0,0.2 0,0 0,0 0,0 0,0 0,0 0,0 0,0 0,-0.1 0,-0.1 0,-0.1 -0.1,-0.1 -0.3,-0.1 -0.1,0 -0.5,0 -0.6,0 0,0 0,0 0,0 v 1 c 0,0 0,0 0,0 0,0 0.6,0 0.7,0 0.1,0 0.2,0 0.2,-0.1 0,0 0,0 0.1,0 0,0 0,0 0,0 0,0 0,0.1 0,0.2 0,0.1 0,0.2 0,0.2 0,0 0,0.1 0,0.1 0,0 0,0 0,0 0,0 0,-0.1 0,-0.1 0,-0.1 0,-0.1 -0.2,-0.1 -0.1,0 -0.5,0 -0.6,0 0,0 0,0 0,0 v 0.3 c 0,0.1 0,0.6 0,0.6 0,0.3 0.1,0.3 0.5,0.3 0.1,0 0.3,0 0.4,0 0.1,0 0.2,-0.1 0.2,-0.3 0,0 0,-0.1 0,-0.1 0,0 0,0 0,0.1 0,0.1 0,0.3 -0.1,0.4 0,0.1 -0.1,0.1 -0.2,0.1 -0.3,0 -0.5,0 -0.7,0 -0.2,0 -0.3,0 -0.3,0 0,0 -0.1,0 -0.2,0 -0.1,0 -0.2,0 -0.2,0 0,0 -0.1,0 -0.1,0 0,0 0,0 0,0 0,0 0.1,0 0.1,0 0.1,0 0.1,-0.1 0.1,-0.2 0,-0.2 0,-0.5 0,-0.8 z"
           inkscape:connector-curvature="0"
           style="fill:#ffffff" />
        <path
           id="XMLID_262_"
           class="st74"
           d="m 383,260.4 c 0,-0.3 0,-0.4 -0.2,-0.4 0,0 -0.1,0 -0.1,0 0,0 0,0 0,0 0,0 0,0 0.1,0 0.2,0 0.4,0 0.5,0 0,0 0.3,0 0.4,0 0,0 0.1,0 0.1,0 0,0 0,0 0,0 0,0 -0.1,0 -0.1,0 -0.1,0 -0.1,0.1 -0.1,0.2 0,0.1 0,0.2 0,0.4 v 0.4 c 0,0.2 0,0.2 -0.1,0.2 -0.2,0.1 -0.6,0.2 -0.8,0.2 -0.3,0 -0.9,0 -1.3,-0.4 -0.2,-0.2 -0.5,-0.6 -0.5,-1.1 0,-0.6 0.3,-1 0.7,-1.2 0.4,-0.2 0.7,-0.2 1,-0.2 0.2,0 0.5,0 0.6,0.1 0.1,0 0.2,0 0.3,0 0,0 0,0 0,0 0,0.1 0,0.2 0,0.5 0,0.1 0,0.1 0,0.1 0,0 0,0 0,-0.1 0,0 0,-0.2 -0.1,-0.2 -0.1,-0.1 -0.4,-0.3 -0.9,-0.3 -0.2,0 -0.5,0 -0.8,0.2 -0.2,0.2 -0.4,0.5 -0.4,1 0,0.5 0.3,0.9 0.4,1 0.3,0.3 0.6,0.4 1,0.4 0.1,0 0.3,0 0.4,-0.1 0,0 0.1,0 0.1,-0.1 z"
           inkscape:connector-curvature="0"
           style="fill:#ffffff" />
        <path
           id="XMLID_261_"
           class="st74"
           d="m 384.2,259.6 c 0,-0.6 0,-0.7 0,-0.8 0,-0.1 0,-0.2 -0.2,-0.2 0,0 -0.1,0 -0.1,0 0,0 0,0 0,0 0,0 0,0 0.1,0 0.2,0 0.4,0 0.5,0 0,0 0.3,0 0.4,0 0,0 0.1,0 0.1,0 0,0 0,0 0,0 0,0 0,0 -0.1,0 -0.1,0 -0.1,0.1 -0.1,0.2 0,0.1 0,0.2 0,0.8 v 0.5 c 0,0.5 0.1,0.8 0.3,0.9 0.2,0.2 0.4,0.2 0.6,0.2 0.2,0 0.5,-0.1 0.6,-0.3 0.2,-0.2 0.2,-0.5 0.2,-0.9 v -0.5 c 0,-0.6 0,-0.7 0,-0.8 0,-0.1 0,-0.2 -0.2,-0.2 0,0 -0.1,0 -0.1,0 0,0 0,0 0,0 0,0 0,0 0.1,0 0.2,0 0.4,0 0.4,0 0,0 0.2,0 0.3,0 0,0 0.1,0 0.1,0 0,0 0,0 0,0 0,0 0,0 -0.1,0 -0.1,0 -0.1,0.1 -0.1,0.2 0,0.1 0,0.2 0,0.8 v 0.4 c 0,0.4 -0.1,0.9 -0.4,1.1 -0.3,0.2 -0.6,0.3 -0.8,0.3 -0.1,0 -0.5,0 -0.8,-0.3 -0.2,-0.2 -0.3,-0.4 -0.3,-1 z"
           inkscape:connector-curvature="0"
           style="fill:#ffffff" />
        <path
           id="XMLID_466_"
           class="st74"
           d="m 387.5,259.6 c 0,-0.6 0,-0.7 0,-0.8 0,-0.1 0,-0.2 -0.2,-0.2 0,0 -0.1,0 -0.1,0 0,0 0,0 0,0 0,0 0,0 0.1,0 0.2,0 0.4,0 0.5,0 0,0 0.4,0 0.5,0 0.2,0 0.5,0 0.7,0.2 0.1,0.1 0.3,0.3 0.3,0.5 0,0.3 -0.1,0.6 -0.5,0.9 0.3,0.4 0.6,0.7 0.8,1 0.2,0.2 0.3,0.2 0.4,0.3 0.1,0 0.1,0 0.1,0 0,0 0,0 0,0 0,0 0,0 -0.1,0 h -0.2 c -0.2,0 -0.3,0 -0.4,-0.1 -0.2,-0.1 -0.3,-0.3 -0.5,-0.6 -0.2,-0.2 -0.3,-0.5 -0.4,-0.6 0,0 0,0 -0.1,0 h -0.5 c 0,0 0,0 0,0 v 0.1 c 0,0.4 0,0.7 0,0.8 0,0.1 0,0.2 0.2,0.2 0.1,0 0.1,0 0.2,0 0,0 0,0 0,0 0,0 0,0 -0.1,0 -0.2,0 -0.5,0 -0.5,0 0,0 -0.3,0 -0.4,0 0,0 -0.1,0 -0.1,0 0,0 0,0 0,0 0,0 0.1,0 0.1,0 0.1,0 0.1,-0.1 0.1,-0.2 0,-0.2 0,-0.5 0,-0.8 z m 0.3,0.3 c 0,0 0,0 0,0 0.1,0.1 0.3,0.1 0.5,0.1 0.1,0 0.2,0 0.3,-0.1 0.1,-0.1 0.2,-0.3 0.2,-0.6 0,-0.5 -0.3,-0.7 -0.7,-0.7 -0.1,0 -0.2,0 -0.3,0 0,0 0,0 0,0 z"
           inkscape:connector-curvature="0"
           style="fill:#ffffff" />
        <path
           id="XMLID_258_"
           class="st74"
           d="m 390.7,260.2 c 0,0.4 0,0.7 0,0.8 0,0.1 0,0.2 0.1,0.2 0.1,0 0.1,0 0.2,0 0,0 0,0 0,0 0,0 0,0 -0.1,0 -0.2,0 -0.5,0 -0.5,0 0,0 -0.3,0 -0.4,0 0,0 -0.1,0 -0.1,0 0,0 0,0 0,0 0,0 0.1,0 0.1,0 0.1,0 0.1,-0.1 0.1,-0.2 0,-0.2 0,-0.5 0,-0.8 v -0.7 c 0,-0.6 0,-0.7 0,-0.8 0,-0.1 0,-0.2 -0.1,-0.2 0,0 -0.1,0 -0.1,0 0,0 0,0 0,0 0,0 0,0 0.1,0 0.1,0 0.4,0 0.4,0 0,0 0.3,0 0.4,0 0,0 0.1,0 0.1,0 0,0 0,0 0,0 0,0 -0.1,0 -0.1,0 -0.1,0 -0.1,0.1 -0.1,0.2 0,0.1 0,0.2 0,0.8 z"
           inkscape:connector-curvature="0"
           style="fill:#ffffff" />
        <path
           id="XMLID_462_"
           class="st74"
           d="m 391.8,259.6 c 0,-0.6 0,-0.7 0,-0.8 0,-0.1 0,-0.2 -0.2,-0.2 0,0 -0.1,0 -0.1,0 0,0 0,0 0,0 0,0 0,0 0.1,0 0.2,0 0.4,0 0.5,0 0,0 0.3,0 0.5,0 0.4,0 1.1,0 1.6,0.4 0.2,0.2 0.4,0.5 0.4,1 0,0.5 -0.2,0.8 -0.4,1.1 -0.2,0.2 -0.5,0.4 -1.2,0.4 -0.2,0 -0.4,0 -0.5,0 -0.2,0 -0.3,0 -0.3,0 0,0 -0.1,0 -0.2,0 -0.1,0 -0.2,0 -0.2,0 0,0 -0.1,0 -0.1,0 0,0 0,0 0,0 0,0 0.1,0 0.1,0 0.1,0 0.1,-0.1 0.1,-0.2 0,-0.2 0,-0.5 0,-0.8 v -0.9 z m 0.3,0.4 c 0,0.4 0,0.8 0,0.8 0,0.1 0,0.2 0,0.3 0,0.1 0.2,0.2 0.7,0.2 0.4,0 0.7,-0.1 0.9,-0.3 0.2,-0.2 0.3,-0.6 0.3,-0.9 0,-0.5 -0.2,-0.8 -0.4,-1 -0.4,-0.4 -0.8,-0.4 -1.3,-0.4 -0.1,0 -0.2,0 -0.2,0 0,0 0,0 0,0.1 z"
           inkscape:connector-curvature="0"
           style="fill:#ffffff" />
        <path
           id="XMLID_373_"
           class="st74"
           d="m 395.8,258.6 c 0,-0.1 0.1,-0.1 0.1,-0.1 0,0 0.1,0.1 0.1,0.1 0.1,0.2 0.7,1.7 0.9,2.3 0.1,0.3 0.2,0.4 0.3,0.4 0.1,0 0.1,0 0.2,0 0,0 0,0 0,0 0,0 0,0 -0.1,0 -0.1,0 -0.3,0 -0.6,0 -0.1,0 -0.1,0 -0.1,0 0,0 0,0 0,0 0,0 0.1,0 0,-0.1 l -0.4,-0.9 c 0,0 0,0 0,0 h -0.9 c 0,0 0,0 0,0 l -0.2,0.6 c 0,0.1 -0.1,0.2 -0.1,0.3 0,0.1 0.1,0.1 0.1,0.1 v 0 c 0,0 0,0 0,0 0,0 0,0 -0.1,0 -0.1,0 -0.3,0 -0.4,0 0,0 -0.2,0 -0.4,0 0,0 -0.1,0 -0.1,0 0,0 0,0 0,0 0,0 0.1,0 0.1,0 0.2,0 0.3,-0.2 0.3,-0.3 z m 0.4,1.5 c 0,0 0,0 0,0 l -0.4,-1.1 c 0,-0.1 0,-0.1 -0.1,0 l -0.4,1 c 0,0 0,0 0,0 h 0.9 z"
           inkscape:connector-curvature="0"
           style="fill:#ffffff" />
        <path
           id="XMLID_370_"
           class="st74"
           d="m 397.8,259.6 c 0,-0.6 0,-0.7 0,-0.8 0,-0.1 0,-0.2 -0.2,-0.2 0,0 -0.1,0 -0.1,0 0,0 0,0 0,0 0,0 0,0 0.1,0 0.2,0 0.4,0 0.5,0 0,0 0.3,0 0.5,0 0.4,0 1.1,0 1.6,0.4 0.2,0.2 0.4,0.5 0.4,1 0,0.5 -0.2,0.8 -0.4,1.1 -0.2,0.2 -0.5,0.4 -1.2,0.4 -0.2,0 -0.4,0 -0.5,0 -0.2,0 -0.3,0 -0.3,0 0,0 -0.1,0 -0.2,0 -0.1,0 -0.2,0 -0.2,0 0,0 -0.1,0 -0.1,0 0,0 0,0 0,0 0,0 0.1,0 0.1,0 0.1,0 0.1,-0.1 0.1,-0.2 0,-0.2 0,-0.5 0,-0.8 v -0.9 z m 0.3,0.4 c 0,0.4 0,0.8 0,0.8 0,0.1 0,0.2 0,0.3 0,0.1 0.2,0.2 0.7,0.2 0.4,0 0.7,-0.1 0.9,-0.3 0.2,-0.2 0.3,-0.6 0.3,-0.9 0,-0.5 -0.2,-0.8 -0.4,-1 -0.4,-0.4 -0.8,-0.4 -1.3,-0.4 -0.1,0 -0.2,0 -0.2,0 0,0 0,0 0,0.1 z"
           inkscape:connector-curvature="0"
           style="fill:#ffffff" />
        <path
           id="XMLID_251_"
           class="st74"
           d="m 343.4,264.8 c 0,-0.2 0,-0.3 -0.1,-0.4 0,-0.1 -0.5,-0.8 -0.6,-1 -0.1,-0.1 -0.2,-0.2 -0.2,-0.3 -0.1,0 -0.1,0 -0.2,0 0,0 0,0 0,0 0,0 0,0 0,0 0.1,0 0.3,0 0.4,0 0,0 0.2,0 0.3,0 0,0 0,0 0,0 0,0 0,0 -0.1,0 0,0 0,0 0,0.1 0,0 0,0.1 0,0.1 l 0.6,1.1 c 0.1,-0.1 0.5,-0.9 0.6,-1 0,-0.1 0.1,-0.1 0.1,-0.2 0,0 0,-0.1 -0.1,-0.1 0,0 -0.1,0 -0.1,0 0,0 0,0 0.1,0 0.1,0 0.2,0 0.2,0 0,0 0.3,0 0.3,0 0,0 0,0 0,0 0,0 0,0 0,0 0,0 -0.1,0 -0.2,0 -0.1,0 -0.1,0.1 -0.2,0.2 -0.1,0.1 -0.6,0.9 -0.7,1.1 -0.1,0.1 0,0.2 0,0.3 v 0.3 c 0,0.1 0,0.2 0,0.3 0,0.1 0,0.2 0.1,0.2 0,0 0.1,0 0.2,0 0,0 0,0 0,0 0,0 0,0 -0.1,0 -0.2,0 -0.4,0 -0.5,0 0,0 -0.2,0 -0.3,0 0,0 -0.1,0 -0.1,0 0,0 0,0 0,0 0,0 0.1,0 0.1,0 0.1,0 0.1,-0.1 0.1,-0.2 0,-0.1 0,-0.3 0,-0.3 z"
           inkscape:connector-curvature="0"
           style="fill:#ffffff" />
        <path
           id="XMLID_250_"
           class="st74"
           d="m 346.3,265.6 c -0.1,0 -0.1,0 -0.1,-0.2 0,-0.2 0,-0.4 0,-0.4 0,0 0,-0.1 0,-0.1 0,0 0,0 0,0 0,0 0,0.1 0,0.2 0.1,0.3 0.3,0.4 0.6,0.4 0.4,0 0.6,-0.3 0.6,-0.5 0,-0.3 -0.1,-0.4 -0.5,-0.7 l -0.2,-0.2 c -0.4,-0.4 -0.5,-0.6 -0.5,-0.9 0,-0.4 0.3,-0.7 0.8,-0.7 0.2,0 0.3,0 0.4,0 0.1,0 0.1,0 0.1,0 0,0 0,0 0,0 0,0 0,0.2 0,0.4 0,0.1 0,0.1 0,0.1 0,0 0,0 0,-0.1 0,0 0,-0.2 -0.1,-0.2 0,0 -0.1,-0.2 -0.5,-0.2 -0.3,0 -0.5,0.2 -0.5,0.5 0,0.2 0.1,0.4 0.5,0.7 l 0.1,0.1 c 0.5,0.4 0.6,0.6 0.6,1 0,0.2 -0.1,0.5 -0.3,0.7 -0.2,0.1 -0.4,0.2 -0.6,0.2 -0.1,0 -0.2,0 -0.4,-0.1 z"
           inkscape:connector-curvature="0"
           style="fill:#ffffff" />
        <path
           id="XMLID_249_"
           class="st74"
           d="m 348.4,264.1 c 0,-0.5 0,-0.6 0,-0.7 0,-0.1 0,-0.2 -0.1,-0.2 0,0 -0.1,0 -0.1,0 0,0 0,0 0,0 0,0 0,0 0.1,0 0.2,0 0.4,0 0.4,0 0,0 0.8,0 0.9,0 0.1,0 0.1,0 0.2,0 0,0 0,0 0,0 0,0 0,0 0,0 0,0 0,0.1 0,0.2 0,0 0,0.2 0,0.2 0,0 0,0 0,0 0,0 0,0 0,0 0,0 0,-0.1 0,-0.1 0,-0.1 -0.1,-0.1 -0.3,-0.1 -0.1,0 -0.5,0 -0.5,0 0,0 0,0 0,0 v 0.9 c 0,0 0,0 0,0 0,0 0.5,0 0.6,0 0.1,0 0.1,0 0.2,0 0,0 0,0 0.1,0 0.1,0 0,0 0,0 0,0 0,0.1 0,0.2 0,0.1 0,0.2 0,0.2 0,0 0,0.1 0,0.1 0,0 0,0 0,0 0,0 0,-0.1 0,-0.1 0,0 0,-0.1 -0.2,-0.1 -0.1,0 -0.5,0 -0.5,0 0,0 0,0 0,0 v 0.3 c 0,0.1 0,0.5 0,0.6 0,0.2 0.1,0.3 0.4,0.3 0.1,0 0.3,0 0.4,0 0.1,0 0.1,-0.1 0.2,-0.2 0,0 0,-0.1 0,-0.1 0,0 0,0 0,0.1 0,0 0,0.3 0,0.3 0,0.1 -0.1,0.1 -0.2,0.1 -0.3,0 -0.5,0 -0.6,0 -0.2,0 -0.2,0 -0.3,0 0,0 -0.1,0 -0.2,0 -0.1,0 -0.2,0 -0.2,0 0,0 -0.1,0 -0.1,0 0,0 0,0 0,0 0,0 0.1,0 0.1,0 0.1,0 0.1,-0.1 0.1,-0.2 0,-0.1 0,-0.4 0,-0.7 z"
           inkscape:connector-curvature="0"
           style="fill:#ffffff" />
        <path
           id="XMLID_364_"
           class="st74"
           d="m 350.5,264.1 c 0,-0.5 0,-0.6 0,-0.7 0,-0.1 0,-0.2 -0.1,-0.2 0,0 -0.1,0 -0.1,0 0,0 0,0 0,0 0,0 0,0 0.1,0 0.2,0 0.4,0 0.4,0 0,0 0.3,0 0.4,0 0.2,0 0.5,0 0.7,0.2 0.1,0.1 0.2,0.2 0.2,0.5 0,0.3 -0.1,0.5 -0.4,0.8 0.3,0.4 0.5,0.7 0.7,0.9 0.2,0.2 0.3,0.2 0.4,0.2 0.1,0 0.1,0 0.1,0 0,0 0,0 0,0 0,0 0,0 -0.1,0 h -0.2 c -0.2,0 -0.3,0 -0.4,-0.1 -0.2,-0.1 -0.3,-0.2 -0.5,-0.5 -0.2,-0.2 -0.3,-0.4 -0.4,-0.5 0,0 0,0 0,0 h -0.5 c 0,0 0,0 0,0 v 0.1 c 0,0.3 0,0.6 0,0.7 0,0.1 0,0.2 0.1,0.2 0,0 0.1,0 0.2,0 0,0 0,0 0,0 0,0 0,0 -0.1,0 -0.2,0 -0.4,0 -0.4,0 0,0 -0.2,0 -0.4,0 0,0 -0.1,0 -0.1,0 0,0 0,0 0,0 0,0 0.1,0 0.1,0 0.1,0 0.1,-0.1 0.1,-0.2 0,-0.1 0,-0.4 0,-0.7 v -0.7 z m 0.3,0.3 c 0,0 0,0 0,0 0.1,0.1 0.3,0.1 0.4,0.1 0.1,0 0.2,0 0.3,-0.1 0.1,-0.1 0.2,-0.3 0.2,-0.5 0,-0.4 -0.2,-0.7 -0.6,-0.7 -0.1,0 -0.2,0 -0.3,0 0,0 0,0 0,0 z"
           inkscape:connector-curvature="0"
           style="fill:#ffffff" />
        <path
           id="XMLID_246_"
           class="st74"
           d="m 353.9,265.2 c 0.2,-0.5 0.7,-1.6 0.8,-1.9 0,-0.1 0,-0.1 0,-0.1 0,0 0,-0.1 0,-0.1 0,0 -0.1,0 -0.1,0 0,0 0,0 0,0 0,0 0,0 0.1,0 0.1,0 0.3,0 0.3,0 0,0 0.2,0 0.3,0 0,0 0.1,0 0.1,0 0,0 0,0 0,0 0,0 -0.1,0 -0.2,0 0,0 -0.1,0.1 -0.2,0.3 0,0.1 -0.2,0.5 -0.4,0.9 -0.2,0.5 -0.4,0.9 -0.5,1 -0.1,0.2 -0.1,0.3 -0.2,0.3 0,0 -0.1,0 -0.1,-0.2 l -0.9,-2.1 c -0.1,-0.2 -0.1,-0.2 -0.2,-0.3 -0.1,0 -0.1,0 -0.1,0 0,0 0,0 0,0 0,0 0,0 0.1,0 0.2,0 0.4,0 0.4,0 0,0 0.2,0 0.3,0 0.1,0 0.1,0 0.1,0 0,0 0,0 0,0 0,0 -0.1,0 -0.1,0 0,0 0,0 0,0.1 0,0 0,0.2 0.1,0.3 z"
           inkscape:connector-curvature="0"
           style="fill:#ffffff" />
        <path
           id="XMLID_245_"
           class="st74"
           d="m 356.1,264.7 c 0,0.3 0,0.6 0,0.7 0,0.1 0,0.2 0.1,0.2 0.1,0 0.1,0 0.2,0 0,0 0,0 0,0 0,0 0,0 -0.1,0 -0.2,0 -0.4,0 -0.4,0 0,0 -0.2,0 -0.4,0 0,0 -0.1,0 -0.1,0 0,0 0,0 0,0 0,0 0.1,0 0.1,0 0.1,0 0.1,-0.1 0.1,-0.2 0,-0.1 0,-0.4 0,-0.7 v -0.6 c 0,-0.5 0,-0.6 0,-0.7 0,-0.1 0,-0.2 -0.1,-0.2 0,0 -0.1,0 -0.1,0 0,0 0,0 0,0 0,0 0,0 0.1,0 0.1,0 0.3,0 0.4,0 0,0 0.2,0 0.4,0 0,0 0.1,0 0.1,0 0,0 0,0 0,0 0,0 0,0 -0.1,0 -0.1,0 -0.1,0.1 -0.1,0.2 0,0.1 0,0.2 0,0.7 z"
           inkscape:connector-curvature="0"
           style="fill:#ffffff" />
        <path
           id="XMLID_244_"
           class="st74"
           d="m 357.3,265.4 c -0.3,-0.3 -0.4,-0.7 -0.4,-1 0,-0.2 0.1,-0.6 0.4,-0.9 0.2,-0.2 0.5,-0.4 1.1,-0.4 0.1,0 0.3,0 0.5,0 0.1,0 0.2,0 0.4,0.1 0,0 0,0 0,0 0,0 0,0.1 0,0.2 0,0.1 0,0.3 0,0.4 0,0.1 0,0.1 0,0.1 0,0 0,0 0,-0.1 0,-0.1 -0.1,-0.3 -0.2,-0.3 -0.1,-0.1 -0.4,-0.2 -0.7,-0.2 -0.5,0 -0.7,0.1 -0.8,0.2 -0.3,0.2 -0.3,0.6 -0.3,0.9 0,0.7 0.5,1.2 1.3,1.2 0.3,0 0.4,0 0.6,-0.2 0.1,-0.1 0.1,-0.2 0.1,-0.3 0,0 0,0 0,0 0,0 0,0 0,0 0,0 0,0.3 -0.1,0.4 0,0.1 0,0.1 -0.1,0.1 -0.1,0.1 -0.4,0.1 -0.6,0.1 -0.6,0 -1,-0.1 -1.2,-0.3 z"
           inkscape:connector-curvature="0"
           style="fill:#ffffff" />
        <path
           id="XMLID_243_"
           class="st74"
           d="m 360.4,264.7 c 0,0.3 0,0.6 0,0.7 0,0.1 0,0.2 0.1,0.2 0.1,0 0.1,0 0.2,0 0,0 0,0 0,0 0,0 0,0 -0.1,0 -0.2,0 -0.4,0 -0.4,0 0,0 -0.2,0 -0.4,0 0,0 -0.1,0 -0.1,0 0,0 0,0 0,0 0,0 0.1,0 0.1,0 0.1,0 0.1,-0.1 0.1,-0.2 0,-0.1 0,-0.4 0,-0.7 v -0.6 c 0,-0.5 0,-0.6 0,-0.7 0,-0.1 0,-0.2 -0.1,-0.2 0,0 -0.1,0 -0.1,0 0,0 0,0 0,0 0,0 0,0 0.1,0 0.1,0 0.3,0 0.4,0 0,0 0.2,0 0.4,0 0,0 0.1,0 0.1,0 0,0 0,0 0,0 0,0 0,0 -0.1,0 -0.1,0 -0.1,0.1 -0.1,0.2 0,0.1 0,0.2 0,0.7 z"
           inkscape:connector-curvature="0"
           style="fill:#ffffff" />
        <path
           id="XMLID_357_"
           class="st74"
           d="m 362.4,263 c 0.8,0 1.4,0.5 1.4,1.3 0,0.8 -0.6,1.4 -1.4,1.4 -1,0 -1.4,-0.7 -1.4,-1.4 0,-0.5 0.4,-1.3 1.4,-1.3 z m 0.1,2.6 c 0.3,0 1,-0.2 1,-1.2 0,-0.8 -0.5,-1.3 -1.1,-1.3 -0.6,0 -1,0.4 -1,1.1 -0.1,0.9 0.4,1.4 1.1,1.4 z"
           inkscape:connector-curvature="0"
           style="fill:#ffffff" />
        <path
           id="XMLID_240_"
           class="st74"
           d="m 364.3,265.6 c 0,0 -0.1,0 -0.1,-0.1 0,-0.2 0,-0.3 0,-0.4 0,0 0,-0.1 0,-0.1 0,0 0,0 0,0 0,0 0,0.1 0,0.1 0.1,0.3 0.3,0.3 0.6,0.3 0.4,0 0.5,-0.2 0.5,-0.5 0,-0.2 -0.1,-0.4 -0.5,-0.6 l -0.2,-0.1 c -0.4,-0.3 -0.5,-0.5 -0.5,-0.7 0,-0.4 0.3,-0.6 0.8,-0.6 0.1,0 0.3,0 0.4,0 0.1,0 0.1,0 0.1,0 0,0 0,0 0,0 0,0 0,0.1 0,0.4 0,0.1 0,0.1 0,0.1 0,0 0,0 0,0 0,0 0,-0.1 -0.1,-0.2 0,0 -0.1,-0.2 -0.5,-0.2 -0.3,0 -0.5,0.1 -0.5,0.4 0,0.2 0.1,0.3 0.5,0.6 l 0.1,0.1 c 0.4,0.3 0.6,0.5 0.6,0.8 0,0.2 -0.1,0.4 -0.3,0.6 -0.2,0.1 -0.4,0.1 -0.6,0.1 0,0.1 -0.2,0.1 -0.3,0 z"
           inkscape:connector-curvature="0"
           style="fill:#ffffff" />
        <path
           id="XMLID_239_"
           class="st74"
           d="m 367.7,265.6 c -0.1,0 -0.1,0 -0.1,-0.2 0,-0.2 0,-0.4 0,-0.4 0,0 0,-0.1 0,-0.1 0,0 0,0 0,0 0,0 0,0.1 0,0.2 0.1,0.3 0.3,0.4 0.6,0.4 0.4,0 0.6,-0.3 0.6,-0.5 0,-0.3 -0.1,-0.4 -0.5,-0.7 l -0.2,-0.2 c -0.4,-0.4 -0.5,-0.6 -0.5,-0.9 0,-0.4 0.3,-0.7 0.8,-0.7 0.2,0 0.3,0 0.4,0 0.1,0 0.1,0 0.1,0 0,0 0,0 0,0 0,0 0,0.2 0,0.4 0,0.1 0,0.1 0,0.1 0,0 0,0 0,-0.1 0,0 0,-0.2 -0.1,-0.2 0,0 -0.1,-0.2 -0.5,-0.2 -0.3,0 -0.5,0.2 -0.5,0.5 0,0.2 0.1,0.4 0.5,0.7 l 0.1,0.1 c 0.5,0.4 0.6,0.6 0.6,1 0,0.2 -0.1,0.5 -0.3,0.7 -0.2,0.1 -0.4,0.2 -0.6,0.2 -0.1,0 -0.2,0 -0.4,-0.1 z"
           inkscape:connector-curvature="0"
           style="fill:#ffffff" />
        <path
           id="XMLID_352_"
           class="st74"
           d="m 371,263 c 0.8,0 1.4,0.5 1.4,1.3 0,0.8 -0.6,1.4 -1.4,1.4 -1,0 -1.4,-0.7 -1.4,-1.4 0,-0.5 0.4,-1.3 1.4,-1.3 z m 0.1,2.6 c 0.3,0 1,-0.2 1,-1.2 0,-0.8 -0.5,-1.3 -1.1,-1.3 -0.6,0 -1,0.4 -1,1.1 0,0.9 0.4,1.4 1.1,1.4 z"
           inkscape:connector-curvature="0"
           style="fill:#ffffff" />
        <path
           id="XMLID_236_"
           class="st74"
           d="m 373.2,265.4 c -0.3,-0.3 -0.4,-0.7 -0.4,-1 0,-0.2 0.1,-0.6 0.4,-0.9 0.2,-0.2 0.5,-0.4 1.1,-0.4 0.1,0 0.3,0 0.5,0 0.1,0 0.2,0 0.4,0.1 0,0 0,0 0,0 0,0 0,0.1 0,0.2 0,0.1 0,0.3 0,0.4 0,0.1 0,0.1 0,0.1 0,0 0,0 0,-0.1 0,-0.1 -0.1,-0.3 -0.2,-0.3 -0.1,-0.1 -0.4,-0.2 -0.7,-0.2 -0.5,0 -0.7,0.1 -0.8,0.2 -0.3,0.2 -0.3,0.6 -0.3,0.9 0,0.7 0.5,1.2 1.3,1.2 0.3,0 0.4,0 0.6,-0.2 0.1,-0.1 0.1,-0.2 0.1,-0.3 0,0 0,0 0,0 0,0 0,0 0,0 0,0 0,0.3 -0.1,0.4 0,0.1 0,0.1 -0.1,0.1 -0.1,0.1 -0.4,0.1 -0.6,0.1 -0.5,0 -0.9,-0.1 -1.2,-0.3 z"
           inkscape:connector-curvature="0"
           style="fill:#ffffff" />
        <path
           id="XMLID_235_"
           class="st74"
           d="m 376.3,264.7 c 0,0.3 0,0.6 0,0.7 0,0.1 0,0.2 0.1,0.2 0.1,0 0.1,0 0.2,0 0,0 0,0 0,0 0,0 0,0 -0.1,0 -0.2,0 -0.4,0 -0.4,0 0,0 -0.2,0 -0.4,0 0,0 -0.1,0 -0.1,0 0,0 0,0 0,0 0,0 0.1,0 0.1,0 0.1,0 0.1,-0.1 0.1,-0.2 0,-0.1 0,-0.4 0,-0.7 v -0.6 c 0,-0.5 0,-0.6 0,-0.7 0,-0.1 0,-0.2 -0.1,-0.2 0,0 -0.1,0 -0.1,0 0,0 0,0 0,0 0,0 0,0 0.1,0 0.1,0 0.3,0 0.4,0 0,0 0.2,0 0.4,0 0,0 0.1,0 0.1,0 0,0 0,0 0,0 0,0 0,0 -0.1,0 -0.1,0 -0.1,0.1 -0.1,0.2 0,0.1 0,0.2 0,0.7 z"
           inkscape:connector-curvature="0"
           style="fill:#ffffff" />
        <path
           id="XMLID_347_"
           class="st74"
           d="m 378,263.1 c 0,-0.1 0.1,-0.1 0.1,-0.1 0,0 0,0 0.1,0.1 0.1,0.1 0.6,1.6 0.9,2.1 0.1,0.3 0.2,0.4 0.3,0.4 0.1,0 0.1,0 0.1,0 0,0 0,0 0,0 0,0 0,0 -0.1,0 -0.1,0 -0.3,0 -0.6,0 -0.1,0 -0.1,0 -0.1,0 0,0 0,0 0,0 0,0 0.1,0 0,-0.1 l -0.3,-0.8 c 0,0 0,0 0,0 h -0.8 c 0,0 0,0 0,0 l -0.2,0.6 c 0,0.1 -0.1,0.2 -0.1,0.2 0,0.1 0.1,0.1 0.1,0.1 v 0 c 0,0 0,0 0,0 0,0 0,0 -0.1,0 -0.1,0 -0.3,0 -0.3,0 0,0 -0.2,0 -0.4,0 0,0 -0.1,0 -0.1,0 0,0 0,0 0,0 0,0 0.1,0 0.1,0 0.2,0 0.2,-0.1 0.3,-0.3 z m 0.4,1.5 c 0,0 0,0 0,0 l -0.3,-1 c 0,-0.1 0,-0.1 -0.1,0 l -0.3,0.9 c 0,0 0,0 0,0 h 0.7 z"
           inkscape:connector-curvature="0"
           style="fill:#ffffff" />
        <path
           id="XMLID_232_"
           class="st74"
           d="m 380.3,264.7 c 0,0.5 0,0.7 0.1,0.8 0.1,0.1 0.2,0.1 0.5,0.1 0.2,0 0.3,0 0.4,-0.1 0,-0.1 0.1,-0.1 0.1,-0.2 0,0 0,0 0,0 0,0 0,0 0,0.1 0,0.1 0,0.2 -0.1,0.3 0,0.1 0,0.1 -0.2,0.1 -0.3,0 -0.5,0 -0.6,0 -0.2,0 -0.3,0 -0.4,0 0,0 -0.1,0 -0.1,0 -0.1,0 -0.2,0 -0.2,0 0,0 -0.1,0 -0.1,0 0,0 0,0 0,0 0,0 0.1,0 0.1,0 0.1,0 0.1,-0.1 0.1,-0.2 0,-0.1 0,-0.4 0,-0.7 v -0.6 c 0,-0.5 0,-0.6 0,-0.7 0,-0.1 0,-0.2 -0.1,-0.2 0,0 -0.1,0 -0.1,0 0,0 0,0 0,0 0,0 0,0 0.1,0 0.2,0 0.4,0 0.4,0 0,0 0.3,0 0.4,0 0,0 0.1,0 0.1,0 0,0 0,0 0,0 0,0 -0.1,0 -0.1,0 -0.1,0 -0.1,0.1 -0.1,0.2 0,0.1 0,0.2 0,0.7 z"
           inkscape:connector-curvature="0"
           style="fill:#ffffff" />
        <path
           id="XMLID_231_"
           class="st74"
           d="m 382,264.1 c 0,-0.5 0,-0.6 0,-0.7 0,-0.1 0,-0.2 -0.1,-0.2 0,0 -0.1,0 -0.1,0 0,0 0,0 0,0 0,0 0,0 0.1,0 0.2,0 0.4,0 0.4,0 0,0 0.8,0 0.9,0 0.1,0 0.1,0 0.2,0 0,0 0,0 0,0 0,0 0,0 0,0 0,0 0,0.1 0,0.2 0,0 0,0.2 0,0.2 0,0 0,0 0,0 0,0 0,0 0,0 0,0 0,-0.1 0,-0.1 0,-0.1 -0.1,-0.1 -0.3,-0.1 -0.1,0 -0.5,0 -0.5,0 0,0 0,0 0,0 v 0.9 c 0,0 0,0 0,0 0,0 0.5,0 0.6,0 0.1,0 0.1,0 0.2,0 0,0 0,0 0.1,0 0,0 0,0 0,0 0,0 0,0.1 0,0.2 0,0.1 0,0.2 0,0.2 0,0 0,0.1 0,0.1 0,0 0,0 0,0 0,0 0,-0.1 0,-0.1 0,0 0,-0.1 -0.2,-0.1 -0.1,0 -0.5,0 -0.5,0 0,0 0,0 0,0 v 0.3 c 0,0.1 0,0.5 0,0.6 0,0.2 0.1,0.3 0.4,0.3 0.1,0 0.3,0 0.4,0 0.1,0 0.1,-0.1 0.2,-0.2 0,0 0,-0.1 0,-0.1 0,0 0,0 0,0.1 0,0 0,0.3 0,0.3 0,0.1 -0.1,0.1 -0.2,0.1 -0.3,0 -0.5,0 -0.6,0 -0.2,0 -0.2,0 -0.3,0 0,0 -0.1,0 -0.2,0 -0.1,0 -0.2,0 -0.2,0 0,0 -0.1,0 -0.1,0 0,0 0,0 0,0 0,0 0.1,0 0.1,0 0.1,0 0.1,-0.1 0.1,-0.2 0,-0.1 0,-0.4 0,-0.7 z"
           inkscape:connector-curvature="0"
           style="fill:#ffffff" />
        <path
           id="XMLID_229_"
           class="st74"
           d="m 383.9,265.6 c 0,0 -0.1,0 -0.1,-0.1 0,-0.2 0,-0.3 0,-0.4 0,0 0,-0.1 0,-0.1 0,0 0,0 0,0 0,0 0,0.1 0,0.1 0.1,0.3 0.3,0.3 0.6,0.3 0.4,0 0.5,-0.2 0.5,-0.5 0,-0.2 -0.1,-0.4 -0.5,-0.6 l -0.2,-0.1 c -0.4,-0.3 -0.5,-0.5 -0.5,-0.7 0,-0.4 0.3,-0.6 0.8,-0.6 0.1,0 0.3,0 0.4,0 0.1,0 0.1,0 0.1,0 0,0 0,0 0,0 0,0 0,0.1 0,0.4 0,0.1 0,0.1 0,0.1 0,0 0,0 0,0 0,0 0,-0.1 -0.1,-0.2 0,0 -0.1,-0.2 -0.5,-0.2 -0.3,0 -0.5,0.1 -0.5,0.4 0,0.2 0.1,0.3 0.5,0.6 l 0.1,0.1 c 0.4,0.3 0.6,0.5 0.6,0.8 0,0.2 -0.1,0.4 -0.3,0.6 -0.2,0.1 -0.4,0.1 -0.6,0.1 0,0.1 -0.2,0.1 -0.3,0 z"
           inkscape:connector-curvature="0"
           style="fill:#ffffff" />
        <path
           id="XMLID_341_"
           class="st74"
           d="m 387.5,264.1 c 0,-0.5 0,-0.6 0,-0.7 0,-0.1 0,-0.2 -0.1,-0.2 0,0 -0.1,0 -0.1,0 0,0 0,0 0,0 0,0 0,0 0.1,0 0.2,0 0.4,0 0.4,0 0,0 0.3,0 0.5,0 0.4,0 1,0 1.4,0.4 0.2,0.2 0.3,0.5 0.3,0.9 0,0.4 -0.2,0.8 -0.4,1 -0.2,0.2 -0.5,0.4 -1.1,0.4 -0.2,0 -0.3,0 -0.5,0 -0.2,0 -0.3,0 -0.3,0 0,0 -0.1,0 -0.1,0 -0.1,0 -0.2,0 -0.2,0 0,0 -0.1,0 -0.1,0 0,0 0,0 0,0 0,0 0.1,0 0.1,0 0.1,0 0.1,-0.1 0.1,-0.2 0,-0.1 0,-0.4 0,-0.7 z m 0.3,0.3 c 0,0.4 0,0.7 0,0.8 0,0.1 0,0.2 0,0.2 0,0.1 0.2,0.1 0.6,0.1 0.3,0 0.6,-0.1 0.8,-0.3 0.2,-0.2 0.3,-0.5 0.3,-0.8 0,-0.4 -0.2,-0.7 -0.3,-0.9 -0.3,-0.3 -0.7,-0.4 -1.2,-0.4 -0.1,0 -0.2,0 -0.2,0 0,0 0,0 0,0.1 z"
           inkscape:connector-curvature="0"
           style="fill:#ffffff" />
        <path
           id="XMLID_226_"
           class="st74"
           d="m 390.6,264.1 c 0,-0.5 0,-0.6 0,-0.7 0,-0.1 0,-0.2 -0.1,-0.2 0,0 -0.1,0 -0.1,0 0,0 0,0 0,0 0,0 0,0 0.1,0 0.2,0 0.4,0 0.4,0 0,0 0.8,0 0.9,0 0.1,0 0.1,0 0.2,0 0,0 0,0 0,0 0,0 0,0 0,0 0,0 0,0.1 0,0.2 0,0 0,0.2 0,0.2 0,0 0,0 0,0 0,0 0,0 0,0 0,0 0,-0.1 0,-0.1 0,-0.1 -0.1,-0.1 -0.3,-0.1 -0.1,0 -0.5,0 -0.5,0 0,0 0,0 0,0 v 0.9 c 0,0 0,0 0,0 0,0 0.5,0 0.6,0 0.1,0 0.1,0 0.2,0 0,0 0,0 0.1,0 0.1,0 0,0 0,0 0,0 0,0.1 0,0.2 0,0.1 0,0.2 0,0.2 0,0 0,0.1 0,0.1 0,0 0,0 0,0 0,0 0,-0.1 0,-0.1 0,0 0,-0.1 -0.2,-0.1 -0.1,0 -0.5,0 -0.5,0 0,0 0,0 0,0 v 0.3 c 0,0.1 0,0.5 0,0.6 0,0.2 0.1,0.3 0.4,0.3 0.1,0 0.3,0 0.4,0 0.1,0 0.1,-0.1 0.2,-0.2 0,0 0,-0.1 0,-0.1 0,0 0,0 0,0.1 0,0 0,0.3 0,0.3 0,0.1 -0.1,0.1 -0.2,0.1 -0.3,0 -0.5,0 -0.6,0 -0.2,0 -0.2,0 -0.3,0 0,0 -0.1,0 -0.2,0 -0.1,0 -0.2,0 -0.2,0 0,0 -0.1,0 -0.1,0 0,0 0,0 0,0 0,0 0.1,0 0.1,0 0.1,0 0.1,-0.1 0.1,-0.2 0,-0.1 0,-0.4 0,-0.7 z"
           inkscape:connector-curvature="0"
           style="fill:#ffffff" />
        <path
           id="XMLID_223_"
           class="st74"
           d="m 394.3,264.7 c 0,0.5 0,0.7 0.1,0.8 0.1,0.1 0.2,0.1 0.5,0.1 0.2,0 0.3,0 0.4,-0.1 0,-0.1 0.1,-0.1 0.1,-0.2 0,0 0,0 0,0 0,0 0,0 0,0.1 0,0.1 0,0.2 -0.1,0.3 0,0.1 0,0.1 -0.2,0.1 -0.3,0 -0.5,0 -0.6,0 -0.2,0 -0.3,0 -0.4,0 0,0 -0.1,0 -0.1,0 -0.1,0 -0.2,0 -0.2,0 0,0 -0.1,0 -0.1,0 0,0 0,0 0,0 0,0 0.1,0 0.1,0 0.1,0 0.1,-0.1 0.1,-0.2 0,-0.1 0,-0.4 0,-0.7 v -0.6 c 0,-0.5 0,-0.6 0,-0.7 0,-0.1 0,-0.2 -0.1,-0.2 0,0 -0.1,0 -0.1,0 0,0 0,0 0,0 0,0 0,0 0.1,0 0.2,0 0.4,0 0.4,0 0,0 0.3,0 0.4,0 0,0 0.1,0 0.1,0 0,0 0,0 0,0 0,0 -0.1,0 -0.1,0 -0.1,0 -0.1,0.1 -0.1,0.2 0,0.1 0,0.2 0,0.7 z"
           inkscape:connector-curvature="0"
           style="fill:#ffffff" />
        <path
           id="XMLID_336_"
           class="st74"
           d="m 397,263 c 0.8,0 1.4,0.5 1.4,1.3 0,0.8 -0.6,1.4 -1.4,1.4 -1,0 -1.4,-0.7 -1.4,-1.4 0,-0.5 0.4,-1.3 1.4,-1.3 z m 0.1,2.6 c 0.3,0 1,-0.2 1,-1.2 0,-0.8 -0.5,-1.3 -1.1,-1.3 -0.6,0 -1,0.4 -1,1.1 0,0.9 0.5,1.4 1.1,1.4 z"
           inkscape:connector-curvature="0"
           style="fill:#ffffff" />
        <path
           id="XMLID_220_"
           class="st74"
           d="m 398.9,265.6 c 0,0 -0.1,0 -0.1,-0.1 0,-0.2 0,-0.3 0,-0.4 0,0 0,-0.1 0,-0.1 0,0 0,0 0,0 0,0 0,0.1 0,0.1 0.1,0.3 0.3,0.3 0.6,0.3 0.4,0 0.5,-0.2 0.5,-0.5 0,-0.2 -0.1,-0.4 -0.5,-0.6 l -0.2,-0.1 c -0.4,-0.3 -0.5,-0.5 -0.5,-0.7 0,-0.4 0.3,-0.6 0.8,-0.6 0.1,0 0.3,0 0.4,0 0.1,0 0.1,0 0.1,0 0,0 0,0 0,0 0,0 0,0.1 0,0.4 0,0.1 0,0.1 0,0.1 0,0 0,0 0,0 0,0 0,-0.1 -0.1,-0.2 0,0 -0.1,-0.2 -0.5,-0.2 -0.3,0 -0.5,0.1 -0.5,0.4 0,0.2 0.1,0.3 0.5,0.6 l 0.1,0.1 c 0.4,0.3 0.6,0.5 0.6,0.8 0,0.2 -0.1,0.4 -0.3,0.6 -0.2,0.1 -0.4,0.1 -0.6,0.1 0.1,0.1 -0.2,0.1 -0.3,0 z"
           inkscape:connector-curvature="0"
           style="fill:#ffffff" />
        <path
           id="XMLID_219_"
           class="st74"
           d="m 343.9,268.8 c 0,0.4 0,0.7 0,0.9 0,0.1 0,0.2 0.2,0.2 0.1,0 0.1,0 0.2,0 0,0 0,0 0,0 0,0 0,0 -0.1,0 -0.2,0 -0.5,0 -0.5,0 0,0 -0.3,0 -0.4,0 0,0 -0.1,0 -0.1,0 0,0 0,0 0,0 0,0 0.1,0 0.1,0 0.1,0 0.1,-0.1 0.1,-0.2 0,-0.2 0,-0.5 0,-0.9 v -1.7 h -0.6 c -0.3,0 -0.3,0 -0.4,0.1 0,0.1 -0.1,0.1 -0.1,0.1 0,0 0,0 0,0 0,0 0,0 0,0 0,0 0.1,-0.4 0.1,-0.4 0,0 0,-0.1 0,-0.1 0,0 0.1,0 0.2,0 0.1,0 0.3,0 0.3,0 h 1.5 c 0.1,0 0.2,0 0.3,0 0.1,0 0.1,0 0.1,0 0,0 0,0 0,0 0,0.1 0,0.4 0,0.4 0,0 0,0.1 0,0.1 0,0 0,0 0,-0.1 v 0 c 0,-0.1 -0.1,-0.2 -0.5,-0.2 h -0.5 z"
           inkscape:connector-curvature="0"
           style="fill:#ffffff" />
        <path
           id="XMLID_331_"
           class="st74"
           d="m 345.8,268.4 c 0,-0.5 0,-0.6 0,-0.7 0,-0.1 0,-0.2 -0.1,-0.2 0,0 -0.1,0 -0.1,0 0,0 0,0 0,0 0,0 0,0 0.1,0 0.2,0 0.4,0 0.4,0 0,0 0.3,0 0.4,0 0.2,0 0.5,0 0.7,0.2 0.1,0.1 0.2,0.2 0.2,0.5 0,0.3 -0.1,0.5 -0.4,0.8 0.3,0.4 0.5,0.7 0.7,0.9 0.2,0.2 0.3,0.2 0.4,0.2 0.1,0 0.1,0 0.1,0 0,0 0,0 0,0 0,0 0,0 -0.1,0 h -0.2 c -0.2,0 -0.3,0 -0.4,-0.1 -0.2,-0.1 -0.3,-0.2 -0.5,-0.5 -0.2,-0.2 -0.3,-0.4 -0.4,-0.5 0,0 0,0 0,0 h -0.5 c 0,0 0,0 0,0 v 0.1 c 0,0.3 0,0.6 0,0.7 0,0.1 0,0.2 0.1,0.2 0,0 0.1,0 0.2,0 0,0 0,0 0,0 0,0 0,0 -0.1,0 -0.2,0 -0.4,0 -0.4,0 0,0 -0.2,0 -0.4,0 0,0 -0.1,0 -0.1,0 0,0 0,0 0,0 0,0 0.1,0 0.1,0 0.1,0 0.1,-0.1 0.1,-0.2 0,-0.1 0,-0.4 0,-0.7 z m 0.3,0.3 c 0,0 0,0 0,0 0.1,0.1 0.3,0.1 0.4,0.1 0.1,0 0.2,0 0.3,-0.1 0.1,-0.1 0.2,-0.3 0.2,-0.5 0,-0.4 -0.2,-0.7 -0.6,-0.7 -0.1,0 -0.2,0 -0.3,0 0,0 0,0 0,0 z"
           inkscape:connector-curvature="0"
           style="fill:#ffffff" />
        <path
           id="XMLID_328_"
           class="st74"
           d="m 349.1,267.5 c 0,-0.1 0.1,-0.1 0.1,-0.1 0,0 0,0 0.1,0.1 0.1,0.1 0.6,1.6 0.9,2.1 0.1,0.3 0.2,0.4 0.3,0.4 0.1,0 0.1,0 0.1,0 0,0 0,0 0,0 0,0 0,0 -0.1,0 -0.1,0 -0.3,0 -0.6,0 -0.1,0 -0.1,0 -0.1,0 0,0 0,0 0,0 0,0 0.1,0 0,-0.1 l -0.3,-0.8 c 0,0 0,0 0,0 h -0.8 c 0,0 0,0 0,0 l -0.2,0.6 c 0,0.1 -0.1,0.2 -0.1,0.2 0,0.1 0.1,0.1 0.1,0.1 v 0 c 0,0 0,0 0,0 0,0 0,0 -0.1,0 -0.1,0 -0.3,0 -0.3,0 0,0 -0.2,0 -0.4,0 0,0 -0.1,0 -0.1,0 0,0 0,0 0,0 0,0 0.1,0 0.1,0 0.2,0 0.2,-0.1 0.3,-0.3 z m 0.4,1.4 c 0,0 0,0 0,0 l -0.3,-1 c 0,-0.1 0,-0.1 -0.1,0 l -0.3,0.9 c 0,0 0,0 0,0 h 0.7 z"
           inkscape:connector-curvature="0"
           style="fill:#ffffff" />
        <path
           id="XMLID_324_"
           class="st74"
           d="m 351.2,268.4 c 0,-0.5 0,-0.6 0,-0.7 0,-0.1 0,-0.2 -0.1,-0.2 0,0 -0.1,0 -0.1,0 0,0 0,0 0,0 0,0 0,0 0.1,0 0.2,0 0.4,0 0.4,0 0.1,0 0.3,0 0.4,0 0.6,0 0.8,0.3 0.8,0.5 0,0.3 -0.2,0.4 -0.4,0.6 0.3,0.1 0.6,0.3 0.6,0.7 0,0.4 -0.3,0.8 -0.9,0.8 -0.1,0 -0.2,0 -0.3,0 -0.1,0 -0.2,0 -0.2,0 0,0 -0.1,0 -0.1,0 -0.1,0 -0.2,0 -0.2,0 0,0 -0.1,0 -0.1,0 0,0 0,0 0,0 0,0 0.1,0 0.1,0 0.1,0 0.1,-0.1 0.1,-0.2 0,-0.1 0,-0.4 0,-0.7 v -0.8 z m 0.3,0.1 c 0,0 0,0 0,0 0,0 0.1,0.1 0.2,0.1 0.2,0 0.3,0 0.3,-0.1 0.1,-0.1 0.1,-0.2 0.1,-0.4 0,-0.3 -0.1,-0.6 -0.5,-0.6 0,0 -0.1,0 -0.2,0 0,0 0,0 0,0 z m 0,0.3 c 0,0.3 0,0.7 0,0.7 0,0.2 0,0.2 0.1,0.3 0.1,0 0.2,0 0.3,0 0.2,0 0.5,-0.1 0.5,-0.5 0,-0.2 -0.1,-0.5 -0.3,-0.6 -0.1,-0.1 -0.2,-0.1 -0.3,-0.1 0,0 -0.2,0 -0.3,0 0,0 0,0 0,0 z"
           inkscape:connector-curvature="0"
           style="fill:#ffffff" />
        <path
           id="XMLID_321_"
           class="st74"
           d="m 354.2,267.5 c 0,-0.1 0.1,-0.1 0.1,-0.1 0,0 0,0 0.1,0.1 0.1,0.1 0.6,1.6 0.9,2.1 0.1,0.3 0.2,0.4 0.3,0.4 0.1,0 0.1,0 0.1,0 0,0 0,0 0,0 0,0 0,0 -0.1,0 -0.1,0 -0.3,0 -0.6,0 -0.1,0 -0.1,0 -0.1,0 0,0 0,0 0,0 0,0 0.1,0 0,-0.1 l -0.3,-0.8 c 0,0 0,0 0,0 h -0.8 c 0,0 0,0 0,0 l -0.2,0.6 c 0,0.1 -0.1,0.2 -0.1,0.2 0,0.1 0.1,0.1 0.1,0.1 v 0 c 0,0 0,0 0,0 0,0 0,0 -0.1,0 -0.1,0 -0.3,0 -0.3,0 0,0 -0.2,0 -0.4,0 0,0 -0.1,0 -0.1,0 0,0 0,0 0,0 0,0 0.1,0 0.1,0 0.2,0 0.2,-0.1 0.3,-0.3 z m 0.4,1.4 c 0,0 0,0 0,0 l -0.3,-1 c 0,-0.1 0,-0.1 -0.1,0 l -0.3,0.9 c 0,0 0,0 0,0 h 0.7 z"
           inkscape:connector-curvature="0"
           style="fill:#ffffff" />
        <path
           id="XMLID_196_"
           class="st74"
           d="m 356.5,269.2 c 0,0.6 0,0.8 -0.1,1 -0.1,0.2 -0.2,0.3 -0.5,0.5 0,0 -0.1,0.1 -0.1,0.1 0,0 0,0 0,0 0,0 0,0 0,0 0,0 0,0 0,-0.1 0,0 0.1,-0.1 0.1,-0.1 0.2,-0.2 0.3,-0.4 0.3,-1.3 v -1 c 0,-0.5 0,-0.6 0,-0.7 0,-0.1 0,-0.2 -0.1,-0.2 0,0 -0.1,0 -0.1,0 0,0 0,0 0,0 0,0 0,0 0.1,0 0.2,0 0.4,0 0.4,0 0,0 0.2,0 0.3,0 0,0 0.1,0 0.1,0 0,0 0,0 0,0 0,0 0,0 -0.1,0 -0.1,0 -0.1,0.1 -0.1,0.2 0,0.1 0,0.2 0,0.7 z"
           inkscape:connector-curvature="0"
           style="fill:#ffffff" />
        <path
           id="XMLID_317_"
           class="st74"
           d="m 358.2,267.5 c 0,-0.1 0.1,-0.1 0.1,-0.1 0,0 0,0 0.1,0.1 0.1,0.1 0.6,1.6 0.9,2.1 0.1,0.3 0.2,0.4 0.3,0.4 0.1,0 0.1,0 0.1,0 0,0 0,0 0,0 0,0 0,0 -0.1,0 -0.1,0 -0.3,0 -0.6,0 -0.1,0 -0.1,0 -0.1,0 0,0 0,0 0,0 0,0 0.1,0 0,-0.1 l -0.3,-0.8 c 0,0 0,0 0,0 h -0.8 c 0,0 0,0 0,0 l -0.2,0.6 c 0,0.1 -0.1,0.2 -0.1,0.2 0,0.1 0.1,0.1 0.1,0.1 v 0 c 0,0 0,0 0,0 0,0 0,0 -0.1,0 -0.1,0 -0.3,0 -0.3,0 0,0 -0.2,0 -0.4,0 0,0 -0.1,0 -0.1,0 0,0 0,0 0,0 0,0 0.1,0 0.1,0 0.2,0 0.2,-0.1 0.3,-0.3 z m 0.4,1.4 c 0.1,0 0.1,0 0,0 l -0.3,-1 c 0,-0.1 0,-0.1 -0.1,0 l -0.3,0.9 c 0,0 0,0 0,0 h 0.7 z"
           inkscape:connector-curvature="0"
           style="fill:#ffffff" />
        <path
           id="XMLID_314_"
           class="st74"
           d="m 360.2,268.4 c 0,-0.5 0,-0.6 0,-0.7 0,-0.1 0,-0.2 -0.1,-0.2 0,0 -0.1,0 -0.1,0 0,0 0,0 0,0 0,0 0,0 0.1,0 0.2,0 0.4,0 0.4,0 0,0 0.3,0 0.5,0 0.4,0 1,0 1.4,0.4 0.2,0.2 0.3,0.5 0.3,0.9 0,0.4 -0.2,0.8 -0.4,1 -0.2,0.2 -0.5,0.4 -1.1,0.4 -0.2,0 -0.3,0 -0.5,0 -0.2,0 -0.3,0 -0.3,0 0,0 -0.1,0 -0.1,0 -0.1,0 -0.2,0 -0.2,0 0,0 -0.1,0 -0.1,0 0,0 0,0 0,0 0,0 0.1,0 0.1,0 0.1,0 0.1,-0.1 0.1,-0.2 0,-0.1 0,-0.4 0,-0.7 z m 0.3,0.4 c 0,0.4 0,0.7 0,0.8 0,0.1 0,0.2 0,0.2 0,0.1 0.2,0.1 0.6,0.1 0.3,0 0.6,-0.1 0.8,-0.3 0.2,-0.2 0.3,-0.5 0.3,-0.8 0,-0.4 -0.2,-0.7 -0.3,-0.9 -0.3,-0.3 -0.7,-0.4 -1.2,-0.4 -0.1,0 -0.2,0 -0.2,0 0,0 0,0 0,0.1 z"
           inkscape:connector-curvature="0"
           style="fill:#ffffff" />
        <path
           id="XMLID_311_"
           class="st74"
           d="m 364.5,267.3 c 0.8,0 1.4,0.5 1.4,1.3 0,0.8 -0.6,1.4 -1.4,1.4 -1,0 -1.4,-0.7 -1.4,-1.4 0,-0.5 0.4,-1.3 1.4,-1.3 z m 0.1,2.6 c 0.3,0 1,-0.2 1,-1.2 0,-0.8 -0.5,-1.3 -1.1,-1.3 -0.6,0 -1,0.4 -1,1.1 0,0.9 0.5,1.4 1.1,1.4 z"
           inkscape:connector-curvature="0"
           style="fill:#ffffff" />
        <path
           id="XMLID_308_"
           class="st74"
           d="m 366.7,268.4 c 0,-0.5 0,-0.6 0,-0.7 0,-0.1 0,-0.2 -0.1,-0.2 0,0 -0.1,0 -0.1,0 0,0 0,0 0,0 0,0 0,0 0.1,0 0.2,0 0.4,0 0.4,0 0,0 0.3,0 0.4,0 0.2,0 0.5,0 0.7,0.2 0.1,0.1 0.2,0.2 0.2,0.5 0,0.3 -0.1,0.5 -0.4,0.8 0.3,0.4 0.5,0.7 0.7,0.9 0.2,0.2 0.3,0.2 0.4,0.2 0.1,0 0.1,0 0.1,0 0,0 0,0 0,0 0,0 0,0 -0.1,0 h -0.2 c -0.2,0 -0.3,0 -0.4,-0.1 -0.2,-0.1 -0.3,-0.2 -0.5,-0.5 -0.2,-0.2 -0.3,-0.4 -0.4,-0.5 0,0 0,0 0,0 H 367 c 0,0 0,0 0,0 v 0.1 c 0,0.3 0,0.6 0,0.7 0,0.1 0,0.2 0.1,0.2 0,0 0.1,0 0.2,0 0,0 0,0 0,0 0,0 0,0 -0.1,0 -0.2,0 -0.4,0 -0.4,0 0,0 -0.2,0 -0.4,0 0,0 -0.1,0 -0.1,0 0,0 0,0 0,0 0,0 0.1,0 0.1,0 0.1,0 0.1,-0.1 0.1,-0.2 0,-0.1 0,-0.4 0,-0.7 v -0.7 z m 0.3,0.3 c 0,0 0,0 0,0 0.1,0.1 0.3,0.1 0.4,0.1 0.1,0 0.2,0 0.3,-0.1 0.1,-0.1 0.2,-0.3 0.2,-0.5 0,-0.4 -0.2,-0.7 -0.6,-0.7 -0.1,0 -0.2,0 -0.3,0 0,0 0,0 0,0 z"
           inkscape:connector-curvature="0"
           style="fill:#ffffff" />
        <path
           id="XMLID_187_"
           class="st74"
           d="m 369.4,268.4 c 0,-0.5 0,-0.6 0,-0.7 0,-0.1 0,-0.2 -0.1,-0.2 0,0 -0.1,0 -0.1,0 0,0 0,0 0,0 0,0 0,0 0.1,0 0.2,0 0.4,0 0.4,0 0,0 0.8,0 0.9,0 0.1,0 0.1,0 0.2,0 0,0 0,0 0,0 0,0 0,0 0,0 0,0 0,0.1 0,0.2 0,0 0,0.2 0,0.2 0,0 0,0 0,0 0,0 0,0 0,0 0,0 0,-0.1 0,-0.1 0,-0.1 -0.1,-0.1 -0.3,-0.1 -0.1,0 -0.5,0 -0.5,0 0,0 0,0 0,0 v 0.9 c 0,0 0,0 0,0 0,0 0.5,0 0.6,0 0.1,0 0.1,0 0.2,0 0,0 0,0 0.1,0 0,0 0,0 0,0 0,0 0,0.1 0,0.2 0,0.1 0,0.2 0,0.2 0,0 0,0.1 0,0.1 0,0 0,0 0,0 0,0 0,-0.1 0,-0.1 0,0 0,-0.1 -0.2,-0.1 -0.1,0 -0.5,0 -0.5,0 0,0 0,0 0,0 v 0.3 c 0,0.1 0,0.5 0,0.6 0,0.2 0.1,0.3 0.4,0.3 0.1,0 0.3,0 0.4,0 0.1,0 0.1,-0.1 0.2,-0.2 0,0 0,-0.1 0,-0.1 0,0 0,0 0,0.1 0,0 0,0.3 0,0.3 0,0.1 -0.1,0.1 -0.2,0.1 -0.3,0 -0.5,0 -0.6,0 -0.2,0 -0.2,0 -0.3,0 0,0 -0.1,0 -0.2,0 -0.1,0 -0.2,0 -0.2,0 0,0 -0.1,0 -0.1,0 0,0 0,0 0,0 0,0 0.1,0 0.1,0 0.1,0 0.1,-0.1 0.1,-0.2 0,-0.1 0,-0.4 0,-0.7 z"
           inkscape:connector-curvature="0"
           style="fill:#ffffff" />
        <path
           id="XMLID_186_"
           class="st74"
           d="m 371.3,270 c 0,0 -0.1,0 -0.1,-0.1 0,-0.2 0,-0.3 0,-0.4 0,0 0,-0.1 0,-0.1 0,0 0,0 0,0 0,0 0,0.1 0,0.1 0.1,0.3 0.3,0.3 0.6,0.3 0.4,0 0.5,-0.2 0.5,-0.5 0,-0.2 -0.1,-0.4 -0.5,-0.6 l -0.2,-0.1 c -0.4,-0.3 -0.5,-0.5 -0.5,-0.7 0,-0.4 0.3,-0.6 0.8,-0.6 0.1,0 0.3,0 0.4,0 0.1,0 0.1,0 0.1,0 0,0 0,0 0,0 0,0 0,0.1 0,0.4 0,0.1 0,0.1 0,0.1 0,0 0,0 0,0 0,0 0,-0.1 -0.1,-0.2 0,0 -0.1,-0.2 -0.5,-0.2 -0.3,0 -0.5,0.1 -0.5,0.4 0,0.2 0.1,0.3 0.5,0.6 l 0.1,0.1 c 0.4,0.3 0.6,0.5 0.6,0.8 0,0.2 -0.1,0.4 -0.3,0.6 -0.2,0.1 -0.4,0.1 -0.6,0.1 0.1,0 -0.1,0 -0.3,0 z"
           inkscape:connector-curvature="0"
           style="fill:#ffffff" />
        <path
           id="XMLID_303_"
           class="st74"
           d="m 375.5,268.4 c 0,-0.5 0,-0.6 0,-0.7 0,-0.1 0,-0.2 -0.1,-0.2 0,0 -0.1,0 -0.1,0 0,0 0,0 0,0 0,0 0,0 0.1,0 0.2,0 0.4,0 0.4,0 0,0 0.3,0 0.5,0 0.4,0 1,0 1.4,0.4 0.2,0.2 0.3,0.5 0.3,0.9 0,0.4 -0.2,0.8 -0.4,1 -0.2,0.2 -0.5,0.4 -1.1,0.4 -0.2,0 -0.3,0 -0.5,0 -0.2,0 -0.3,0 -0.3,0 0,0 -0.1,0 -0.1,0 -0.1,0 -0.2,0 -0.2,0 0,0 -0.1,0 -0.1,0 0,0 0,0 0,0 0,0 0.1,0 0.1,0 0.1,0 0.1,-0.1 0.1,-0.2 0,-0.1 0,-0.4 0,-0.7 z m 0.3,0.4 c 0,0.4 0,0.7 0,0.8 0,0.1 0,0.2 0,0.2 0,0.1 0.2,0.1 0.6,0.1 0.3,0 0.6,-0.1 0.8,-0.3 0.2,-0.2 0.3,-0.5 0.3,-0.8 0,-0.4 -0.2,-0.7 -0.3,-0.9 -0.3,-0.3 -0.7,-0.4 -1.2,-0.4 -0.1,0 -0.2,0 -0.2,0 0,0 0,0 0,0.1 z"
           inkscape:connector-curvature="0"
           style="fill:#ffffff" />
        <path
           id="XMLID_183_"
           class="st74"
           d="m 378.6,268.4 c 0,-0.5 0,-0.6 0,-0.7 0,-0.1 0,-0.2 -0.1,-0.2 0,0 -0.1,0 -0.1,0 0,0 0,0 0,0 0,0 0,0 0.1,0 0.2,0 0.4,0 0.4,0 0,0 0.8,0 0.9,0 0.1,0 0.1,0 0.2,0 0,0 0,0 0,0 0,0 0,0 0,0 0,0 0,0.1 0,0.2 0,0 0,0.2 0,0.2 0,0 0,0 0,0 0,0 0,0 0,0 0,0 0,-0.1 0,-0.1 0,-0.1 -0.1,-0.1 -0.3,-0.1 -0.1,0 -0.5,0 -0.5,0 0,0 0,0 0,0 v 0.9 c 0,0 0,0 0,0 0,0 0.5,0 0.6,0 0.1,0 0.1,0 0.2,0 0,0 0,0 0.1,0 0,0 0,0 0,0 0,0 0,0.1 0,0.2 0,0.1 0,0.2 0,0.2 0,0 0,0.1 0,0.1 0,0 0,0 0,0 0,0 0,-0.1 0,-0.1 0,0 0,-0.1 -0.2,-0.1 -0.1,0 -0.5,0 -0.5,0 0,0 0,0 0,0 v 0.3 c 0,0.1 0,0.5 0,0.6 0,0.2 0.1,0.3 0.4,0.3 0.1,0 0.3,0 0.4,0 0.1,0 0.1,-0.1 0.2,-0.2 0,0 0,-0.1 0,-0.1 0,0 0,0 0,0.1 0,0 0,0.3 0,0.3 0,0.1 -0.1,0.1 -0.2,0.1 -0.3,0 -0.5,0 -0.6,0 -0.2,0 -0.2,0 -0.3,0 0,0 -0.1,0 -0.2,0 -0.1,0 -0.2,0 -0.2,0 0,0 -0.1,0 -0.1,0 0,0 0,0 0,0 0,0 0.1,0 0.1,0 0.1,0 0.1,-0.1 0.1,-0.2 0,-0.1 0,-0.4 0,-0.7 z"
           inkscape:connector-curvature="0"
           style="fill:#ffffff" />
        <path
           id="XMLID_182_"
           class="st74"
           d="m 381.1,269 c 0,0.5 0,0.7 0.1,0.8 0.1,0.1 0.2,0.1 0.5,0.1 0.2,0 0.3,0 0.4,-0.1 0,-0.1 0.1,-0.1 0.1,-0.2 0,0 0,0 0,0 0,0 0,0 0,0.1 0,0.1 0,0.2 -0.1,0.3 0,0.1 0,0.1 -0.2,0.1 -0.3,0 -0.5,0 -0.6,0 -0.2,0 -0.3,0 -0.4,0 0,0 -0.1,0 -0.1,0 -0.1,0 -0.2,0 -0.2,0 0,0 -0.1,0 -0.1,0 0,0 0,0 0,0 0,0 0.1,0 0.1,0 0.1,0 0.1,-0.1 0.1,-0.2 0,-0.1 0,-0.4 0,-0.7 v -0.6 c 0,-0.5 0,-0.6 0,-0.7 0,-0.1 0,-0.2 -0.1,-0.2 0,0 -0.1,0 -0.1,0 0,0 0,0 0,0 0,0 0,0 0.1,0 0.2,0 0.4,0 0.4,0 0,0 0.3,0 0.4,0 0,0 0.1,0 0.1,0 0,0 0,0 0,0 0,0 -0.1,0 -0.1,0 -0.1,0 -0.1,0.1 -0.1,0.2 0,0.1 0,0.2 0,0.7 z"
           inkscape:connector-curvature="0"
           style="fill:#ffffff" />
        <path
           id="XMLID_181_"
           class="st74"
           d="m 385.2,268.1 c 0,-0.6 0,-0.7 0,-0.9 0,-0.1 0,-0.2 -0.2,-0.2 0,0 -0.1,0 -0.1,0 0,0 0,0 0,0 0,0 0,0 0.1,0 0.1,0 0.2,0 0.3,0 h 0.2 c 0,0 0.8,0 0.9,0 0.1,0 0.1,0 0.2,0 0,0 0,0 0.1,0 0,0 0,0 0,0 0,0 0,0.1 0,0.2 0,0 0,0.2 0,0.3 0,0 0,0 0,0 0,0 0,0 0,-0.1 0,0 0,-0.1 0,-0.1 0,-0.1 -0.1,-0.1 -0.3,-0.1 -0.1,0 -0.5,0 -0.6,0 0,0 0,0 0,0 v 1.1 c 0,0 0,0 0,0 0.1,0 0.6,0 0.6,0 0.1,0 0.2,0 0.2,-0.1 0,0 0,-0.1 0.1,-0.1 0,0 0,0 0,0 0,0 0,0.1 0,0.2 0,0.1 0,0.2 0,0.3 0,0 0,0.1 0,0.1 0,0 0,0 0,0 0,0 0,-0.1 0,-0.1 0,-0.1 -0.1,-0.1 -0.2,-0.1 -0.1,0 -0.5,0 -0.6,0 0,0 0,0 0,0 v 0.4 c 0,0.1 0,0.6 0,0.7 0,0.3 0.1,0.3 0.5,0.3 0.1,0 0.3,0 0.4,0 0.1,0 0.2,-0.1 0.2,-0.3 0,0 0,-0.1 0,-0.1 0,0 0,0 0,0.1 0,0 0,0.3 -0.1,0.4 0,0.1 -0.1,0.1 -0.2,0.1 -0.3,0 -0.5,0 -0.7,0 -0.2,0 -0.3,0 -0.3,0 0,0 -0.1,0 -0.2,0 -0.1,0 -0.2,0 -0.2,0 0,0 -0.1,0 -0.1,0 0,0 0,0 0,0 0,0 0.1,0 0.1,0 0.1,0 0.1,-0.1 0.1,-0.2 0,-0.2 0,-0.5 0,-0.9 z"
           inkscape:connector-curvature="0"
           style="fill:#ffffff" />
        <path
           id="XMLID_180_"
           class="st74"
           d="m 387.2,270 c 0,0 -0.1,0 -0.1,-0.1 0,-0.2 0,-0.3 0,-0.4 0,0 0,-0.1 0,-0.1 0,0 0,0 0,0 0,0 0,0.1 0,0.1 0.1,0.3 0.3,0.3 0.6,0.3 0.4,0 0.5,-0.2 0.5,-0.5 0,-0.2 -0.1,-0.4 -0.5,-0.6 l -0.2,-0.1 c -0.4,-0.3 -0.5,-0.5 -0.5,-0.7 0,-0.4 0.3,-0.6 0.8,-0.6 0.1,0 0.3,0 0.4,0 0.1,0 0.1,0 0.1,0 0,0 0,0 0,0 0,0 0,0.1 0,0.4 0,0.1 0,0.1 0,0.1 0,0 0,0 0,0 0,0 0,-0.1 -0.1,-0.2 0,0 -0.1,-0.2 -0.5,-0.2 -0.3,0 -0.5,0.1 -0.5,0.4 0,0.2 0.1,0.3 0.5,0.6 l 0.1,0.1 c 0.4,0.3 0.6,0.5 0.6,0.8 0,0.2 -0.1,0.4 -0.3,0.6 -0.2,0.1 -0.4,0.1 -0.6,0.1 0,0 -0.2,0 -0.3,0 z"
           inkscape:connector-curvature="0"
           style="fill:#ffffff" />
        <path
           id="XMLID_179_"
           class="st74"
           d="m 390.4,269 c 0,0.3 0,0.6 0,0.7 0,0.1 0,0.2 0.1,0.2 0,0 0.1,0 0.2,0 0,0 0,0 0,0 0,0 0,0 -0.1,0 -0.2,0 -0.4,0 -0.4,0 0,0 -0.3,0 -0.4,0 0,0 -0.1,0 -0.1,0 0,0 0,0 0,0 0,0 0.1,0 0.1,0 0.1,0 0.1,-0.1 0.1,-0.2 0,-0.1 0,-0.4 0,-0.7 v -1.4 h -0.5 c -0.2,0 -0.3,0 -0.4,0.1 0,0.1 0,0.1 -0.1,0.1 0,0 0,0 0,0 0,0 0,0 0,0 0,0 0.1,-0.3 0.1,-0.4 0,0 0,-0.1 0,-0.1 0,0 0.1,0 0.2,0 0.1,0 0.2,0 0.3,0 h 1.3 c 0.1,0 0.2,0 0.3,0 0.1,0 0.1,0 0.1,0 0,0 0,0 0,0 0,0.1 0,0.4 0,0.4 0,0 0,0 0,0 0,0 0,0 0,-0.1 v 0 c 0,-0.1 -0.1,-0.2 -0.4,-0.2 h -0.4 z"
           inkscape:connector-curvature="0"
           style="fill:#ffffff" />
        <path
           id="XMLID_295_"
           class="st74"
           d="m 392.5,267.5 c 0,-0.1 0.1,-0.1 0.1,-0.1 0,0 0,0 0.1,0.1 0.1,0.1 0.6,1.6 0.9,2.1 0.1,0.3 0.2,0.4 0.3,0.4 0.1,0 0.1,0 0.1,0 0,0 0,0 0,0 0,0 0,0 -0.1,0 -0.1,0 -0.3,0 -0.6,0 -0.1,0 -0.1,0 -0.1,0 0,0 0,0 0,0 0,0 0.1,0 0,-0.1 l -0.3,-0.8 c 0,0 0,0 0,0 h -0.8 c 0,0 0,0 0,0 l -0.2,0.6 c 0,0.1 -0.1,0.2 -0.1,0.2 0,0.1 0.1,0.1 0.1,0.1 v 0 c 0,0 0,0 0,0 0,0 0,0 -0.1,0 -0.1,0 -0.3,0 -0.3,0 0,0 -0.2,0 -0.4,0 0,0 -0.1,0 -0.1,0 0,0 0,0 0,0 0,0 0.1,0 0.1,0 0.2,0 0.2,-0.1 0.3,-0.3 z m 0.4,1.4 c 0,0 0,0 0,0 l -0.3,-1 c 0,-0.1 0,-0.1 -0.1,0 l -0.3,0.9 c 0,0 0,0 0,0 h 0.7 z"
           inkscape:connector-curvature="0"
           style="fill:#ffffff" />
        <path
           id="XMLID_292_"
           class="st74"
           d="m 394.5,268.4 c 0,-0.5 0,-0.6 0,-0.7 0,-0.1 0,-0.2 -0.1,-0.2 0,0 -0.1,0 -0.1,0 0,0 0,0 0,0 0,0 0,0 0.1,0 0.2,0 0.4,0 0.4,0 0,0 0.3,0 0.5,0 0.4,0 1,0 1.4,0.4 0.2,0.2 0.3,0.5 0.3,0.9 0,0.4 -0.2,0.8 -0.4,1 -0.2,0.2 -0.5,0.4 -1.1,0.4 -0.2,0 -0.3,0 -0.5,0 -0.2,0 -0.3,0 -0.3,0 0,0 -0.1,0 -0.1,0 -0.1,0 -0.2,0 -0.2,0 0,0 -0.1,0 -0.1,0 0,0 0,0 0,0 0,0 0.1,0 0.1,0 0.1,0 0.1,-0.1 0.1,-0.2 0,-0.1 0,-0.4 0,-0.7 z m 0.3,0.4 c 0,0.4 0,0.7 0,0.8 0,0.1 0,0.2 0,0.2 0,0.1 0.2,0.1 0.6,0.1 0.3,0 0.6,-0.1 0.8,-0.3 0.2,-0.2 0.3,-0.5 0.3,-0.8 0,-0.4 -0.2,-0.7 -0.3,-0.9 -0.3,-0.3 -0.7,-0.4 -1.2,-0.4 -0.1,0 -0.2,0 -0.2,0 0,0 0,0 0,0.1 z"
           inkscape:connector-curvature="0"
           style="fill:#ffffff" />
        <path
           id="XMLID_289_"
           class="st74"
           d="m 398.7,267.3 c 0.8,0 1.4,0.5 1.4,1.3 0,0.8 -0.6,1.4 -1.4,1.4 -1,0 -1.4,-0.7 -1.4,-1.4 0,-0.5 0.5,-1.3 1.4,-1.3 z m 0.1,2.6 c 0.3,0 1,-0.2 1,-1.2 0,-0.8 -0.5,-1.3 -1.1,-1.3 -0.6,0 -1,0.4 -1,1.1 0,0.9 0.5,1.4 1.1,1.4 z"
           inkscape:connector-curvature="0"
           style="fill:#ffffff" />
      </g>
      <g
         id="XMLID_285_">
        <path
           id="XMLID_131_"
           class="st74"
           d="m 353.9,254.9 c -6.4,0 -11.6,-0.1 -11.6,-0.3 0,-0.2 5.2,-0.3 11.6,-0.3 h 16 v 0.6 z"
           inkscape:connector-curvature="0"
           style="fill:#ffffff" />
        <path
           id="XMLID_130_"
           class="st74"
           d="m 390.5,254.3 c 6.4,0 11.6,0.1 11.6,0.3 0,0.2 -5.2,0.3 -11.6,0.3 h -16.1 v -0.6 z"
           inkscape:connector-curvature="0"
           style="fill:#ffffff" />
      </g>
    </g>
    <path
       id="XMLID_304_"
       class="st74"
       d="m 114.59104,139.09667 c 0,-0.55563 -0.42333,-0.87313 -0.87312,-0.60854 -0.50271,-0.47625 -1.00542,-0.37042 -1.42875,0.0264 -0.39688,0.39688 -1.61396,1.5875 -1.61396,1.5875 0,0 0.18521,-0.47625 0,-1.16416 -0.18521,-0.68792 -0.82021,-1.05834 -0.82021,-1.05834 0,0 0,-0.3175 -0.23812,-0.74083 -0.23813,-0.42333 -0.84667,-1.00542 -1.21709,-1.13771 -0.39687,-0.10583 -1.34937,0.21167 -1.24354,1.13771 0.10583,0.92604 0.47625,1.08479 0.68792,1.21708 0.21166,0.1323 0.26458,-0.1852 0.13229,-0.26458 -0.13229,-0.0794 -0.23813,-0.39687 -0.26458,-0.66146 -0.0265,-0.26458 0.0794,-0.58208 0.52916,-0.37041 0.44979,0.21166 0.82021,1.21708 1.08479,1.64041 0.26459,0.42334 0.7673,0.15875 0.82021,1.29646 0.0529,0.68792 -0.18521,2.54 -0.18521,2.54 0,0 0,0 -0.44979,0.26458 -0.44979,0.26459 -1.61396,0.82021 -1.95791,1.00542 -0.34396,0.18521 -0.23813,-0.10583 -0.18521,-0.34396 0.0529,-0.23812 0.39687,-0.29104 0.39687,-0.29104 h 0.39688 c 0,0 -0.0265,-0.9525 -0.0265,-1.27 0,-0.34396 -0.0265,-0.635 -0.42334,-0.97896 0.34396,-0.18521 0.82021,-0.66146 1.16417,-1.11125 0.3175,-0.42333 -0.15875,-0.68791 -0.34396,-0.635 -0.1852,0.0529 -0.37041,0.18521 -0.66145,0.23813 0,-0.10584 -0.10584,-0.42334 -0.21167,-0.68792 -0.10583,-0.26458 -0.0529,-0.47625 -0.3175,-0.60854 -0.26458,-0.13229 -0.84667,-0.0529 -0.84667,-0.0529 l -0.10583,-0.15875 c 0,0 0.29104,-0.23812 0.39687,-0.37041 0.1323,-0.1323 0.0794,-0.37042 0.10584,-0.82021 0.0265,-0.44979 0.15875,-1.37584 -0.97896,-1.37584 -1.16417,0 -1.40229,0.68792 -1.45521,1.16417 -0.0794,0.47625 0.18521,0.79375 0.15875,1.24354 -0.635,0.29104 -0.9525,0.55563 -1.19062,1.03188 -0.23813,0.47625 -0.23813,1.53458 -0.23813,1.53458 0,0 -1.34937,-1.48167 -1.69333,-1.93146 -0.34396,-0.42333 -1.03188,-0.50271 -1.29646,-0.0529 -0.423335,-0.23813 -0.846668,0 -0.873127,0.44979 -0.02646,0.44979 -0.15875,1.74625 -0.238125,2.91041 -0.07937,1.16417 -0.07937,1.24355 0.132292,1.85209 0.211667,0.60854 0.79375,1.98437 1.19063,2.83104 0.39687,0.84667 1.53458,1.05833 3.4925,2.01083 1.95791,0.9525 2.96333,1.69334 2.96333,1.69334 0,0 1.00542,-0.71438 2.38125,-1.4023 1.37583,-0.71437 2.61937,-1.21708 3.22792,-1.48166 0.635,-0.23813 0.8202,-0.58209 0.9525,-0.9525 0.13229,-0.37042 0.47625,-1.27 0.87312,-1.98438 0.39688,-0.71437 0.44979,-1.24354 0.44979,-1.77271 0,-0.52916 -0.15875,-2.83104 -0.15875,-3.38666 z m -2.56646,2.35479 c 0.0529,-0.34396 0.23813,-1.32292 0.3175,-1.69333 0.0529,-0.34396 0.39688,-0.37042 0.37042,-0.10584 -0.0265,0.21167 -0.23812,1.56104 -0.3175,1.79917 -0.0529,0.26458 -0.42333,0.34396 -0.37042,0 z m -0.76729,0.15875 c 0.0794,-0.44979 0.0794,-0.66146 0.15875,-0.97896 0.0529,-0.3175 0.3175,-0.37042 0.29104,-0.10583 0,0.23812 -0.0529,0.74083 -0.0529,1.03187 -0.0265,0.39688 -0.44979,0.44979 -0.39687,0.0529 z m -0.635,-0.3175 c 0.0265,-0.23813 0.29104,-0.29104 0.26459,-0.0529 -0.0265,0.23813 -0.0529,0.44979 -0.0529,0.76729 0,0.37042 -0.34396,0.34396 -0.34396,0 0.0265,-0.21166 0.10583,-0.47625 0.13229,-0.71437 z m -4.07458,-1.74625 c 0.10583,-0.21167 0,-0.37042 0,-0.37042 0,0 0.18521,0 0.3175,-0.10583 0.13229,-0.10583 0.10583,-0.34396 0.10583,-0.34396 l 0.26459,0.0529 0.10583,0.44979 c 0,0 -0.21167,0.13229 -0.21167,0.3175 0,0.18521 0.13229,0.26458 0.47625,0.26458 0.34396,0 0.635,-0.13229 0.635,-0.13229 0,0 -0.23812,0.66146 -0.71437,0.635 -0.47625,-0.0265 -0.50271,0.26458 -0.50271,0.26458 v 0.74084 c 0,0 -0.635,0.0529 -0.87313,-0.0529 -0.21166,-0.10583 -0.3175,-0.60854 -0.10583,-0.89958 0.21167,-0.3175 0.39688,-0.60855 0.50271,-0.82021 z m -2.54,-0.47625 c 0.50271,-0.76729 1.16417,-0.68792 1.13771,-1.16417 -0.0265,-0.47625 -0.18521,-0.79375 -0.18521,-0.79375 0,0 0.37042,-0.15875 0.52917,-0.47625 0.15875,-0.3175 0.10583,-0.42333 0.10583,-0.42333 0,0 0.50271,-0.13229 0.71437,0.21167 0.21167,0.34395 0.1323,0.74083 -0.10583,1.03187 -0.21167,0.29104 -0.37042,0.39688 -0.37042,0.39688 0,0 0.1323,0.1852 0.18521,0.26458 -0.26458,0.34396 -0.47625,0.84667 0.0529,1.48167 -0.42333,0.74083 -0.52917,1.19062 -0.44979,1.64041 0.0794,0.47625 0.37042,0.74084 0.66146,0.635 0.29104,-0.10583 0.29104,-0.29104 0.42333,-0.18521 0.13229,0.10584 0.29104,0.18521 0.34396,-0.0529 0.0529,-0.23813 0.18521,-0.4498 0.50271,-0.1323 0.3175,0.3175 0.13229,0.29105 0.13229,0.58209 0,0.29104 0,0.66146 0,0.66146 0,0 -0.3175,0 -0.50271,0 -0.18521,0 -0.23812,0.29104 -0.23812,0.52916 0,0.23813 -0.3175,0.42334 -0.34396,0.0529 -0.0265,-0.37041 -0.0529,-0.635 0.3175,-0.84666 0.37041,-0.21167 0.44979,-0.1323 0.50271,-0.47625 0.0529,-0.34396 -0.15875,-0.29105 -0.18521,-0.0529 -0.0265,0.18521 -0.44979,0.23812 -0.71438,0.3175 -0.26458,0.0794 -0.39687,0.3175 -0.39687,0.76729 0,0.44979 0.0265,0.635 0.39687,0.82021 0.37042,0.18521 0.60854,0.29104 0.60854,0.29104 l -0.3175,0.26458 c 0,0 -0.55562,-0.635 -1.34937,-1.08479 -0.82021,-0.44979 -1.69334,-0.52917 -1.74625,-1.11125 -0.0265,-0.55562 -0.21167,-2.38125 0.29104,-3.14854 z m -1.05833,2.19604 c 0.0529,0.26458 0.10583,0.52917 0.15875,0.76729 0.0529,0.23813 -0.26459,0.26459 -0.3175,0.0794 -0.0529,-0.21167 -0.10584,-0.55563 -0.15875,-0.79375 0,-0.26459 0.26458,-0.34396 0.3175,-0.0529 z m -0.79375,-0.68792 c 0.0265,0.23813 0.10583,0.7673 0.1852,1.0848 0.0794,0.3175 -0.29104,0.29104 -0.3175,-0.0265 -0.0529,-0.3175 -0.1852,-1.11125 -0.1852,-1.11125 0,-0.18521 0.29104,-0.15875 0.3175,0.0529 z m -0.84667,-0.9525 c 0.0529,0.23813 0.29104,1.37584 0.34396,1.61396 0.0529,0.23813 0,0.44979 -0.15875,0.44979 -0.26459,0 -0.26459,-0.10583 -0.34396,-0.55562 0,0 -0.18521,-1.29646 -0.23813,-1.50813 -0.0529,-0.21166 0.34396,-0.23812 0.39688,0 z m 5.50333,9.2075 c 0,0 -0.89958,-0.71437 -2.51354,-1.42875 -1.5875,-0.71437 -2.8575,-1.29645 -3.12208,-1.53458 -0.26459,-0.23812 -0.55563,-0.97896 -0.92604,-1.77271 -0.370422,-0.79375 -0.582089,-1.03187 -0.449797,-1.77271 0.132292,-0.74083 0.132292,-1.98437 0.15875,-2.4077 0.02646,-0.42334 0.476247,-0.60855 0.555627,0.0529 0.0794,0.66146 0.26458,2.27542 0.42333,3.01625 0.15875,0.74084 0.71438,1.24354 1.24354,1.56104 0.52917,0.3175 1.27,0.7673 1.48167,0.42334 0.21167,-0.34396 -0.26458,-0.47625 -0.74083,-0.76729 -0.47625,-0.29105 -1.13771,-0.55563 -1.24354,-1.05834 -0.1323,-0.47625 -0.21167,-0.82021 0.55562,-0.42333 0.76729,0.39687 2.56646,1.19062 3.38667,1.71979 0.82021,0.52917 1.19062,1.98438 1.19062,2.54 v 0 c 0,-0.55562 0.34396,-2.01083 1.16417,-2.54 0.82021,-0.52917 2.59292,-1.29646 3.38667,-1.71979 0.79375,-0.42333 0.68791,-0.0794 0.55562,0.42333 -0.13229,0.47625 -0.76729,0.76729 -1.24354,1.05834 -0.47625,0.29104 -0.9525,0.42333 -0.74083,0.76729 0.21166,0.34396 0.9525,-0.13229 1.48166,-0.42334 0.55563,-0.3175 1.08479,-0.8202 1.24354,-1.56104 0.15875,-0.74083 0.4498,-2.27541 0.52917,-2.93687 0.0794,-0.66146 0.55563,-0.74084 0.58208,-0.3175 0.0265,0.42333 0.0265,1.79916 0.0529,2.56646 0.0529,0.74083 -0.15875,0.97895 -0.50271,1.7727 -0.34396,0.79375 -0.66146,1.53459 -0.92604,1.77271 -0.26458,0.23813 -1.53458,0.82021 -3.12208,1.53459 -1.53459,0.74083 -2.46063,1.4552 -2.46063,1.4552"
       inkscape:connector-curvature="0"
       style="fill:#ffffff;stroke-width:0.26458332" />
  </g>
</svg>
