<?xml version="1.0" encoding="UTF-8"?>
<svg width="32.385mm" height="32.544mm" version="1.1" viewBox="0 0 32.385002 32.543755" xmlns="http://www.w3.org/2000/svg">
 <defs>
  <linearGradient id="XMLID_286_" x1="18.807" x2="141.17" y1="88.411" y2="88.411" gradientTransform="matrix(.26458 0 0 .26458 79.375 123.85)" gradientUnits="userSpaceOnUse">
   <stop stop-color="#010101" offset="0"/>
   <stop stop-color="#1A1B1A" offset=".2327"/>
   <stop stop-color="#2E2E2E" offset=".5654"/>
   <stop stop-color="#393938" offset=".833"/>
   <stop stop-color="#3D3D3C" offset="1"/>
  </linearGradient>
 </defs>
 <g transform="translate(-84.349 -131.05)">
  <g id="XMLID_82_" class="st0" transform="matrix(.26458 0 0 .26458 79.375 123.85)" opacity=".8">
   <path id="XMLID_2_" class="st1" d="m80 150.2c-33.7 0-61.2-27.4-61.2-61.2 0-33.7 27.4-61.2 61.2-61.2 33.7 0 61.2 27.4 61.2 61.2 0 33.7-27.5 61.2-61.2 61.2z" opacity="0"/>
   <path id="XMLID_72_" class="st2" d="m80 150.2c-33.7 0-61.2-27.4-61.2-61.2 0-33.7 27.4-61.2 61.2-61.2 33.7 0 61.2 27.4 61.2 61.2 0 33.7-27.5 61.2-61.2 61.2z"/>
   <path id="XMLID_71_" class="st3" d="m80 150.2c-33.7 0-61.2-27.4-61.2-61.2 0-33.7 27.4-61.2 61.2-61.2 33.7 0 61.2 27.4 61.2 61.2 0 33.7-27.5 61.2-61.2 61.2z"/>
   <path id="XMLID_70_" class="st4" d="m80 150.1c-33.7 0-61.2-27.4-61.2-61.2 0-33.7 27.4-61.2 61.2-61.2 33.7 0 61.2 27.4 61.2 61.2s-27.5 61.2-61.2 61.2z"/>
   <path id="XMLID_69_" class="st5" d="m80 150.1c-33.7 0-61.2-27.4-61.2-61.2 0-33.7 27.4-61.2 61.2-61.2 33.7 0 61.2 27.4 61.2 61.2s-27.5 61.2-61.2 61.2z"/>
   <path id="XMLID_68_" class="st6" d="m80 150.1c-33.7 0-61.2-27.4-61.2-61.2 0-33.7 27.4-61.2 61.2-61.2 33.7 0 61.2 27.4 61.2 61.2s-27.5 61.2-61.2 61.2z"/>
   <path id="XMLID_67_" class="st7" d="m80 150.1c-33.7 0-61.2-27.4-61.2-61.2 0-33.7 27.4-61.2 61.2-61.2 33.7 0 61.2 27.4 61.2 61.2s-27.5 61.2-61.2 61.2z"/>
   <path id="XMLID_66_" class="st8" d="m80 150.1c-33.7 0-61.2-27.4-61.2-61.2 0-33.7 27.4-61.2 61.2-61.2 33.7 0 61.2 27.4 61.2 61.2s-27.5 61.2-61.2 61.2z"/>
   <g fill="#010101">
    <path id="XMLID_65_" class="st9" d="m80 150.1c-33.7 0-61.2-27.4-61.2-61.2 0-33.7 27.4-61.2 61.2-61.2 33.7 0 61.2 27.4 61.2 61.2s-27.5 61.2-61.2 61.2z" opacity=".1127"/>
    <path id="XMLID_64_" class="st10" d="m80 150.1c-33.7 0-61.2-27.4-61.2-61.2 0-33.7 27.4-61.2 61.2-61.2 33.7 0 61.2 27.4 61.2 61.2 0 33.7-27.5 61.2-61.2 61.2z" opacity=".1268"/>
    <path id="XMLID_63_" class="st11" d="m80 150.1c-33.7 0-61.2-27.4-61.2-61.2 0-33.7 27.4-61.2 61.2-61.2 33.7 0 61.2 27.4 61.2 61.2 0 33.7-27.5 61.2-61.2 61.2z" opacity=".1408"/>
    <path id="XMLID_62_" class="st12" d="m80 150.1c-33.7 0-61.2-27.4-61.2-61.2 0-33.7 27.4-61.2 61.2-61.2 33.7 0 61.2 27.4 61.2 61.2 0 33.7-27.5 61.2-61.2 61.2z" opacity=".1549"/>
    <path id="XMLID_61_" class="st13" d="m80 150.1c-33.7 0-61.2-27.4-61.2-61.2 0-33.7 27.4-61.2 61.2-61.2 33.7 0 61.2 27.4 61.2 61.2 0 33.7-27.5 61.2-61.2 61.2z" opacity=".169"/>
    <path id="XMLID_60_" class="st14" d="m80 150.1c-33.7 0-61.2-27.4-61.2-61.2 0-33.7 27.4-61.2 61.2-61.2 33.7 0 61.2 27.4 61.2 61.2 0 33.7-27.5 61.2-61.2 61.2z" opacity=".1831"/>
    <path id="XMLID_59_" class="st15" d="m80 150.1c-33.7 0-61.2-27.4-61.2-61.2 0-33.7 27.4-61.2 61.2-61.2 33.7 0 61.2 27.4 61.2 61.2 0 33.7-27.5 61.2-61.2 61.2z" opacity=".1972"/>
    <path id="XMLID_58_" class="st16" d="m80 150c-33.7 0-61.2-27.4-61.2-61.2 0-33.7 27.4-61.2 61.2-61.2 33.7 0 61.2 27.4 61.2 61.2s-27.5 61.2-61.2 61.2z" opacity=".2113"/>
    <path id="XMLID_57_" class="st17" d="m80 150c-33.7 0-61.2-27.4-61.2-61.2 0-33.7 27.4-61.2 61.2-61.2 33.7 0 61.2 27.4 61.2 61.2s-27.5 61.2-61.2 61.2z" opacity=".2254"/>
    <path id="XMLID_56_" class="st18" d="m80 150c-33.7 0-61.2-27.4-61.2-61.2 0-33.7 27.4-61.2 61.2-61.2 33.7 0 61.2 27.4 61.2 61.2s-27.5 61.2-61.2 61.2z" opacity=".2394"/>
    <path id="XMLID_55_" class="st19" d="m80 150c-33.7 0-61.2-27.4-61.2-61.2 0-33.7 27.4-61.2 61.2-61.2 33.7 0 61.2 27.4 61.2 61.2s-27.5 61.2-61.2 61.2z" opacity=".2535"/>
    <path id="XMLID_54_" class="st20" d="m80 150c-33.7 0-61.2-27.4-61.2-61.2 0-33.7 27.4-61.2 61.2-61.2 33.7 0 61.2 27.4 61.2 61.2s-27.5 61.2-61.2 61.2z" opacity=".2676"/>
    <path id="XMLID_53_" class="st21" d="m80 150c-33.7 0-61.2-27.4-61.2-61.2 0-33.7 27.4-61.2 61.2-61.2 33.7 0 61.2 27.4 61.2 61.2s-27.5 61.2-61.2 61.2z" opacity=".2817"/>
    <path id="XMLID_52_" class="st22" d="m80 150c-33.7 0-61.2-27.4-61.2-61.2 0-33.7 27.4-61.2 61.2-61.2 33.7 0 61.2 27.4 61.2 61.2s-27.5 61.2-61.2 61.2z" opacity=".2958"/>
    <path id="XMLID_51_" class="st23" d="m80 150c-33.7 0-61.2-27.4-61.2-61.2 0-33.7 27.4-61.2 61.2-61.2 33.7 0 61.2 27.4 61.2 61.2 0 33.7-27.5 61.2-61.2 61.2z" opacity=".3099"/>
    <path id="XMLID_50_" class="st24" d="m80 150c-33.7 0-61.2-27.4-61.2-61.2 0-33.7 27.4-61.2 61.2-61.2 33.7 0 61.2 27.4 61.2 61.2 0 33.7-27.5 61.2-61.2 61.2z" opacity=".3239"/>
    <path id="XMLID_49_" class="st25" d="m80 150c-33.7 0-61.2-27.4-61.2-61.2 0-33.7 27.4-61.2 61.2-61.2 33.7 0 61.2 27.4 61.2 61.2 0 33.7-27.5 61.2-61.2 61.2z" opacity=".338"/>
    <path id="XMLID_48_" class="st26" d="m80 150c-33.7 0-61.2-27.4-61.2-61.2s27.5-61.2 61.2-61.2 61.2 27.4 61.2 61.2c0 33.7-27.5 61.2-61.2 61.2z" opacity=".3521"/>
    <path id="XMLID_47_" class="st27" d="m80 150c-33.7 0-61.2-27.4-61.2-61.2s27.5-61.2 61.2-61.2 61.2 27.4 61.2 61.2c0 33.7-27.5 61.2-61.2 61.2z" opacity=".3662"/>
    <path id="XMLID_46_" class="st28" d="m80 150c-33.7 0-61.2-27.4-61.2-61.2s27.5-61.2 61.2-61.2 61.2 27.4 61.2 61.2c0 33.7-27.5 61.2-61.2 61.2z" opacity=".3803"/>
    <path id="XMLID_45_" class="st29" d="m80 149.9c-33.7 0-61.2-27.4-61.2-61.2 0-33.7 27.5-61.1 61.2-61.1s61.2 27.4 61.2 61.2c0 33.7-27.5 61.1-61.2 61.1z" opacity=".3944"/>
    <path id="XMLID_44_" class="st30" d="m80 149.9c-33.7 0-61.2-27.4-61.2-61.2 0-33.7 27.5-61.1 61.2-61.1s61.2 27.4 61.2 61.2c0 33.7-27.5 61.1-61.2 61.1z" opacity=".4085"/>
    <path id="XMLID_43_" class="st31" d="m80 149.9c-33.7 0-61.2-27.4-61.2-61.2 0-33.7 27.5-61.1 61.2-61.1s61.2 27.4 61.2 61.2c0 33.7-27.5 61.1-61.2 61.1z" opacity=".4225"/>
    <path id="XMLID_42_" class="st32" d="m80 149.9c-33.7 0-61.2-27.4-61.2-61.2 0-33.7 27.5-61.1 61.2-61.1s61.2 27.4 61.2 61.2c0 33.7-27.5 61.1-61.2 61.1z" opacity=".4366"/>
    <path id="XMLID_41_" class="st33" d="m80 149.9c-33.7 0-61.2-27.4-61.2-61.2 0-33.7 27.5-61.2 61.2-61.2s61.2 27.4 61.2 61.2-27.5 61.2-61.2 61.2z" opacity=".4507"/>
    <path id="XMLID_40_" class="st34" d="m80 149.9c-33.7 0-61.2-27.4-61.2-61.2 0-33.7 27.5-61.2 61.2-61.2s61.2 27.4 61.2 61.2-27.5 61.2-61.2 61.2z" opacity=".4648"/>
    <path id="XMLID_39_" class="st35" d="m80 149.9c-33.7 0-61.2-27.4-61.2-61.2 0-33.7 27.5-61.2 61.2-61.2s61.2 27.4 61.2 61.2c0 33.7-27.5 61.2-61.2 61.2z" opacity=".4789"/>
    <path id="XMLID_38_" class="st36" d="m80 149.9c-33.7 0-61.2-27.4-61.2-61.2 0-33.7 27.5-61.2 61.2-61.2s61.2 27.4 61.2 61.2c0 33.7-27.5 61.2-61.2 61.2z" opacity=".493"/>
    <path id="XMLID_37_" class="st37" d="m80 149.9c-33.7 0-61.2-27.4-61.2-61.2 0-33.7 27.5-61.2 61.2-61.2s61.2 27.4 61.2 61.2c0 33.7-27.5 61.2-61.2 61.2z" opacity=".507"/>
    <path id="XMLID_36_" class="st38" d="m80 149.9c-33.7 0-61.2-27.4-61.2-61.2 0-33.7 27.5-61.2 61.2-61.2s61.2 27.4 61.2 61.2c0 33.7-27.5 61.2-61.2 61.2z" opacity=".5211"/>
    <path id="XMLID_35_" class="st39" d="m80 149.9c-33.7 0-61.2-27.4-61.2-61.2 0-33.7 27.4-61.2 61.2-61.2 33.7 0 61.2 27.4 61.2 61.2 0 33.7-27.5 61.2-61.2 61.2z" opacity=".5352"/>
    <path id="XMLID_34_" class="st40" d="m80 149.9c-33.7 0-61.2-27.4-61.2-61.2 0-33.7 27.4-61.2 61.2-61.2 33.7 0 61.2 27.4 61.2 61.2 0 33.7-27.5 61.2-61.2 61.2z" opacity=".5493"/>
    <path id="XMLID_33_" class="st41" d="m80 149.8c-33.7 0-61.2-27.4-61.2-61.2 0-33.7 27.4-61.2 61.2-61.2 33.7 0 61.2 27.4 61.2 61.2s-27.5 61.2-61.2 61.2z" opacity=".5634"/>
    <path id="XMLID_32_" class="st42" d="m80 149.8c-33.7 0-61.2-27.4-61.2-61.2 0-33.7 27.4-61.2 61.2-61.2 33.7 0 61.2 27.4 61.2 61.2s-27.5 61.2-61.2 61.2z" opacity=".5775"/>
    <path id="XMLID_31_" class="st43" d="m80 149.8c-33.7 0-61.2-27.4-61.2-61.2 0-33.7 27.4-61.2 61.2-61.2 33.7 0 61.2 27.4 61.2 61.2s-27.5 61.2-61.2 61.2z" opacity=".5915"/>
    <path id="XMLID_30_" class="st44" d="m80 149.8c-33.7 0-61.2-27.4-61.2-61.2 0-33.7 27.4-61.2 61.2-61.2 33.7 0 61.2 27.4 61.2 61.2s-27.5 61.2-61.2 61.2z" opacity=".6056"/>
    <path id="XMLID_29_" class="st45" d="m80 149.8c-33.7 0-61.2-27.4-61.2-61.2 0-33.7 27.4-61.2 61.2-61.2 33.7 0 61.2 27.4 61.2 61.2s-27.5 61.2-61.2 61.2z" opacity=".6197"/>
    <path id="XMLID_28_" class="st46" d="m80 149.8c-33.7 0-61.2-27.4-61.2-61.2 0-33.7 27.4-61.2 61.2-61.2 33.7 0 61.2 27.4 61.2 61.2s-27.5 61.2-61.2 61.2z" opacity=".6338"/>
    <path id="XMLID_27_" class="st47" d="m80 149.8c-33.7 0-61.2-27.4-61.2-61.2 0-33.7 27.4-61.2 61.2-61.2 33.7 0 61.2 27.4 61.2 61.2 0 33.7-27.5 61.2-61.2 61.2z" opacity=".6479"/>
    <path id="XMLID_26_" class="st48" d="m80 149.8c-33.7 0-61.2-27.4-61.2-61.2 0-33.7 27.4-61.2 61.2-61.2 33.7 0 61.2 27.4 61.2 61.2 0 33.7-27.5 61.2-61.2 61.2z" opacity=".662"/>
    <path id="XMLID_25_" class="st49" d="m80 149.8c-33.7 0-61.2-27.4-61.2-61.2 0-33.7 27.4-61.2 61.2-61.2 33.7 0 61.2 27.4 61.2 61.2 0 33.7-27.5 61.2-61.2 61.2z" opacity=".6761"/>
    <path id="XMLID_24_" class="st50" d="m80 149.8c-33.7 0-61.2-27.4-61.2-61.2 0-33.7 27.4-61.2 61.2-61.2 33.7 0 61.2 27.4 61.2 61.2 0 33.7-27.5 61.2-61.2 61.2z" opacity=".6901"/>
    <path id="XMLID_23_" class="st51" d="m80 149.8c-33.7 0-61.2-27.4-61.2-61.2 0-33.7 27.4-61.2 61.2-61.2 33.7 0 61.2 27.4 61.2 61.2 0 33.7-27.5 61.2-61.2 61.2z" opacity=".7042"/>
    <path id="XMLID_22_" class="st52" d="m80 149.8c-33.7 0-61.2-27.4-61.2-61.2 0-33.7 27.4-61.2 61.2-61.2 33.7 0 61.2 27.4 61.2 61.2 0 33.7-27.5 61.2-61.2 61.2z" opacity=".7183"/>
    <path id="XMLID_21_" class="st53" d="m80 149.7c-33.7 0-61.2-27.4-61.2-61.2 0-33.7 27.4-61.2 61.2-61.2 33.7 0 61.2 27.4 61.2 61.2s-27.5 61.2-61.2 61.2z" opacity=".7324"/>
    <path id="XMLID_20_" class="st54" d="m80 149.7c-33.7 0-61.2-27.4-61.2-61.2 0-33.7 27.4-61.2 61.2-61.2 33.7 0 61.2 27.4 61.2 61.2s-27.5 61.2-61.2 61.2z" opacity=".7465"/>
    <path id="XMLID_19_" class="st55" d="m80 149.7c-33.7 0-61.2-27.4-61.2-61.2 0-33.7 27.4-61.2 61.2-61.2 33.7 0 61.2 27.4 61.2 61.2s-27.5 61.2-61.2 61.2z" opacity=".7606"/>
    <path id="XMLID_18_" class="st56" d="m80 149.7c-33.7 0-61.2-27.4-61.2-61.2 0-33.7 27.4-61.2 61.2-61.2 33.7 0 61.2 27.4 61.2 61.2s-27.5 61.2-61.2 61.2z" opacity=".7746"/>
    <path id="XMLID_17_" class="st57" d="m80 149.7c-33.7 0-61.2-27.4-61.2-61.2 0-33.7 27.4-61.2 61.2-61.2 33.7 0 61.2 27.4 61.2 61.2s-27.5 61.2-61.2 61.2z" opacity=".7887"/>
    <path id="XMLID_16_" class="st58" d="m80 149.7c-33.7 0-61.2-27.4-61.2-61.2 0-33.7 27.4-61.2 61.2-61.2 33.7 0 61.2 27.4 61.2 61.2s-27.5 61.2-61.2 61.2z" opacity=".8028"/>
    <path id="XMLID_15_" class="st59" d="m80 149.7c-33.7 0-61.2-27.4-61.2-61.2 0-33.7 27.4-61.2 61.2-61.2 33.7 0 61.2 27.4 61.2 61.2s-27.5 61.2-61.2 61.2z" opacity=".8169"/>
    <path id="XMLID_14_" class="st60" d="m80 149.7c-33.7 0-61.2-27.4-61.2-61.2 0-33.7 27.4-61.2 61.2-61.2 33.7 0 61.2 27.4 61.2 61.2 0 33.7-27.5 61.2-61.2 61.2z" opacity=".831"/>
    <path id="XMLID_13_" class="st61" d="m80 149.7c-33.7 0-61.2-27.4-61.2-61.2 0-33.7 27.4-61.2 61.2-61.2 33.7 0 61.2 27.4 61.2 61.2 0 33.7-27.5 61.2-61.2 61.2z" opacity=".8451"/>
    <path id="XMLID_12_" class="st62" d="m80 149.7c-33.7 0-61.2-27.4-61.2-61.2 0-33.7 27.4-61.2 61.2-61.2 33.7 0 61.2 27.4 61.2 61.2 0 33.7-27.5 61.2-61.2 61.2z" opacity=".8592"/>
    <path id="XMLID_11_" class="st63" d="m80 149.7c-33.7 0-61.2-27.4-61.2-61.2 0-33.7 27.4-61.2 61.2-61.2 33.7 0 61.2 27.4 61.2 61.2 0 33.7-27.5 61.2-61.2 61.2z" opacity=".8732"/>
    <path id="XMLID_10_" class="st64" d="m80 149.7c-33.7 0-61.2-27.4-61.2-61.2 0-33.7 27.4-61.2 61.2-61.2 33.7 0 61.2 27.4 61.2 61.2 0 33.7-27.5 61.2-61.2 61.2z" opacity=".8873"/>
    <path id="XMLID_9_" class="st65" d="m80 149.7c-33.7 0-61.2-27.4-61.2-61.2 0-33.7 27.4-61.2 61.2-61.2 33.7 0 61.2 27.4 61.2 61.2 0 33.7-27.5 61.2-61.2 61.2z" opacity=".9014"/>
    <path id="XMLID_8_" class="st66" d="m80 149.6c-33.7 0-61.2-27.4-61.2-61.2 0-33.7 27.4-61.2 61.2-61.2 33.7 0 61.2 27.4 61.2 61.2s-27.5 61.2-61.2 61.2z" opacity=".9155"/>
    <path id="XMLID_7_" class="st67" d="m80 149.6c-33.7 0-61.2-27.4-61.2-61.2 0-33.7 27.4-61.2 61.2-61.2 33.7 0 61.2 27.4 61.2 61.2s-27.5 61.2-61.2 61.2z" opacity=".9296"/>
    <path id="XMLID_6_" class="st68" d="m80 149.6c-33.7 0-61.2-27.4-61.2-61.2 0-33.7 27.4-61.2 61.2-61.2 33.7 0 61.2 27.4 61.2 61.2s-27.5 61.2-61.2 61.2z" opacity=".9437"/>
    <path id="XMLID_5_" class="st69" d="m80 149.6c-33.7 0-61.2-27.4-61.2-61.2 0-33.7 27.4-61.2 61.2-61.2 33.7 0 61.2 27.4 61.2 61.2s-27.5 61.2-61.2 61.2z" opacity=".9577"/>
    <path id="XMLID_4_" class="st70" d="m80 149.6c-33.7 0-61.2-27.4-61.2-61.2 0-33.7 27.4-61.2 61.2-61.2 33.7 0 61.2 27.4 61.2 61.2s-27.5 61.2-61.2 61.2z" opacity=".9718"/>
    <path id="XMLID_3_" class="st71" d="m80 149.6c-33.7 0-61.2-27.4-61.2-61.2 0-33.7 27.4-61.2 61.2-61.2 33.7 0 61.2 27.4 61.2 61.2s-27.5 61.2-61.2 61.2z" opacity=".9859"/>
    <path id="XMLID_1_" class="st72" d="m80 149.6c-33.7 0-61.2-27.4-61.2-61.2 0-33.7 27.4-61.2 61.2-61.2 33.7 0 61.2 27.4 61.2 61.2 0 33.7-27.5 61.2-61.2 61.2z"/>
   </g>
  </g>
  <path id="XMLID_81_" class="st73" d="m100.54 163.43c-8.9165 0-16.193-7.2496-16.193-16.192 0-8.9164 7.2496-16.192 16.193-16.192 8.9164 0 16.192 7.2496 16.192 16.192 0 8.9165-7.276 16.192-16.192 16.192z" fill="url(#XMLID_286_)" stroke-width=".26458"/>
  <g id="XMLID_73_" transform="matrix(.26458 0 0 .26458 79.375 123.85)" fill="#fff">
   <path id="XMLID_488_" class="st74" d="m37.1 51.9c2.5 3 4.9 6.2 7.6 9.1 1.8 1.9 3.8 3.6 6 5.3-0.4-3-0.4-5.9 1.9-8 1.3-1.2 3.1-2.1 4.8-2.5 3.3-0.7 6.9 1.8 8 5.2 1.4 4.2-0.4 7.3-6.1 10.2 0.5 0.3 0.8 0.6 1.3 0.7 4.6 1 9.3 2 13.9 3.1 1.2 0.3 2.8 0.6 3.3 1.5 0.7 1.4-0.8 2.4-1.9 3.2-4.3 3.2-8.9 4-14 2.4-0.6-0.2-1.3-0.3-2.2-0.6 1.2 5.9 2.3 11.5 3.4 17.4-1.9-0.2-3.4-0.4-5.4-0.6 0.3 1.4 0.4 2.5 0.7 3.6 0.6 2.5 1.3 5 1.8 7.6 0.6 2.8-0.3 5.1-2.3 5.9-2.1 0.9-5.3 0.3-6.5-2.1-1.3-2.5-2.1-5.4-2.7-8.2-0.6-3.1-0.6-6.4-0.7-9.6 0-1.4-0.8-1.7-1.9-1.8-1.1 0-1.7 0.5-1.8 1.8-0.2 4.7-0.6 9.4-1 14.1-0.2 2.5-1.7 3.7-4.2 3.3-3.6-0.6-6.1-3.3-6.5-7.1-0.4-4.3 0.1-8.5 1.3-12.7 0.1-0.4 0.2-0.8 0.3-1.3v-0.7c-1.4-0.4-2.8-0.7-4.5-1.2 0.7-1.3 1.2-2.3 1.8-3.4 2.6-5 6-9.4 9.9-13.4 1-1.1 1.1-1.7 0.1-2.9-3.3-3.5-5.8-7.4-6.7-12.2-0.5-2.2-0.5-4.4 0.8-6.4 0.5 0.3 1 0.3 1.5 0.3z"/>
   <path id="XMLID_487_" class="st74" d="m114.1 90.3c-0.2 2.1-0.4 4.2-0.5 6.4-0.5 6.6-1.2 13.2-3.8 19.4-1.5 3.5-4.4 5.2-8.1 4.9-3.2-0.3-4.5-2.1-3.7-5.2 1.8-6.5 3.8-13 5.4-19.6 0.6-2.6 0.5-5.4 0.5-8.1 0-1.5-0.8-2.1-2.6-1.9-5 0.7-9.9 0.2-14.5-2.1-1.5-0.8-3-2-4.1-3.4-1.3-1.6-0.5-4.1 2.2-3.9 5.6 0.4 11.2-0.2 16.7-1.8 0.6-0.2 1.1-0.4 2.1-0.7-3.4-1.2-5.7-3-6.5-6.2-0.5-2-0.3-3.8 0.6-5.6 1.9-3.7 6.3-5.4 10.1-3.9 4.4 1.7 5.8 5.5 4.2 11.8 0.6-0.4 1.2-0.6 1.7-0.9 4.4-2.8 8.1-6.3 11.4-10.3 0.7-0.9 1.4-2 2.9-1.5s2.1 1.8 2.1 3.2c-0.1 4.1-0.8 8-3.6 11.3-1 1.2-2 2.3-3.2 3.3-1 0.8-1.1 1.5-0.6 2.7 3.1 7.5 5.5 15.2 6.2 23.4 0.4 5-0.2 9.8-1.8 14.6-1.8 5.2-8.3 5.2-10.9 3-0.7-0.6-1.2-1.9-1.1-2.9 0.3-4.9 1-9.8 1.2-14.8 0.1-2.9-0.5-5.9-0.8-8.8-0.1-0.8-0.5-1.5-0.8-2.2-0.3-0.1-0.5-0.1-0.7-0.2z"/>
  </g>
 </g>
</svg>
